<mxfile host="app.diagrams.net" agent="Mozilla/5.0 (Windows NT 10.0; Win64; x64) AppleWebKit/537.36 (KHTML, like Gecko) Chrome/131.0.0.0 Safari/537.36" version="26.0.2">
  <diagram id="WI9T0HZ2pTsCkuznbFz-" name="Page-1">
    <mxGraphModel dx="2875" dy="1225" grid="1" gridSize="1" guides="1" tooltips="1" connect="1" arrows="1" fold="1" page="1" pageScale="1" pageWidth="1600" pageHeight="1169" math="0" shadow="0">
      <root>
        <mxCell id="0" />
        <mxCell id="1" parent="0" />
        <mxCell id="peVuCgtXguEHT-1qdN5K-63" value="" style="rounded=0;whiteSpace=wrap;html=1;fillColor=#F9F9F9;strokeColor=#0078D4;" vertex="1" parent="1">
          <mxGeometry x="488" y="324" width="648" height="747" as="geometry" />
        </mxCell>
        <mxCell id="peVuCgtXguEHT-1qdN5K-49" value="" style="rounded=0;whiteSpace=wrap;html=1;fillColor=#F9F9F9;strokeColor=#0078D4;" vertex="1" parent="1">
          <mxGeometry x="123" y="330" width="240" height="739" as="geometry" />
        </mxCell>
        <mxCell id="peVuCgtXguEHT-1qdN5K-42" value="" style="rounded=0;whiteSpace=wrap;html=1;fillColor=#F9F9F9;strokeColor=#0078D4;" vertex="1" parent="1">
          <mxGeometry x="1260" y="329" width="240" height="747" as="geometry" />
        </mxCell>
        <mxCell id="peVuCgtXguEHT-1qdN5K-99" style="edgeStyle=orthogonalEdgeStyle;rounded=0;orthogonalLoop=1;jettySize=auto;html=1;entryX=0;entryY=0.75;entryDx=0;entryDy=0;strokeColor=#000000;" edge="1" parent="1" source="peVuCgtXguEHT-1qdN5K-7" target="peVuCgtXguEHT-1qdN5K-31">
          <mxGeometry relative="1" as="geometry" />
        </mxCell>
        <mxCell id="peVuCgtXguEHT-1qdN5K-7" value="" style="shape=image;verticalLabelPosition=bottom;labelBackgroundColor=#ffffff;verticalAlign=top;aspect=fixed;imageAspect=0;image=data:image/svg+xml,PHN2ZyB4bWxuczpkYz0iaHR0cDovL3B1cmwub3JnL2RjL2VsZW1lbnRzLzEuMS8iIHhtbG5zOmNjPSJodHRwOi8vY3JlYXRpdmVjb21tb25zLm9yZy9ucyMiIHhtbG5zOnJkZj0iaHR0cDovL3d3dy53My5vcmcvMTk5OS8wMi8yMi1yZGYtc3ludGF4LW5zIyIgeG1sbnM6c3ZnPSJodHRwOi8vd3d3LnczLm9yZy8yMDAwL3N2ZyIgeG1sbnM9Imh0dHA6Ly93d3cudzMub3JnLzIwMDAvc3ZnIiB4bWxuczpzb2RpcG9kaT0iaHR0cDovL3NvZGlwb2RpLnNvdXJjZWZvcmdlLm5ldC9EVEQvc29kaXBvZGktMC5kdGQiIHhtbG5zOmlua3NjYXBlPSJodHRwOi8vd3d3Lmlua3NjYXBlLm9yZy9uYW1lc3BhY2VzL2lua3NjYXBlIiB2ZXJzaW9uPSIxLjEiIGlkPSJzdmc4NjU5MCIgaW5rc2NhcGU6dmVyc2lvbj0iMC45Mi4zICgyNDA1NTQ2LCAyMDE4LTAzLTExKSIgc29kaXBvZGk6ZG9jbmFtZT0ibXlzcWwuc3ZnIiB4PSIwcHgiIHk9IjBweCIgdmlld0JveD0iMCAwIDI4LjUxIDM3LjUiIHhtbDpzcGFjZT0icHJlc2VydmUiIHdpZHRoPSIyOC41MSIgaGVpZ2h0PSIzNy41Ij48bWV0YWRhdGEgaWQ9Im1ldGFkYXRhNTY4MSI+PHJkZjpSREY+PGNjOldvcmsgcmRmOmFib3V0PSIiPjxkYzpmb3JtYXQ+aW1hZ2Uvc3ZnK3htbDwvZGM6Zm9ybWF0PjxkYzp0eXBlIHJkZjpyZXNvdXJjZT0iaHR0cDovL3B1cmwub3JnL2RjL2RjbWl0eXBlL1N0aWxsSW1hZ2UiLz48ZGM6dGl0bGUvPjwvY2M6V29yaz48L3JkZjpSREY+PC9tZXRhZGF0YT48ZGVmcyBpZD0iZGVmczU2NzkiPiYjeGE7CSYjeGE7JiN4YTsJJiN4YTsmI3hhOwkmI3hhOyYjeGE7CSYjeGE7JiN4YTsJJiN4YTsmI3hhOwkmI3hhOyYjeGE7CSYjeGE7JiN4YTsJJiN4YTs8L2RlZnM+JiN4YTs8ZmlsdGVyIGlkPSJmaWx0ZXJfMiI+JiN4YTsJPGZlR2F1c3NpYW5CbHVyIGlkPSJmZUdhdXNzaWFuQmx1cjg2NTE1IiBzdGREZXZpYXRpb249IjIiLz4mI3hhOzwvZmlsdGVyPiYjeGE7PHNvZGlwb2RpOm5hbWVkdmlldyBib3JkZXJjb2xvcj0iIzY2NjY2NiIgYm9yZGVyb3BhY2l0eT0iMSIgZml0LW1hcmdpbi1ib3R0b209IjAiIGZpdC1tYXJnaW4tbGVmdD0iMCIgZml0LW1hcmdpbi1yaWdodD0iMCIgZml0LW1hcmdpbi10b3A9IjAiIGdyaWR0b2xlcmFuY2U9IjEwIiBndWlkZXRvbGVyYW5jZT0iMTAiIGlkPSJuYW1lZHZpZXc4NjU5MiIgaW5rc2NhcGU6Y3VycmVudC1sYXllcj0ic3ZnODY1OTAiIGlua3NjYXBlOmN4PSItMjguMDU4Mzc2IiBpbmtzY2FwZTpjeT0iMjQuNzM0MjY3IiBpbmtzY2FwZTpwYWdlb3BhY2l0eT0iMCIgaW5rc2NhcGU6cGFnZXNoYWRvdz0iMiIgaW5rc2NhcGU6d2luZG93LWhlaWdodD0iMTAxNyIgaW5rc2NhcGU6d2luZG93LW1heGltaXplZD0iMSIgaW5rc2NhcGU6d2luZG93LXdpZHRoPSIxOTIwIiBpbmtzY2FwZTp3aW5kb3cteD0iLTgiIGlua3NjYXBlOndpbmRvdy15PSItOCIgaW5rc2NhcGU6em9vbT0iMTAuNTcwMDIyIiBvYmplY3R0b2xlcmFuY2U9IjEwIiBwYWdlY29sb3I9IiNmZmZmZmYiIHNob3dncmlkPSJmYWxzZSI+JiN4YTsJPC9zb2RpcG9kaTpuYW1lZHZpZXc+JiN4YTsmI3hhOzxwYXRoIGlkPSJwYXRoODY1MjgiIGlua3NjYXBlOmNvbm5lY3Rvci1jdXJ2YXR1cmU9IjAiIHN0eWxlPSJmaWxsOiMwMDcyYzYiIGQ9Im0gMCw1LjEyIHYgMjcuMjYgYyAwLDIuODMgNi4zOCw1LjEyIDE0LjI1LDUuMTIgViA1LjEyIFoiLz4mI3hhOyYjeGE7PHBhdGggaWQ9InBhdGg4NjUzNiIgaW5rc2NhcGU6Y29ubmVjdG9yLWN1cnZhdHVyZT0iMCIgc3R5bGU9ImZpbGw6IzAwNzJjNiIgZD0ibSAxNC4wNiwzNy41IGggMC4xOSBjIDcuODcsMCAxNC4yNiwtMi4yOSAxNC4yNiwtNS4xMiBWIDUuMTIgSCAxNC4wNiBaIi8+JiN4YTsmI3hhOzxwYXRoIGlkPSJwYXRoODY1NDQiIGlua3NjYXBlOmNvbm5lY3Rvci1jdXJ2YXR1cmU9IjAiIHN0eWxlPSJmaWxsOiNmZmZmZmY7ZmlsbC1vcGFjaXR5OjAuMTUiIGQ9Im0gMTQuMDYsMzcuNSBoIDAuMTkgYyA3Ljg3LDAgMTQuMjYsLTIuMjkgMTQuMjYsLTUuMTIgViA1LjEyIEggMTQuMDYgWiIvPiYjeGE7JiN4YTs8cGF0aCBpZD0icGF0aDg2NTUyIiBpbmtzY2FwZTpjb25uZWN0b3ItY3VydmF0dXJlPSIwIiBzdHlsZT0iZmlsbDojZmZmZmZmIiBkPSJtIDI4LjUsNS4xMyBjIDAsMi44MyAtNi4zOCw1LjEyIC0xNC4yNSw1LjEyIEMgNi4zOCwxMC4yNSAwLDcuOTYgMCw1LjEzIDAsMi4zIDYuMzgsMCAxNC4yNSwwIDIyLjEyLDAgMjguNSwyLjMgMjguNSw1LjEzIFoiLz4mI3hhOyYjeGE7PHBhdGggaWQ9InBhdGg4NjU2MCIgaW5rc2NhcGU6Y29ubmVjdG9yLWN1cnZhdHVyZT0iMCIgc3R5bGU9ImZpbGw6I2RkNTkwMCIgZD0iTSAyNS41OCw0LjgzIEMgMjUuNTgsNi43IDIwLjUxLDguMjEgMTQuMjUsOC4yMSA3Ljk5LDguMjEgMi45MSw2LjcgMi45MSw0LjgzIGMgMCwtMS44NyA1LjA4LC0zLjM4IDExLjM0LC0zLjM4IDYuMjYsMCAxMS4zMywxLjUxIDExLjMzLDMuMzggeiIvPiYjeGE7JiN4YTs8cGF0aCBpZD0icGF0aDg2NTY4IiBpbmtzY2FwZTpjb25uZWN0b3ItY3VydmF0dXJlPSIwIiBzdHlsZT0iZmlsbDojZmY4YzAwIiBkPSJNIDIzLjIxLDYuOSBDIDI0LjY5LDYuMzMgMjUuNTgsNS42MSAyNS41OCw0Ljg0IDI1LjU4LDIuOTcgMjAuNTEsMS40NiAxNC4yNSwxLjQ2IDcuOTksMS40NiAyLjkxLDIuOTcgMi45MSw0Ljg0IDIuOTEsNS42MSAzLjgsNi4zMyA1LjI5LDYuOSA3LjM2LDYuMSAxMC42LDUuNTkgMTQuMjUsNS41OSBjIDMuNjUsMCA2Ljg4LDAuNTEgOC45NiwxLjMxIHoiLz4mI3hhOyYjeGE7PHBhdGggaWQ9InBhdGg4NjU3NiIgaW5rc2NhcGU6Y29ubmVjdG9yLWN1cnZhdHVyZT0iMCIgc3R5bGU9ImZpbGw6I2ZmZmZmZiIgZD0ibSAyLjk2LDI1LjE5IGggMS44IHYgLTcuMTIgbCAyLjc5LDYuMiBjIDAuMzMsMC43NSAwLjc4LDEuMDIgMS42NywxLjAyIDAuODgsMCAxLjMxLC0wLjI3IDEuNjQsLTEuMDIgbCAyLjc5LC02LjIgdiA3LjEyIGggMS44MSB2IC03LjExIGMgMCwtMC42OSAtMC4yOCwtMS4wMyAtMC44NSwtMS4yIC0xLjM3LC0wLjQzIC0yLjI5LC0wLjA2IC0yLjcxLDAuODcgTCA5LjE2LDIzLjg3IDYuNTEsMTcuNzUgYyAtMC40LC0wLjkzIC0xLjMzLC0xLjMgLTIuNywtMC44NyAtMC41NywwLjE3IC0wLjg1LDAuNTEgLTAuODUsMS4yIHoiLz4mI3hhOyYjeGE7PHBhdGggaWQ9InBhdGg4NjU4NCIgaW5rc2NhcGU6Y29ubmVjdG9yLWN1cnZhdHVyZT0iMCIgc3R5bGU9ImZpbGw6I2ZmZmZmZiIgZD0ibSAxNi45NSwxOS40IGggMS44IHYgMy45MiBjIC0wLjAyLDAuMjEgMC4wNywwLjcxIDEuMDYsMC43MyAwLjUsMC4wMSAzLjg4LDAgMy45MiwwIHYgLTQuNjcgaCAxLjggYyAwLjAxLDAgMCw2LjM3IDAsNi4zOSAwLjAxLDEuNTcgLTEuOTUsMS45MSAtMi44NSwxLjk0IEggMTYuOTkgViAyNi41IGMgMC4wMSwwIDUuNjksMCA1LjcsMCAxLjE2LC0wLjEyIDEuMDIsLTAuNyAxLjAyLC0wLjkgdiAtMC40NyBoIC0zLjgzIGMgLTEuNzgsLTAuMDEgLTIuOTIsLTAuNzkgLTIuOTMsLTEuNjkgMCwtMC4wOCAwLjA0LC00IDAsLTQuMDQgeiIvPiYjeGE7PC9zdmc+;" vertex="1" parent="1">
          <mxGeometry x="188" y="509" width="58.76" height="77" as="geometry" />
        </mxCell>
        <mxCell id="peVuCgtXguEHT-1qdN5K-107" style="edgeStyle=orthogonalEdgeStyle;rounded=0;orthogonalLoop=1;jettySize=auto;html=1;entryX=0.5;entryY=1;entryDx=0;entryDy=0;strokeColor=#000000;" edge="1" parent="1" source="peVuCgtXguEHT-1qdN5K-8" target="peVuCgtXguEHT-1qdN5K-31">
          <mxGeometry relative="1" as="geometry" />
        </mxCell>
        <mxCell id="peVuCgtXguEHT-1qdN5K-8" value="" style="outlineConnect=0;dashed=0;verticalLabelPosition=bottom;verticalAlign=top;align=center;html=1;shape=mxgraph.aws3.sensor;fillColor=#5294CF;gradientColor=none;" vertex="1" parent="1">
          <mxGeometry x="192" y="776" width="73" height="85.17" as="geometry" />
        </mxCell>
        <mxCell id="peVuCgtXguEHT-1qdN5K-9" value="&lt;font style=&quot;font-size: 24px;&quot;&gt;Databases&lt;/font&gt;" style="text;html=1;align=center;verticalAlign=middle;whiteSpace=wrap;rounded=0;" vertex="1" parent="1">
          <mxGeometry x="215" y="598" width="60" height="30" as="geometry" />
        </mxCell>
        <mxCell id="peVuCgtXguEHT-1qdN5K-10" value="&lt;font style=&quot;font-size: 24px;&quot;&gt;Streaming Data from web apps and CRM&lt;/font&gt;" style="text;html=1;align=center;verticalAlign=middle;whiteSpace=wrap;rounded=0;" vertex="1" parent="1">
          <mxGeometry x="148" y="919" width="190" height="30" as="geometry" />
        </mxCell>
        <mxCell id="peVuCgtXguEHT-1qdN5K-22" value="" style="shape=image;verticalLabelPosition=bottom;labelBackgroundColor=default;verticalAlign=top;aspect=fixed;imageAspect=0;image=https://debruyn.dev/2023/all-microsoft-fabric-icons-for-diagramming-old-version/synapse_data_warehouse_512_color.png;" vertex="1" parent="1">
          <mxGeometry x="1322" y="517" width="80" height="80.16" as="geometry" />
        </mxCell>
        <mxCell id="peVuCgtXguEHT-1qdN5K-23" value="" style="shape=image;verticalLabelPosition=bottom;labelBackgroundColor=#ffffff;verticalAlign=top;aspect=fixed;imageAspect=0;image=data:image/svg+xml,PHN2ZyB4bWxuczpkYz0iaHR0cDovL3B1cmwub3JnL2RjL2VsZW1lbnRzLzEuMS8iIHhtbG5zOmNjPSJodHRwOi8vY3JlYXRpdmVjb21tb25zLm9yZy9ucyMiIHhtbG5zOnJkZj0iaHR0cDovL3d3dy53My5vcmcvMTk5OS8wMi8yMi1yZGYtc3ludGF4LW5zIyIgeG1sbnM6c3ZnPSJodHRwOi8vd3d3LnczLm9yZy8yMDAwL3N2ZyIgeG1sbnM9Imh0dHA6Ly93d3cudzMub3JnLzIwMDAvc3ZnIiB4bWxuczpzb2RpcG9kaT0iaHR0cDovL3NvZGlwb2RpLnNvdXJjZWZvcmdlLm5ldC9EVEQvc29kaXBvZGktMC5kdGQiIHhtbG5zOmlua3NjYXBlPSJodHRwOi8vd3d3Lmlua3NjYXBlLm9yZy9uYW1lc3BhY2VzL2lua3NjYXBlIiB2ZXJzaW9uPSIxLjEiIGlkPSJzdmc5MTExMCIgaW5rc2NhcGU6dmVyc2lvbj0iMC45Mi4zICgyNDA1NTQ2LCAyMDE4LTAzLTExKSIgc29kaXBvZGk6ZG9jbmFtZT0icG93ZXJfYmkuc3ZnIiB4PSIwcHgiIHk9IjBweCIgdmlld0JveD0iMCAwIDUwLjg1IDM4LjA3IiB4bWw6c3BhY2U9InByZXNlcnZlIiB3aWR0aD0iNTAuODQ5OTk4IiBoZWlnaHQ9IjM4LjA3Ij48bWV0YWRhdGEgaWQ9Im1ldGFkYXRhMTgwNjYiPjxyZGY6UkRGPjxjYzpXb3JrIHJkZjphYm91dD0iIj48ZGM6Zm9ybWF0PmltYWdlL3N2Zyt4bWw8L2RjOmZvcm1hdD48ZGM6dHlwZSByZGY6cmVzb3VyY2U9Imh0dHA6Ly9wdXJsLm9yZy9kYy9kY21pdHlwZS9TdGlsbEltYWdlIi8+PGRjOnRpdGxlLz48L2NjOldvcms+PC9yZGY6UkRGPjwvbWV0YWRhdGE+PGRlZnMgaWQ9ImRlZnMxODA2NCIvPiYjeGE7PGZpbHRlciBpZD0iZmlsdGVyXzIiPiYjeGE7CTxmZUdhdXNzaWFuQmx1ciBpZD0iZmVHYXVzc2lhbkJsdXI5MTA0MyIgc3RkRGV2aWF0aW9uPSIyIi8+JiN4YTs8L2ZpbHRlcj4mI3hhOzxzb2RpcG9kaTpuYW1lZHZpZXcgYm9yZGVyY29sb3I9IiM2NjY2NjYiIGJvcmRlcm9wYWNpdHk9IjEiIGZpdC1tYXJnaW4tYm90dG9tPSIwIiBmaXQtbWFyZ2luLWxlZnQ9IjAiIGZpdC1tYXJnaW4tcmlnaHQ9IjAiIGZpdC1tYXJnaW4tdG9wPSIwIiBncmlkdG9sZXJhbmNlPSIxMCIgZ3VpZGV0b2xlcmFuY2U9IjEwIiBpZD0ibmFtZWR2aWV3OTExMTIiIGlua3NjYXBlOmN1cnJlbnQtbGF5ZXI9InN2ZzkxMTEwIiBpbmtzY2FwZTpjeD0iLTMxLjA3MjI0OCIgaW5rc2NhcGU6Y3k9IjE4LjI0MDY4NiIgaW5rc2NhcGU6cGFnZW9wYWNpdHk9IjAiIGlua3NjYXBlOnBhZ2VzaGFkb3c9IjIiIGlua3NjYXBlOndpbmRvdy1oZWlnaHQ9IjEwMTciIGlua3NjYXBlOndpbmRvdy1tYXhpbWl6ZWQ9IjEiIGlua3NjYXBlOndpbmRvdy13aWR0aD0iMTkyMCIgaW5rc2NhcGU6d2luZG93LXg9Ii04IiBpbmtzY2FwZTp3aW5kb3cteT0iLTgiIGlua3NjYXBlOnpvb209IjEwLjA5NTE0NiIgb2JqZWN0dG9sZXJhbmNlPSIxMCIgcGFnZWNvbG9yPSIjZmZmZmZmIiBzaG93Z3JpZD0iZmFsc2UiPiYjeGE7CTwvc29kaXBvZGk6bmFtZWR2aWV3PiYjeGE7JiN4YTsmI3hhOzxwYXRoIGlkPSJwYXRoOTEwNTgiIGlua3NjYXBlOmNvbm5lY3Rvci1jdXJ2YXR1cmU9IjAiIHN0eWxlPSJmaWxsOiNlZGJkMTEiIGQ9Ik0gNDQuODUsMzIuOTUgSCA0My44MyBWIDMwLjkgaCAxLjAyIGMgMi4xOCwwIDMuOTUsLTEuNzcgMy45NSwtMy45NSBWIDYgQyA0OC44LDMuODIgNDcuMDMsMi4wNSA0NC44NSwyLjA1IEggNiBDIDMuODIsMi4wNSAyLjA1LDMuODIgMi4wNSw2IHYgMjAuOTUgYyAwLjAxLDIuMTggMS43NywzLjk0IDMuOTUsMy45NCBoIDEuMDIgdiAyLjA1IEggNiBjIC0zLjMxLDAgLTUuOTksLTIuNjggLTYsLTUuOTkgViA2IEMgMCwyLjY5IDIuNjksMCA2LDAgaCAzOC44NSBjIDMuMzEsMCA2LDIuNjkgNiw2IHYgMjAuOTUgYyAtMC4wMSwzLjMxIC0yLjY5LDUuOTkgLTYsNS45OSB6Ii8+JiN4YTsmI3hhOyYjeGE7PHBhdGggaWQ9InBhdGg5MTA2OCIgaW5rc2NhcGU6Y29ubmVjdG9yLWN1cnZhdHVyZT0iMCIgc3R5bGU9ImZpbGw6I2VkYmQxMSIgZD0ibSAxMi4yOSwyNi4wOCBjIDEuNTQsMCAyLjc5LDEuMjQgMi43OSwyLjc4IDAsMCAwLDAuMDEgMCwwLjAxIHYgNi40MSBjIDAsMS41NCAtMS4yNCwyLjc5IC0yLjc4LDIuNzkgMCwwIC0wLjAxLDAgLTAuMDEsMCAtMS41NCwwIC0yLjc4LC0xLjI1IC0yLjc4LC0yLjc5IDAsMCAwLDAgMCwwIHYgLTYuNDEgYyAwLC0xLjU0IDEuMjQsLTIuNzkgMi43OCwtMi43OSAwLDAgMCwwIDAsMCB6Ii8+JiN4YTsmI3hhOyYjeGE7PHBhdGggaWQ9InBhdGg5MTA3OCIgaW5rc2NhcGU6Y29ubmVjdG9yLWN1cnZhdHVyZT0iMCIgc3R5bGU9ImZpbGw6I2VkYmQxMSIgZD0ibSAyMS4wNSwzOC4wNiBjIC0xLjUzLDAgLTIuNzgsLTEuMjUgLTIuNzgsLTIuNzggViAxOC44MSBjIDAsLTEuNTQgMS4yNSwtMi43OCAyLjc5LC0yLjc4IDEuNTQsMCAyLjc4LDEuMjUgMi43OCwyLjc4IHYgMTYuNDcgYyAwLDEuNTQgLTEuMjQsMi43OSAtMi43OCwyLjc5IDAsMCAtMC4wMSwwIC0wLjAxLDAgeiIvPiYjeGE7JiN4YTsmI3hhOyYjeGE7PHBhdGggaWQ9InBhdGg5MTA5MCIgaW5rc2NhcGU6Y29ubmVjdG9yLWN1cnZhdHVyZT0iMCIgc3R5bGU9ImZpbGw6I2VkYmQxMSIgZD0ibSAzOC41NSwzNy45OSBjIC0xLjU0LDAgLTIuNzgsLTEuMjUgLTIuNzgsLTIuNzkgMCwwIDAsMCAwLDAgViAxMS44NyBjIDAsLTEuNTQgMS4yNSwtMi43OCAyLjc5LC0yLjc4IDEuNTQsMCAyLjc4LDEuMjUgMi43OCwyLjc4IFYgMzUuMiBjIDAsMS41NCAtMS4yNCwyLjc5IC0yLjc4LDIuNzkgMCwwIC0wLjAxLDAgLTAuMDEsMCB6Ii8+JiN4YTsmI3hhOyYjeGE7JiN4YTs8cGF0aCBpZD0icGF0aDkxMTAyIiBpbmtzY2FwZTpjb25uZWN0b3ItY3VydmF0dXJlPSIwIiBzdHlsZT0iZmlsbDojZWRiZDExIiBkPSJtIDI5LjgsMzguMDcgYyAtMS41NCwwIC0yLjc4LC0xLjI1IC0yLjc4LC0yLjc5IDAsMCAwLDAgMCwwIFYgMjMuMDQgYyAwLC0xLjU0IDEuMjUsLTIuNzkgMi43OCwtMi43OSAxLjU0LDAgMi43OSwxLjI1IDIuNzksMi43OSB2IDAgMTIuMjQgYyAwLDEuNTQgLTEuMjQsMi43OSAtMi43OCwyLjc5IDAsMCAtMC4wMSwwIC0wLjAxLDAgeiIvPiYjeGE7JiN4YTs8L3N2Zz4=;" vertex="1" parent="1">
          <mxGeometry x="1318" y="696" width="82.6" height="61.55" as="geometry" />
        </mxCell>
        <mxCell id="peVuCgtXguEHT-1qdN5K-24" value="" style="shape=image;verticalLabelPosition=bottom;labelBackgroundColor=#ffffff;verticalAlign=top;aspect=fixed;imageAspect=0;image=data:image/svg+xml,PHN2ZyB4bWxuczpjYz0iaHR0cDovL2NyZWF0aXZlY29tbW9ucy5vcmcvbnMjIiB4bWxuczpkYz0iaHR0cDovL3B1cmwub3JnL2RjL2VsZW1lbnRzLzEuMS8iIHhtbG5zOmlua3NjYXBlPSJodHRwOi8vd3d3Lmlua3NjYXBlLm9yZy9uYW1lc3BhY2VzL2lua3NjYXBlIiB4bWxuczpyZGY9Imh0dHA6Ly93d3cudzMub3JnLzE5OTkvMDIvMjItcmRmLXN5bnRheC1ucyMiIHhtbG5zOnNvZGlwb2RpPSJodHRwOi8vc29kaXBvZGkuc291cmNlZm9yZ2UubmV0L0RURC9zb2RpcG9kaS0wLmR0ZCIgeG1sbnM6c3ZnPSJodHRwOi8vd3d3LnczLm9yZy8yMDAwL3N2ZyIgeG1sbnM9Imh0dHA6Ly93d3cudzMub3JnLzIwMDAvc3ZnIiB4bWxuczp4bGluaz0iaHR0cDovL3d3dy53My5vcmcvMTk5OS94bGluayIgdmVyc2lvbj0iMS4xIiBpZD0ic3ZnODM1OTMiIGlua3NjYXBlOnZlcnNpb249IjAuOTIuMyAoMjQwNTU0NiwgMjAxOC0wMy0xMSkiIHNvZGlwb2RpOmRvY25hbWU9Im1hY2hpbmVfbGVhcm5pbmdfMS5zdmciIHg9IjBweCIgeT0iMHB4IiB2aWV3Qm94PSIwIDAgNDUgNDgiIHN0eWxlPSJlbmFibGUtYmFja2dyb3VuZDpuZXcgMCAwIDQ1IDQ4OyIgeG1sOnNwYWNlPSJwcmVzZXJ2ZSI+JiN4YTs8c29kaXBvZGk6bmFtZWR2aWV3IGJvcmRlcmNvbG9yPSIjNjY2NjY2IiBib3JkZXJvcGFjaXR5PSIxIiBmaXQtbWFyZ2luLWJvdHRvbT0iMCIgZml0LW1hcmdpbi1sZWZ0PSIwIiBmaXQtbWFyZ2luLXJpZ2h0PSIwIiBmaXQtbWFyZ2luLXRvcD0iMCIgZ3JpZHRvbGVyYW5jZT0iMTAiIGd1aWRldG9sZXJhbmNlPSIxMCIgaWQ9Im5hbWVkdmlldzgzNTk1IiBpbmtzY2FwZTpjdXJyZW50LWxheWVyPSJzdmc4MzU5MyIgaW5rc2NhcGU6Y3g9IjMzLjMxNzk4NyIgaW5rc2NhcGU6Y3k9IjIzLjQzOTA5MyIgaW5rc2NhcGU6cGFnZW9wYWNpdHk9IjAiIGlua3NjYXBlOnBhZ2VzaGFkb3c9IjIiIGlua3NjYXBlOndpbmRvdy1oZWlnaHQ9IjEwMTciIGlua3NjYXBlOndpbmRvdy1tYXhpbWl6ZWQ9IjEiIGlua3NjYXBlOndpbmRvdy13aWR0aD0iMTkyMCIgaW5rc2NhcGU6d2luZG93LXg9Ii04IiBpbmtzY2FwZTp3aW5kb3cteT0iLTgiIGlua3NjYXBlOnpvb209IjkuMjg4ODExOCIgb2JqZWN0dG9sZXJhbmNlPSIxMCIgcGFnZWNvbG9yPSIjZmZmZmZmIiBzaG93Z3JpZD0iZmFsc2UiPiYjeGE7CTwvc29kaXBvZGk6bmFtZWR2aWV3PiYjeGE7PGcgaWQ9Imc4MzU5MSIgdHJhbnNmb3JtPSJ0cmFuc2xhdGUoLTAuNzUsLTAuNzUwMDAwNjEpIj4mI3hhOwk8dGl0bGUgaWQ9InRpdGxlODM1NjYiPlBhZ2UtMTwvdGl0bGU+JiN4YTsJPGcgaWQ9Imdyb3VwNTA3NS0xIiB0cmFuc2Zvcm09InRyYW5zbGF0ZSgwLjc1LC0wLjc1KSI+JiN4YTsJCTx0aXRsZSBpZD0idGl0bGU4MzU2OCI+TWFjaGluZSBMZWFybmluZyAjMS41MDY8L3RpdGxlPiYjeGE7CQk8ZyBpZD0ic2hhcGU1MDc2LTIiIHRyYW5zZm9ybT0idHJhbnNsYXRlKDE2LjQ3LC0yOS45ODUpIj4mI3hhOwkJCTx0aXRsZSBpZD0idGl0bGU4MzU3MCI+cmVjdDE1MDE1PC90aXRsZT4mI3hhOwkJCSYjeGE7CQkJCTxyYWRpYWxHcmFkaWVudCBpZD0icmVjdDgzNTcyXzFfIiBjeD0iNTUuMDUzOCIgY3k9IjExNy4wNjI3IiByPSI3LjM0MjMiIGdyYWRpZW50VHJhbnNmb3JtPSJtYXRyaXgoMC44MTUxIDAgMCAtMS4yMjY4IC0zOC44OTEzIDE4NC4xMDM5KSIgZ3JhZGllbnRVbml0cz0idXNlclNwYWNlT25Vc2UiPiYjeGE7CQkJCTxzdG9wIG9mZnNldD0iMCIgc3R5bGU9InN0b3AtY29sb3I6IzBFOTBDRiIvPiYjeGE7CQkJCTxzdG9wIG9mZnNldD0iMSIgc3R5bGU9InN0b3AtY29sb3I6IzAwNkRBQSIvPiYjeGE7CQkJPC9yYWRpYWxHcmFkaWVudD4mI3hhOwkJCTxyZWN0IGlkPSJyZWN0ODM1NzIiIHg9IjAiIHk9IjMxLjQ5IiBzdHlsZT0iZmlsbDp1cmwoI3JlY3Q4MzU3Ml8xXyk7IiB3aWR0aD0iMTEuOTciIGhlaWdodD0iMTguMDEiLz4mI3hhOwkJPC9nPiYjeGE7CQk8ZyBpZD0ic2hhcGU1MDc3LTYiPiYjeGE7CQkJPHRpdGxlIGlkPSJ0aXRsZTgzNTc1Ij5wb2x5Z29uMTUwMTc8L3RpdGxlPiYjeGE7CQkJJiN4YTsJCQkJPHJhZGlhbEdyYWRpZW50IGlkPSJwYXRoODM1NzdfMV8iIGN4PSItMTI1LjM3MiIgY3k9Ii0zODAuODY0OSIgcj0iMTEuNjA5MyIgZ3JhZGllbnRUcmFuc2Zvcm09Im1hdHJpeCgxLjkzODEgMCAwIC0wLjUxNiAyNjUuNDg0NCAtMTUzLjAwMzgpIiBncmFkaWVudFVuaXRzPSJ1c2VyU3BhY2VPblVzZSI+JiN4YTsJCQkJPHN0b3Agb2Zmc2V0PSIwIiBzdHlsZT0ic3RvcC1jb2xvcjojMUE0NDdBIi8+JiN4YTsJCQkJPHN0b3Agb2Zmc2V0PSIwLjI3IiBzdHlsZT0ic3RvcC1jb2xvcjojMTYzRTY4Ii8+JiN4YTsJCQkJPHN0b3Agb2Zmc2V0PSIwLjcyIiBzdHlsZT0ic3RvcC1jb2xvcjojMTAzNjUxIi8+JiN4YTsJCQkJPHN0b3Agb2Zmc2V0PSIxIiBzdHlsZT0ic3RvcC1jb2xvcjojMEUzMzQ4Ii8+JiN4YTsJCQk8L3JhZGlhbEdyYWRpZW50PiYjeGE7CQkJPHBhdGggaWQ9InBhdGg4MzU3NyIgaW5rc2NhcGU6Y29ubmVjdG9yLWN1cnZhdHVyZT0iMCIgc3R5bGU9ImZpbGw6dXJsKCNwYXRoODM1NzdfMV8pOyIgZD0iTTAsMzcuNTJoNDVMNDIuMDMsNDkuNUgyLjk3TDAsMzcuNTIgICAgIHoiLz4mI3hhOwkJPC9nPiYjeGE7CQk8ZyBpZD0ic2hhcGU1MDc4LTEwIj4mI3hhOwkJCTx0aXRsZSBpZD0idGl0bGU4MzU4MCI+cG9seWdvbjE1MDE5PC90aXRsZT4mI3hhOwkJCSYjeGE7CQkJCTxyYWRpYWxHcmFkaWVudCBpZD0icGF0aDgzNTgyXzFfIiBjeD0iMjEuNzc2MyIgY3k9IjI2Ljk4ODgiIHI9IjE0LjYyNTQiIGdyYWRpZW50VHJhbnNmb3JtPSJtYXRyaXgoMC45NzU0IDAgMCAtMS4wMjUzIC02Ljk3NDYgNjIuMTc1NykiIGdyYWRpZW50VW5pdHM9InVzZXJTcGFjZU9uVXNlIj4mI3hhOwkJCQk8c3RvcCBvZmZzZXQ9IjAiIHN0eWxlPSJzdG9wLWNvbG9yOiM0OUJERUEiLz4mI3hhOwkJCQk8c3RvcCBvZmZzZXQ9IjAuMzYiIHN0eWxlPSJzdG9wLWNvbG9yOiMyRUE0REUiLz4mI3hhOwkJCQk8c3RvcCBvZmZzZXQ9IjAuNzUiIHN0eWxlPSJzdG9wLWNvbG9yOiMxNzhFRDMiLz4mI3hhOwkJCQk8c3RvcCBvZmZzZXQ9IjEiIHN0eWxlPSJzdG9wLWNvbG9yOiMwRTg2Q0YiLz4mI3hhOwkJCTwvcmFkaWFsR3JhZGllbnQ+JiN4YTsJCQk8cGF0aCBpZD0icGF0aDgzNTgyIiBpbmtzY2FwZTpjb25uZWN0b3ItY3VydmF0dXJlPSIwIiBzdHlsZT0iZmlsbDp1cmwoI3BhdGg4MzU4Ml8xXyk7IiBkPSJNMTYuNDcsMTkuNTFoMTIuMDZMMi45Nyw0OS41ICAgICBMMCwzNy41MkwxNi40NywxOS41MXoiLz4mI3hhOwkJPC9nPiYjeGE7CQk8ZyBpZD0ic2hhcGU1MDc5LTE0IiB0cmFuc2Zvcm09InRyYW5zbGF0ZSgyNC4wMykiPiYjeGE7CQkJPHRpdGxlIGlkPSJ0aXRsZTgzNTg1Ij5wb2x5Z29uMTUwMjE8L3RpdGxlPiYjeGE7CQkJJiN4YTsJCQkJPHJhZGlhbEdyYWRpZW50IGlkPSJwYXRoODM1ODdfMV8iIGN4PSIyNi4xMTIiIGN5PSI2My45NTc4IiByPSIxMS45MDE4IiBncmFkaWVudFRyYW5zZm9ybT0ibWF0cml4KDAuODgxIDAgMCAtMS4xMzUxIC0xMi41MTg2IDEwOC41OTAxKSIgZ3JhZGllbnRVbml0cz0idXNlclNwYWNlT25Vc2UiPiYjeGE7CQkJCTxzdG9wIG9mZnNldD0iMCIgc3R5bGU9InN0b3AtY29sb3I6IzBFOTBDRiIvPiYjeGE7CQkJCTxzdG9wIG9mZnNldD0iMSIgc3R5bGU9InN0b3AtY29sb3I6IzAwNkRBQSIvPiYjeGE7CQkJPC9yYWRpYWxHcmFkaWVudD4mI3hhOwkJCTxwYXRoIGlkPSJwYXRoODM1ODciIGlua3NjYXBlOmNvbm5lY3Rvci1jdXJ2YXR1cmU9IjAiIHN0eWxlPSJmaWxsOnVybCgjcGF0aDgzNTg3XzFfKTsiIGQ9Ik03LjQ3LDIyLjQ4bDEzLjUsMTUuMDRMMTgsNDkuNSAgICAgTDAsMzEuNDhMNy40NywyMi40OHoiLz4mI3hhOwkJPC9nPiYjeGE7CTwvZz4mI3hhOzwvZz4mI3hhOzwvc3ZnPg==;" vertex="1" parent="1">
          <mxGeometry x="1322" y="851" width="65" height="69.33" as="geometry" />
        </mxCell>
        <mxCell id="peVuCgtXguEHT-1qdN5K-11" value="" style="shape=image;verticalLabelPosition=bottom;labelBackgroundColor=default;verticalAlign=top;aspect=fixed;imageAspect=0;image=https://www.comset.co.uk/wp-content/uploads/2024/01/one-lake-logo2.png;" vertex="1" parent="1">
          <mxGeometry x="607" y="950" width="78.1" height="80" as="geometry" />
        </mxCell>
        <mxCell id="peVuCgtXguEHT-1qdN5K-25" value="" style="shape=image;verticalLabelPosition=bottom;labelBackgroundColor=default;verticalAlign=top;aspect=fixed;imageAspect=0;image=https://debruyn.dev/2023/all-microsoft-fabric-icons-for-diagramming-old-version/Lakehouse.png;" vertex="1" parent="1">
          <mxGeometry x="769" y="675.86" width="100.5" height="103.64" as="geometry" />
        </mxCell>
        <mxCell id="peVuCgtXguEHT-1qdN5K-29" value="" style="shape=image;verticalLabelPosition=bottom;labelBackgroundColor=default;verticalAlign=top;aspect=fixed;imageAspect=0;image=https://debruyn.dev/2023/all-microsoft-fabric-icons-for-diagramming-old-version/Lakehouse.png;" vertex="1" parent="1">
          <mxGeometry x="922" y="675.86" width="100.5" height="103.64" as="geometry" />
        </mxCell>
        <mxCell id="peVuCgtXguEHT-1qdN5K-47" style="edgeStyle=orthogonalEdgeStyle;rounded=0;orthogonalLoop=1;jettySize=auto;html=1;exitX=0;exitY=0.5;exitDx=0;exitDy=0;entryX=0;entryY=0.5;entryDx=0;entryDy=0;strokeColor=#000000;" edge="1" parent="1" source="peVuCgtXguEHT-1qdN5K-31" target="peVuCgtXguEHT-1qdN5K-12">
          <mxGeometry relative="1" as="geometry" />
        </mxCell>
        <mxCell id="peVuCgtXguEHT-1qdN5K-31" value="" style="shape=image;verticalLabelPosition=bottom;labelBackgroundColor=default;verticalAlign=top;aspect=fixed;imageAspect=0;image=https://debruyn.dev/2023/all-microsoft-fabric-icons-for-diagramming-old-version/Lakehouse.png;" vertex="1" parent="1">
          <mxGeometry x="582" y="675.86" width="100.5" height="103.64" as="geometry" />
        </mxCell>
        <mxCell id="peVuCgtXguEHT-1qdN5K-35" value="" style="group" vertex="1" connectable="0" parent="1">
          <mxGeometry x="698" y="386" width="196.23000000000002" height="70" as="geometry" />
        </mxCell>
        <mxCell id="peVuCgtXguEHT-1qdN5K-12" value="" style="shape=image;verticalLabelPosition=bottom;labelBackgroundColor=default;verticalAlign=top;aspect=fixed;imageAspect=0;image=https://debruyn.dev/2023/all-microsoft-fabric-icons-for-diagramming-old-version/Notebook.png;" vertex="1" parent="peVuCgtXguEHT-1qdN5K-35">
          <mxGeometry width="67.88" height="70" as="geometry" />
        </mxCell>
        <mxCell id="peVuCgtXguEHT-1qdN5K-15" value="" style="shape=image;verticalLabelPosition=bottom;labelBackgroundColor=default;verticalAlign=top;aspect=fixed;imageAspect=0;image=https://miro.medium.com/v2/resize:fit:1050/0*VPHhPNdpK-s8PF7J.png;" vertex="1" parent="peVuCgtXguEHT-1qdN5K-35">
          <mxGeometry x="32" width="130.29" height="68" as="geometry" />
        </mxCell>
        <mxCell id="peVuCgtXguEHT-1qdN5K-17" value="" style="shape=image;verticalLabelPosition=bottom;labelBackgroundColor=default;verticalAlign=top;aspect=fixed;imageAspect=0;image=https://debruyn.dev/2023/all-microsoft-fabric-icons-for-diagramming-old-version/Dataflow.png;" vertex="1" parent="peVuCgtXguEHT-1qdN5K-35">
          <mxGeometry x="140" y="5" width="56.23" height="58" as="geometry" />
        </mxCell>
        <mxCell id="peVuCgtXguEHT-1qdN5K-71" value="" style="endArrow=classic;html=1;rounded=0;strokeColor=#000000;" edge="1" parent="1">
          <mxGeometry width="50" height="50" relative="1" as="geometry">
            <mxPoint x="1024" y="753" as="sourcePoint" />
            <mxPoint x="1337" y="875" as="targetPoint" />
          </mxGeometry>
        </mxCell>
        <mxCell id="peVuCgtXguEHT-1qdN5K-72" value="" style="endArrow=classic;html=1;rounded=0;entryX=0;entryY=0.75;entryDx=0;entryDy=0;exitX=1;exitY=0.75;exitDx=0;exitDy=0;strokeColor=#000000;" edge="1" parent="1" source="peVuCgtXguEHT-1qdN5K-29" target="peVuCgtXguEHT-1qdN5K-23">
          <mxGeometry width="50" height="50" relative="1" as="geometry">
            <mxPoint x="1030" y="748" as="sourcePoint" />
            <mxPoint x="1278" y="748" as="targetPoint" />
          </mxGeometry>
        </mxCell>
        <mxCell id="peVuCgtXguEHT-1qdN5K-73" value="" style="endArrow=classic;html=1;rounded=0;entryX=0;entryY=0.75;entryDx=0;entryDy=0;exitX=1;exitY=0.75;exitDx=0;exitDy=0;strokeColor=#000000;" edge="1" parent="1" source="peVuCgtXguEHT-1qdN5K-29" target="peVuCgtXguEHT-1qdN5K-22">
          <mxGeometry width="50" height="50" relative="1" as="geometry">
            <mxPoint x="1049" y="744" as="sourcePoint" />
            <mxPoint x="1321" y="631" as="targetPoint" />
          </mxGeometry>
        </mxCell>
        <mxCell id="peVuCgtXguEHT-1qdN5K-77" value="&lt;font style=&quot;font-size: 36px;&quot;&gt;Onelake&lt;/font&gt;" style="text;html=1;align=center;verticalAlign=middle;whiteSpace=wrap;rounded=0;" vertex="1" parent="1">
          <mxGeometry x="739" y="976" width="60" height="30" as="geometry" />
        </mxCell>
        <mxCell id="peVuCgtXguEHT-1qdN5K-81" style="edgeStyle=orthogonalEdgeStyle;rounded=0;orthogonalLoop=1;jettySize=auto;html=1;entryX=0.5;entryY=0;entryDx=0;entryDy=0;strokeColor=#000000;" edge="1" parent="1" source="peVuCgtXguEHT-1qdN5K-17" target="peVuCgtXguEHT-1qdN5K-29">
          <mxGeometry relative="1" as="geometry" />
        </mxCell>
        <mxCell id="peVuCgtXguEHT-1qdN5K-82" value="&lt;font style=&quot;font-size: 24px;&quot;&gt;Bronze&lt;/font&gt;" style="text;html=1;align=center;verticalAlign=middle;whiteSpace=wrap;rounded=0;" vertex="1" parent="1">
          <mxGeometry x="594" y="637" width="60" height="30" as="geometry" />
        </mxCell>
        <mxCell id="peVuCgtXguEHT-1qdN5K-84" value="" style="endArrow=classic;startArrow=classic;html=1;rounded=0;strokeColor=#000000;" edge="1" parent="1">
          <mxGeometry width="50" height="50" relative="1" as="geometry">
            <mxPoint x="813" y="680" as="sourcePoint" />
            <mxPoint x="813" y="427" as="targetPoint" />
          </mxGeometry>
        </mxCell>
        <mxCell id="peVuCgtXguEHT-1qdN5K-86" value="&lt;font style=&quot;font-size: 24px;&quot;&gt;Silver&lt;/font&gt;" style="text;html=1;align=center;verticalAlign=middle;whiteSpace=wrap;rounded=0;" vertex="1" parent="1">
          <mxGeometry x="738" y="637" width="60" height="30" as="geometry" />
        </mxCell>
        <mxCell id="peVuCgtXguEHT-1qdN5K-87" value="&lt;font style=&quot;font-size: 24px;&quot;&gt;Gold&lt;/font&gt;" style="text;html=1;align=center;verticalAlign=middle;whiteSpace=wrap;rounded=0;" vertex="1" parent="1">
          <mxGeometry x="894" y="637" width="60" height="30" as="geometry" />
        </mxCell>
        <mxCell id="peVuCgtXguEHT-1qdN5K-94" value="&lt;font style=&quot;font-size: 48px;&quot;&gt;&lt;b&gt;Proposed Petanns College Data Management EAD&lt;/b&gt;&lt;/font&gt;" style="text;html=1;align=center;verticalAlign=middle;whiteSpace=wrap;rounded=0;" vertex="1" parent="1">
          <mxGeometry x="106" y="157" width="1389" height="103" as="geometry" />
        </mxCell>
        <mxCell id="peVuCgtXguEHT-1qdN5K-95" value="&lt;span style=&quot;font-size: 24px;&quot;&gt;SQL End points&lt;/span&gt;" style="text;html=1;align=center;verticalAlign=middle;whiteSpace=wrap;rounded=0;" vertex="1" parent="1">
          <mxGeometry x="1285" y="621" width="197.7" height="30" as="geometry" />
        </mxCell>
        <mxCell id="peVuCgtXguEHT-1qdN5K-96" value="&lt;span style=&quot;font-size: 24px;&quot;&gt;PowerBI&lt;/span&gt;" style="text;html=1;align=center;verticalAlign=middle;whiteSpace=wrap;rounded=0;" vertex="1" parent="1">
          <mxGeometry x="1277" y="780" width="197.7" height="30" as="geometry" />
        </mxCell>
        <mxCell id="peVuCgtXguEHT-1qdN5K-97" value="" style="shape=image;verticalLabelPosition=bottom;labelBackgroundColor=default;verticalAlign=top;aspect=fixed;imageAspect=0;image=https://debruyn.dev/2023/all-microsoft-fabric-icons-for-diagramming-old-version/Links.png;" vertex="1" parent="1">
          <mxGeometry x="385" y="451" width="77.58" height="80" as="geometry" />
        </mxCell>
        <mxCell id="peVuCgtXguEHT-1qdN5K-101" value="&lt;font style=&quot;font-size: 24px;&quot;&gt;Event Streams&lt;/font&gt;" style="text;html=1;align=center;verticalAlign=middle;whiteSpace=wrap;rounded=0;" vertex="1" parent="1">
          <mxGeometry x="376" y="927" width="98" height="30" as="geometry" />
        </mxCell>
        <mxCell id="peVuCgtXguEHT-1qdN5K-120" value="" style="shape=image;verticalLabelPosition=bottom;labelBackgroundColor=default;verticalAlign=top;aspect=fixed;imageAspect=0;image=data:image/png,iVBORw0KGgoAAAANSUhEUgAAAVwAAAFcCAYAAACEFgYsAAAAAXNSR0IArs4c6QAAIABJREFUeF7svQmYZUWVLbwiznyHnGtikFFUEFFpQaCqBFSwse1uu5/259Ctts9SRhm0fSJFFSBq+2u3LRQIju1T368+tRVlcECgqsCxHRBklLnmnO50xoh43444NzMpEKjKmzdvFud8X0paee85cfaJs2LH3muvzVAchQUKCxQWKCzQFQuwrlyluEhhgcIChQUKC6AA3GISFBYoLFBYoEsWKAC3S4YuLlNYoLBAYYECcIs5UFigsEBhgS5ZoADcLhm6uExhgcIChQUKwC3mQGGBwgKFBbpkgQJwu2To4jKFBQoLFBYoALeYA4UFCgsUFuiSBQrA7ZKhi8sUFigsUFigANxiDhQWKCxQWKBLFigAt0uGLi5TWKCwQGGBAnCLOVBYoLBAYYEuWaAA3C4ZurhMYYHCAoUFCsAt5kBhgcIChQW6ZIECcLtk6OIyhQUKCxQWKAC3mAOFBQoLFBbokgUKwO2SoYvLFBYoLFBYoADcYg4UFigsUFigSxYoALdLhi4uU1igsEBhgQJwizlQWKCwQGGBLlmgANwuGbq4TGGBwgKFBQrALeZAYYHCAoUFumSBAnC7ZOjiMoUFCgsUFigAt5gDhQUKCxQW6JIFCsDtkqGLyxQWKCxQWKAA3GIOFBYoLFBYoEsWKAC3S4YuLlNYoLBAYYECcIs5UFigsEBhgS5ZoADcLhm6uExhgcIChQUKwC3mQGGBwgKFBbpkgQJwu2To4jKFBQoLFBYoALeYA4UFCgsUFuiSBQrA7ZKhi8sUFigsUFigANxiDhQWKCxQWKBLFigAt0uGLi5TWKCwQGGBAnCLOVBYoLBAYYEuWaAA3C4ZurhMYYHCAoUFCsAt5kBhgcIChQW6ZIECcLtk6OIyhQUKCxQWKAC3mAOFBQoLFBbokgUKwO2SoYvLFBYoLFBYoADcYg4UFigsUFigSxYoALdLhi4u0/sWOPQNa91gcJmq7nWI2nbHdr643OTxYJk1rX6etSYf966Iiqf/vwjrrGKV+W8/9fqJ3r/DYoTzbYECcOf7CRTX7wkLvOBdn/tAK9j3YxOpC8ltsCyCTDM4Vh8EsyC4hleApVBMQsLT43ZtQCmlf5eCPqHAGANjFmwGCCGgpARXEr7nIolCiDRGX7UMxJNYUmW//O0nXndUTxihGMScW6AA3Dk3cXGBhWCBg87+8S2PRNUVCSsBjgNkIUqlAHFEYMpB/6t4ZgAX9Nr45rZkAiDTn3n8D/2RwXI9iDAEshRutYwsSaFEpkHZVi2UeROL5bYT777iH366EOxUjHF2FigAd3b2K769B1hg+alfHbyfPWdsh7MMqbQBxwJYCDRrgEWeLIGpBBj9pAAsQAX635mSYAS43CJ4hWKAZIzcXvMTx2DlMiybI2vU9XmYzeH7PsJWA+AS+wfNix78+CvW7gGmLG7haSxQAG4xRZ71Fjj2/T++9Pbx4Py6PwLwAHAYkBIYKkBIbR9GLi4BLoUVCFgppKAIcAUYJJRi2gsGp1eKfnLAtW0gSwCbQJr+TYBzQIYheBBAKqCc7kDzyuOLd/FZMBOLh/wseMjFLT61BfZ7/69+tq0mjhZuGYkw8Vi4FiClBtXpw4CvObgBXPJ884O8W320v5PjrgHqmcc0iHOmEIhx7GNtPfmuy97ww+JZ7dkWKAB3z36+xd09jQVeeO5Pjr1j0tvYNzCIRisCGNdxVzALSZIC3M7P8HjQpFCCxlY2E5B3zdx0Di5TuLKJZZXk53/6xIkv37UzFJ9eaBYoAHehPbFivB21wL6n33DBuLPsklarBW678PwAzRYluSTgBxp4zTEHgIsMgW8hnhzDoGthKBlddM/Vr9vR0RssTtZTFigAt6ceRzGYblrg6DM/3fcncdhk3V6EqNWC4wfIdKzWgu16kFJCtEMMcwC4mt0gI+KOYdApY0BsuuSBK15zYTdtUFyruxYoALe79i6u1kMWePG5P1h7X7O8JnGHNE1LcQtJvQlWrmjuLOIU8HP61xTgzkiizTKkoL1mlaBUKkO1UlTibdj+2ROLd7KH5kinh1I83E5btDjfgrHAoef/4hcP19nLGhkxCTLA9cFtB7ZtI2mGcKtVJFG0U0ihk4BLkYoUYAyWsMCbm3HE0vikX338tT9aMEYsBrpLFigAd5fMVXx4T7HAig9eu+hXY8G2UHhwq8Paw40pSUaere1q/qwugCBO7RzFcPVpHdfQxVoxFlUsVLD9tgc+ufLYPcXOxX083gIF4BYz4llpgeecft3G7XzxsTFzIYUpVGC2DU0+4ByWbUMQ6BJpdi4Bl2LGjguWZHBkDEs0EF59XPFe7qGzsniwe+iDLW7rz1vgef/8+epj/Dm1qLQEmebMtqlfT2W1zrMU9NVIjKEZwfJKAIEuE1jGHj3pgXUnF2GFPXASF4C7Bz7U4pae2gJHnH/ryQ80vevrytcVYqZ09+mOOQLcLAa8AI7tI51owCtXsEg+cuujl6047ulGVPx94VmgANyF98yKEc/GAmvX8v3j19+2pcmOihJl4rTzfHDbhgxbgOPDkjb6021Ymt2+4s4vvHvDPA+tuHyHLVAAbocNWpyuty3w4rN/OvCHVmlcuRUIybQOzbweaQo7IP5vbERxWgoVHmGptflD9637q4/M69iKi3fcAgXgdtykxQl72QIDq65bU/f2WSvh6iSZTImWNTNc0P79mYQZZn+nNnOguISQTZCSjc37IJt1DHox+rNHBv509RsnZ3+V4gy9YoECcHvlSRTj6IoFlp53q9ouhiHqMXi1Ckkx1HkEXGiGRAJ4ChRaULEDm3GIsIZ9rR2vfOgzJ9/YFcMUF+mKBQrA7YqZi4v0ggX+4oz//y/vFkuvrduLAatkuLYWyYmTgPhTH08UqXlyutjTnWfnv9ucIUtCE9ogoZyMtBsl+gYH0dd8eP2jnz5u5a6es/h871qgANzefTbFyDpsgRecd+PPHoz8oyOrH0pwMMeBEokWEX+6Y64AVyuG2ZbWbVCkoUugS8UXQqAsJ/B8cefAr69+dxFWeLoHtED+XgDuAnlQxTBnZ4HD3vmNoXud/UYz5gEWh+9aaEUhGPdnJbE4u1G1tXOZETvX2gq5t80BP2tgPz66+u7LXvfhWV+nOEFPWKAA3J54DMUg5toC+//Lz9c8lAyvDWwHrfo4wBJYrg0p3fkDXF10kb+CBLjtdj3UQYIDjoiwjx/d9sAnji9Kfed6gnTp/AXgdsnQxWXm1wLVU29S9XRAc12dso80DgGbAxm1zJmnQ7foYVDUv0f3S5NgkuuuwOApbBmjL21iH2ds5e8ve8P6eRplcdkOWqAA3A4aszhVb1rgqAt/9NrfbvO/L0p7Q1APSIrZkkdJvcYsylY9fQx3ru6MAJaAVoMsHcrOwTcBVykqWYplVu3Cuy9/zSVzNYbivN2zQAG43bN1caV5ssBe7/3xbTU28vJGZIMFVShqpVMOABGZBNV8Aq5uoWa8W6X7pBHgUqQhA1MZSqRtU38MB7mPFsmzeZo/nbxsAbidtGZxrp6zwGHnfGPonmjJKHMGkCgHELYRFY+buSc5v6+AbrNO4Vui4071RzOUM/qbSkMM2DGWYseH7lr313t85dmRq65yfn31u2kfskce8zvb9kiTFjfVSxZYvOo7q1t9B18cRRmySMAdWopksgbGYniujVhSDLU7VWVPZpcpSpqyNeiCE0uBA8Iz7ddZBB8hlvJk/YOfXr5Hc3IPeudXjqsse86/yclH/+X2y958cy/No06NpQDcTlmyOE9PWmDJWTeqrWEJfrkMCQtJK4MVlODJFqRIkXAHkj0Teca5uj3ycCmU4EwlywhwWRaYkK4bwpIR/GYL+/c1hu/499eMzdVI5uu8h73zc0Ny4KDv74isY+qKwReT2N/ZfsJvL3/HTfM1prm6bgG4c2XZHj7vS0/74tqtsrrGL5dOuf+Tp1zXw0Od1dBeetbXXnNPtvd1TasfFnVVUAwZ90H1BR41b4RCyhzIKZHxWV1uN7+sFc814GqmAk9BnLApwGVN2J4CaiH29ybW3LfupIt380I997UDV32j3y6PnDsWqwvryoKyaZGxgCxFiQss9scX3fPJPauLcQG4PTcN53ZALzvnW5fcO8YusEb2Rr3ZQh9LsXcJa373yT3nRW5b8PAPbvjFPTXnZTEPYCsKC3LowgdwcCnBISEY0bDm1ubP6OzKypNlOosGlhnZSKWa4C5Hmdmwx+/B+H/+dS+M9hnd0p/70P5v/+KAPXTIe8elv7YlgFAnLhlgW2DSgtKtky0MoYa9oz8cf/sXV+0x4YUF//Bm9eSfZV8+8gM/uuT+SfeC2KkgpTBhksIh4MkiuA7Q76mNIzJ+/W8uO2X7QjfNUR/89vDvtlZ3pKUlOmRgq1DfkgFcArN2GIGAeP5oYVPi57o9O40w14tUYiqZRvQ1mwss8yL0Td554h1feOdPF+rzef77Nq7dVMcayUpoEAc68AAdQzcgSy3qibZnZSE8GcOTKZY420fuWvd3owv1nmeOuwDcPeEpPoN7OOL9P7rkjlF1AevfC2nGwLnSrcAt7iDLiJZkgakYgWxgiZdsqCabL/39FW++/hmcuic/st8Z1168le+zOlKuHh8HAa6EZAS2BLqeecdBOrTzW/yQu7R554m2IDqNiyDIhRACNovBw6140RL3tl999IQFVXm2/NSvDo6Xlpz9cA0XhqwKwX1USlW0khSC1hdCIUPTMHOJSbgi1FRpAuYgHcey5P7j7/riwk+kFYDbk3DR2UEdce6PL76r5qyOK8N5jCwDVwyMORDkUdBPloEzAYgGfIdq+mPYIsagJS986PKTFhzpvvT2H6ik/2DQWmKOtgwjeVMEwgS4NP17AHB10UNmPD1FiwGBTqw9PZeXkMQhXJ+Biyac5g7Uv/DaBfHeHr/2p/7D49a/jCXWRU1Btco+bNtBmmUQYFBKgXMOxR0o2nFQQQp59pCw879Ty3oRN1GyMzyvWh/5xUdftaA93QXx4DoLP8+usz3vPd+5eHM6uDouL0LMXUBmYK4HK86Q0ZbOck2bmTiEY3MIEUPKBKDMvWvahfNoBw5dZK/Nttx++V1fPqPnJ/wLz/nOSY+ke90wmZbzVucEYLnQuNYvIGCjrSv9LnbSw+3u/CAO7nThA/3eBlwT6uAJhyRBG5tuhcNOEyxm21750OWn9LRO7hHn3XjRmBr6q62x89IkUeAUOoCCFC1wi0GmCdygAtGKwSwbmZXft461U9EHdVAmihyBMC1INkpqDIdZj73il+veckt3n1LnrlYAbuds2XNnet4Z37p4VFRXJ94gGgmHggtFQCMkQKBrMYgsBv1Fkgh2lqHcP4g4yZAlAjwoQUYhrMCGCmsIRB3LvPRW1tiy5t4vvO3HPXfDAA4757uvibwlazY1+MszlCEUgyTPkVPYJAc3JWELqf9vxoj/Oj88XC2hkAMudX0w6bK80kw3tqRxZvAcF82UypAd3c59MR/buO0/li/vRfsfcdbXT9ielG5sWcOoSw/SCqC4DW5xyCSBrq12LdgEss0WHJt2G1zLACsrL2umBaa9EGUK5b4+NBsNBJaE1dqCfdzmgo3pFoDbi7O2A2M6/JwfXfJwy7mgZblQjqczv0zRRC8hSSWUF0ClMSAjBL6NKA5hey7SMAVzPDDuQmaZaeNN/yUvWGQIRIggq2PYCzd48faL/3DVP/ZEO++XvPf/XBKVhk/aUreOakkfsCpIyKm1iN9KzqzRLNCHzOAJE7edT1qYAVwzppkhTJNEMoDLRAoLDILug7L3Cqi4IZ6TPrx+MNu0ZuPVp/dEAm3l2V8+cbvs/8gYqkePJR4kL0GQ15rT8Yz2sND/n9lc/0737sDWMWoFoQFXbzq0TRRgMViWAzHZACv5OtRAHTr6UMfebNMr/rgAPd0CcDsAbr12isPPvubiBxsDqyN/CGmuRMWVgKXnMcXLHGTM1R4fJcqobn/msXOJ6fTfJLjKYCkBWyXgEPAswMnqq7deefK8aLYecNq1F9d5dXUChkTZyJSdx6UdMGbpOOETaV9SO7wG6OaXFmY83Ol80c5zaRqQ2yBMujuJTm7a+bMrsej8QfXwZXdecXqj23PxsLOvPXEC5Y9Gwj4qlhyRcpDRYkHJSVo42FNDTPv+n9wGhqPM8nMoJXTfN4cLlFmEpWLTgvN0C8Dt9gyd4+sdcfZ3Ln5gwlmtBg5EXaeAKX5J3gTFxQgwKTnhQCAvJW3HNnd3XKkAszIM2BGc1pb1e7vRRb9Z96af7O7pnsn3XvKu/3xVwode0bD7LtjB+xGSiDgBq/amyG0005peVP1ve/JB2/C0gSErRF+64/wSe7QrwPuy07/yyrC07CMPRn1HtXj18fY3xu+Y1acBN3++BMOWhQE5gb1bd73i9s+/fcHEdDtnlY6ZtzjR7lrgyDP/66JHmu6FamAZmpI6GkSAS3pTFCCjnxx/CZO0VzW9nd2da5K32+cDrWYNUnFUK2XUx3dgn+HqeifefsG9/3HK+naUcnfOv/N3DjjzhyelTt8ljZQf5bgWRmtNwOuDJG99p+NxL2knLt6r50gzMM7Iv4fHM7iihRFf3sxbWy6896rOJ5cOOu27J8hg8ccmGs2jIjiIeRWSkrEEsB0E2Sd7nlMLar6o+ojRL0Yx2Nw0cteX39bzyVy9DvXqPCrGtWsWOO59115819ZstezbC+OJBBwLXrmEOKa4GZH824+aYped2VJT80UVTcBxbCinDGb5SEMKT2QoWRJVFd661IuuZ2MPXfbbL71jYtfuaPrTh6z65ppxa/HaSVZGwig+awMiBnNtqDQvjZ3Dl313x92N7xFtyrIsxOPj4JWSDvm4KoYrmhhwklv6VX1tunnLL+/85uzCDcec/s1XTjp7feTR0D2qAReebyHKUkPnykMH7UWO7rtjO4scXKd2KzN2LEwl8FiKQUxgUfTYyt9/7h09L9JeAG433oo5vsbhZ/7fi7Y0ggtb9iBCuwL4ZUii1FBWWGeBtdZfzvU0GWAmCYRnH79kBLZpCs4tyDgC+VqlUgnNZhMl10EatdDvS/TzxuqBcPSyX1/9xmfUEHH5qd8ffFg5751EeU3qlhCnAtzzdImC1JqxVCDATNa77brvbOcZ4YU5fgTzdPo8rkut3h0bgcORtJoQcYxqpQ+ZSCFFjIotUOHhBaz28LoHd3Hhe94ZN5wohp770fseGz0KtgePmIVpikwp2I6Xl0YblkfHQHamNWcA7hOvkVG5JBwZY1Cl2N8eG/lFj1ekFYA7T69Kpy575HnXXvSnCXahDEaQWAFC6QAkAkItwEn3lehEoHQ9cWuNd6tDDJIyyDMy97s1IApTMMPXrdfglgIwJZAKAam1AUwMmbLLiMawuJRhiE3eOswbH9rwqTc9qRLUy9715VeI/gM+cl/NPjZ0BpByD4gjWBUHImqYylfbATLdV9wsJE/WdbftCe3Rni83VLEkguO7SFt1ONyG5biItHSEQ8FO05gyGsOQE2ORNbZhEBMX/eyyp6b1HXvGF07czpZ97KFsycsSUQb6h4CoAaZCBLZCKwzh+AEyQUlJmgc7xcrnwO4zPWgNvkzCosKIsAXPslBNx7Cv9eArfrOud2O6BeDuFtD0xpcOfe/3L3qoXr5QBIOQTIIy9Zo4T9tu/d92JVUIBvoh75bn5a30GeJL5d1id/eWlAWLMv36PEoT2snbghSwSiWIOIFlKQ0KXIbw6OWPG9h70dBtgRo//7ef+EsNvC97/7dfMWkN/+tjNefopvDgloeQRAI20YlkBtFqwK6WkSVNQMaoDg+gPlEDI55nT6jP7K4Bd/97eq1JUgSVim6zHrcopu2aRZAEYfyS2eU4JNaTwkqaKLEELJrESNm91ZfNtX9Y9zePo/UdueprI43y0Pd2ZOVjapkN7hpZy5QKFDw/X9sEHM9CSos6tXXXFLYZxxyA7eNPb2BLz7lUggcuZNqET/VrrRr2CyZ6lr1QAO7uz/d5/eYLzr3m4kdbfatjZxEScvtUZHimVhlamcYq5d5fC0CoGxJqQWuqzYejyyk1PsvdB1wdpZAMnFkQSQwe+FCcmQoheul0pVAezqBiA8uCzAS44kT2gSvrGMBWMJVikvWhwfoheRVwK0BMHrnhzHJGGO4iTiK4voUkrutqJcIVBtd40zsdz4akGdnfJgYr7Si4BW45kARCFikTtdkaOadVUixfgjMFz+IQiYl/Bsko9lk68DrEcTYZpmvGM+flsV1GM2Ow/BJk3ITDuNbcSCSHtDwoOn/SgOU6EGIaQubC5k+I3c4Ec5KxtG0oCmX5DKrZglsZgR9vxzJ174l3X/GWnuAoP26xmFfUKC6+WxY4/NxrLr635q5Oy0shqPZeI0/elUTrqpLHQZ4HAV8IJgVsUgVTFiRcZMRP1aIhpA4yC6Wsqa6z+W3ody/vQPtkd6adYNMaXNODIWBpLQPqbMAhiMalwwR5by+jY6IXCpJSbKt6aUlF7VRNMy92y5B7wpfaxRzay8xDPPoxzPQ62894ujuwufUMjoz0N2kR1hV5dBbiWpO3qOssyPq0SHtQsEz4QF9z9xfqjppdcVg2g9CxfFpoDA3Slw28bCBdvP6jK3tK+a7wcDv69Of+ZIee9s21W9Xwmpo9gJRiteTJ6Bctj80awlf+UhD3lsRAAEtzcm0NcVpwWyPZn4l/7spt6Dhwfk39vRwYp2ZW+8XP/9ve/rflCDW40vdSHfKY6u+lgbcNHLRY0I8ZmNDluG0Zw6cA+F25j4X62Zm4aqI6ZjHTgDu9mE5Vsunnktt2SqeAQCrf8VBxgYrhyAQUCRIEtowWaqMjPAW27ef7ZPHzbtpSUljMUOMsx0ZGyWCKawuJavQgjnDuOmHD5af2TOeIAnC7OTlmea2XnPdfFz7cqlw0GrvwBkcQR4lxBrWPQmwEXToG6GhuCktOt28RzNXeisa7qafeAS9lysOaftmnb5NUGnJEmLpmDgJTbcFzryr3tNswMdWFwbi4uYgJve88b0ljAFcxBdIheHYeZregj6nFM9M+qd4rzABD8l61h6p3PpTQNOpcnHQ1mIDUOci2HSVA7ds1k2UGRFDSdep55B71bHZIs31o7ZBCEuqKScfzkSgfiATguBi0xzGS/g73rntHz+Bczwxktrbf07//wrO/ufb+CXsN69/HcFGpjDXLtM9Ki7yEn5PPiZGQ6vJPKuXlJCDSDiNoEZdc+5W+ZCBrdmpZ+gWkF9Rs/XX5sD5MWIBedHOpfDHQQDsdHiAANXgxTVEzTnAbaHd6svSSSa69LzoEib48q2dx28U1NtW7hCcF2zxc0+bNEujq+UFPSkDwrB3tmW750w5L6M7CAooaXLZFgDRg549y3or5OJAJeNUSRGMcWRID5RETTkklnHgTDqo8eNFdn37b2l7Bh2f1VO2Vh/B04zjmDf8WPLr4ua3tqg/cH0ArotisD4vZOvtMgEOqV6YnFtHAhGkho2wwSdxVCiPo4JyJ62o8c/Lt+ywBd0psJIMtFay87bfm+FJ2m7mQugppxjaWPKXc+9KA2wZb7bDlYKz/blqIt8F7yltuU83y2O/T2W/P/bsBWB1pzVeddtiFbKYj33pezFjwzMPPdwxGppIwlGK2dGQ6Pt5+XiSNaMJONJ/0N3M2nqbnEbCZy8/fQeNyHThxaiiJDi3cHA58jKjtOCj976ENV542Pn8DfPyVC8DtlSfxNOPY97T/umXcXrKipVwo5kMlSithTXl6emtNQEw/pmGiLm7Q3WBnxt5ywM09xVlvx3WixWiWGmEb2soSeYE8KvK/SQGKplk7Jmu2sAZMpfZWjYBM/vepEIU5p9HeMdtXAtwpb3ZmKGOBPMPOD3PaoyXDkA3b9jSLWG53jbczEl30Oy1oOkZOc4TrpKreZRD0tnNv+jv0rMhrNgA79Zz0QjvP3Yl0coIYEwks5iFwbDTCMTDbgpcB+9hjH73v8led33m77/4ZC8Ddfdt19ZsvO++7K++tOTdP8MWA258nqkjb1kj8Mc1SyHIpQhrajPhb2wPJEyqKwgpaIYxevCfhUT7TO8sZB9Mfz0UacofqCafJ5Qi1iI7e/lI4QIGYRfSiGy3YtgvV/rbxhh+vmkV/a1PB5vutf6bGmpvPTdslf946qJ8vsLqDguEZ6M+x6fCLYYPkMQXtulIJGcXHqdVSe6wS0tpJoJ0ofeQRa1dXGR3b+Yqh6wVDAh4V+lBlJfHMBYYGXIjt9+MvlnojP+mxDhEF4M7NezAnZ33hudevvzdetDy2Bg3gak1X8lAEOEhIPMtLLXPg0i9fvn3MSQnGUREAN3QsCi1ME9d3IrA/1V08jnbUzq1oYuz0+bQnpa84JShtuuXmOrAaAEwMejqh06a1zYxNEujOlJBsSxWawg1dyaav8mfG/zhveOcE2y7c864+1Z1tNOVp7uqJ/vznDXUrZ4pM6ehqBM2fvdGd1dQ6RT3dzC7BfIceVXvHQ/OIClYYuCSetPGIMwrK60Rr/izJGxbkERvoSCwFOV+Aq0eQF3hM1IEggM057OYWHFya/Nkf/uO1x3TO0p05UwG4nbFjV87ysjO/9oo/iufc1HCXAlEMi7QF8sIFW1IMSyKlLRbF7XRJJ71AuRegaVjk0ZgtoqFh0UtkMt0GrNpczna8tZ39npbFa3uWFDMk71S/sEyCOw4keRl6Dcj1GzIJy3EgGk3Y5TKyLNWLhOM5kFrlSsF1OVpxS4+Z2yR6Ti84FW7QokHB6QxOKUBam9TDc3xf6zPQ513bgaDOFJx0cKVRZqQeWTSrKbZnU2KI7pnpFkLwCcypOinWW1Gt/6D3z3n8+0mfYjsUMu31md/abIsZX5pSY2uzM3be0ueLTx5DNZGfDgG+9mqf7AbMONuesB7BzouiWYXNlzW3Oj/PDI945pmnaWemvHZSzWZnAAAgAElEQVR2Scv2daevaca7s72feG/6ulTpRhxcXcjDdHhhUG7HEZUti2765Jt3dOXF3IWLFIC7C8bqhY8+59ybbt6SDa5MYmb4hgSwRFsXJPsskRDO6kQJtWMhInj+AtGLoTPMhEq09SLOqyHD6ok75Y3NBIAZv8/w1qj6R9dMaFV+QliRazeUwaQywt/kKVFpgxBazUqkKRyPyPMCGVUGua75e0I9rQhfXc264Lajy1SNMA1tZ43sH1U1UQcKlaUISiWEjRpsywWj0IJlSoulom7EHILAl86hFx8zxR3HQlqraRU11zedcEUY5vKVu/Nk2yyKGbHpqZY5dL58a9+27xSKtNkEba+83a59d8awJ3xnloBLTJ1SBVlKczpFGSn2siY23PupE1f0onUKwO3Fp/IUYzpk1deWPyZG1qu+5yCULpRMtLi4S80hid5DOMUJek0s1CEPLt9uU7zN7Ofb282ZQEsAkoOw/nvO8dRJFRMfNKWbbVaD8Wxop0/gSX+jnlWO6yFtNMB8H0rrKjiwHEv3TkOa6rp+3a6HfteJcQuO7Zvy1CSBbsVCa4mVC98whoySIuQp00sVx1qjgUCZwFt3ebWpnDjPqFNRRy5ErtvrEGhrjGNwgzKSOIXrBkiixOTxLGJ1mEq3xx85Q4K1mRJ5GxwdG88BVVPdjHWnE4dm6z5TX8AEUcxheNDmnGZr/ywH3PZCvltJUAmSpyQBHVMAFGFIjOKwQaowO6WnKszaz78A3AUGuDTcF7z3BzdvYvusnKxLoFTSAOOQ5gDFcLlJQrXLZ52cdkWxO5PgmOmRtYnz7cSTAd0pZ4xYAZKAlrpq5YUGet8+zaMFFVTQ34mV0GgA1J01S2H7vg4ZaCClLV/cgt3fjyyJtLCNXSohizO43EXSCql9FTyi9IgQDiXS4kiDmG6jTchkO7C8QFcSNVsx7KCkQwWZTHX0RHvFFM+l+8t5vdqzzihs4SOqt8w16y0d8rD9ErIsAaN25CybEVKZnhAzt+FTADkVJ22HC2aUzVJzmamKuPa/G3qWAdv2fxfgpJurIc8KcGlzlRlNh0Sh6sXYB5tu/eO/v/a4uRrubM9bAO5sLTgP3z/mnM8N/W5y39Fs4LlIqNX5VDeHnBI2g8tq68yzSZLocGUbY/OCA1Ng0OYBtV3gPO6rPV0iu+saNQ1oGoDb3FgKClDclbLDBCskCC4EPNdGVJ8Ep5ipMKDpuqZZYNxqwfY8ZK0IdsmH7ViIRrdhydIBOFnzVh6OsuGAhG0iRv3SCENjodAUNlrwkHmDqqXcl49OxuDlqs4JErBSKIOAmeK5BL7a62HMeEBtBTMdmrAgSFUrVzTTPbMel3Bre6MzPd4neU2mmADEgW3TrmgyTAPtVKxUXyDntk65unT+Nu3q2Vop9xQvzxQQ/5nPtG1OvfpIojFOUZWjeD5/4NW/vPKfe7KjtHGDimNBWuCgs3/0oQfDvg8Lt0oRynzbn2ed2/zJnOfaBlyTZGjvbWfctgaEnI41Fas1yTDDO8vAiOdL3i1pMugTWbA4N5lvkaIceEiTEEpGsKm9N8u0+HXZcxHY9n9DpZnrWNc167WsFHgb0yhNm3X+m1Rut8a++tbarjyEfc75RmD3L1LJpgYPSt5LLMa5koxZjn0i546bZPKkMEmOTIQpcg0TAeZ5SEma0rZg+wGiyQmwygBUO87yuCTNTNBtvyIzYo1T7Atai9q7A0qUtUMG+av1uLdrp5DF1PXaGsW7YoFnwWefCeBqMwggCTHQV8IiuWXDvf/Wm7Hb9hMrAHeBzt0jV11TetAKmhGqSFiAjHkmWaY9WPI42yW8M7zXNr1HO2IzAGBK18CECzSNaKbXRpKLFF7QsVGqwye8tUGtKIOsARbVoWSMZYsHbxPxBGQ0ef1wxb75l//f39083+Z94Tv+49i+wWUntGTwmvFIcmlVj63FZB0PMqiixUg3OFdW08It7RisGbkptmhzW3XQNa/sery3YnQqqHSa/j6TMdCu6jIVWybDb4IMmkAyz12D5/v5tNkIU0yHJwBtG6L+TDmblPCtDF5rB/Zim1/9x8++pWe928LDne/ZNsvrv/Cc75+/uRVc2uIDiHnZCIu3k2K57KEWIGkrehkB2zzv1RZ/mdrjTsVmDa/VgANVjRGrSvMyVappVjYnbVugxNNLKnEt83h6k1Div++84o1db9O9OyZ80T9+uayGho9Mmf/xzTE/OqauEvow8RYCWYJEAkOdfJzSeZhepNpAQZV+ZFUjGZlvIfTCple1HKCngZzsaTixOgiDTNPYdk7Y7c5dLczvzBZwaeflZzXsxXesv//y167sdSsUHm6vP6GnGN9x//z56n3WcC0sPQe1yAUvDUASx5TAlhuamCWZpqI6vqc1Q6nPFcVVXcvX/065fqJrRWFkeKs5lUqHEKIQgWsBYQ19boYKizZa0fgPF9vqsg1XvqVn6tNn+whf9L4vl3lDvjjxBv+1xfutsdR6eShsZJbRGtYMjDSD4xhgpiQh0ZC4ZcMSCVybGioSQ4SD2yRlSGpCKWBTqa1Z5KjkWZ9Ln6AN5nkRwrP4LXxiBWF78ZlhlDSFVQogqAs1ZVfz5KihJ0oE0RYcUdl+4sZ/+4eeExzfeW4+ix/1bF/T3vj+C87+7ur7G9WLE28J4PTlxP4GHE8hazXhuwFCYgHkgEsvf0AydiEVBFhQVKXm2BpU0jTWnRRIASFt1bCkvwRE42v7ebr+7sv/+sbeuOO5H8X+b//igD2w+Gy3uuivdjSSI2vNBI5PTRmBMM7glytIBdPJOpVFcLgFqtdIyXu1OKQutVbQhBBdDdimgVFowjHeMMXd9bFT6ezc315PXeFpAVdQ81AXktr5yAwW9enTCVIFGTV0Lcug2IzNV/31gsCyBTHInpohPTiYoTNvUjUsRkb18HbeQtyK4CiJJMrAnQCSAICKB7SHSyBAPc2oKkwCcVPTa6q+A1+0UOXJmnJWu/n2K+c/Bjvf5j781CsGpbvPmXVWffVYhOXSKSMjFTaLI9Z9vspQWjtWAB55xBI2CWE36zoEQz3ZCFTa4QmSyjRi3wS4FHKgHUkeb5/vm52H6/95wDWDYbSo6d5pVLDiIKGdWJrACQIEtIuLdmAvZ8vKOy97U8+3SNf3Mw82Li7ZYQsccOZ3TtqcjNwQeyNQgoEFHlRjhw6++kE/ojAFfA9oNQBHaS9BNIlOw1CxY4QTm3DAXks2xDseWV3i6a8WSiy2w2Z82tMduOpry3l56MQdtfgiZTnw+5dgLLKQWYHulJu1qHLN13Z2+vuALIZIQq1zRuEErQ2sAZcSj7mHWwBuHqZ5MjoeIRTTpdheuYy4UdcUxsBzEMcxeDSGA6vRhns+fUpPVpU92YQqAPdpX7OF8YEXnHPDrVvkwDHjEWXKHQwtGsTY9lHTDt2mH+KBUtVVU09gyw50smE4euT8ZRW57ueX7Ro1a2FYZe5G+eKzvziwfdI6Y7K07yVNRnxgy9iZ/uv5QIO4vkZ03chWGjEYLbWjQwrUJmjuxrdQzvy0Hi6jUnEGJSRUs4HK0ABi0tKAwrDVwL7q4dW/vOwtH14w97tQBlqM86ktcMw5337NHyfd6yJ/CSLqCBHW4Q2MIKWutrQlYynKJQCNTRjyrY22yM5P+eQvH/33N4aFbWdngeee96MLHh1tXMLLw5B2P2hDASsP2ehT54Lwua5sm+BkgPfZzlLINSWmmBqPZ2xYFultpLp6MSj5muHRGh9HeaAKr/aAGvvi3y4oikexxs7uXeupbx983s23bZeDLw/hIQmb4LYNmTH4LuBlE3Dizeufv0hcuOFjb+qZpno9ZcBZDuYlp39p5QRGLh2T5eW8shTjDWIq5M0XdbyW/NuZMpMdVAub5djn6+tP5+GSEhijFvC0JyCt8bilQwrk8e5tbT3/vk//5Ufna+y7c90CcHfHaj36nRe897uv3pT0/bAuPJSDEmQawVYxhrxso5dtu+Cuywug7cajO+w9XzkuDhZ/fEfsHhuysi5M0UUpuj28YS20wwntMukivNB+MtMVfVqgXmY68SgzASlTWFzBVglKKsH4lSsXHH4tuAF344VZyNd4wQdu+PXD26OX9lX6YMvWzcMYW/vby/+xpz3aQ9d+w8UdQLK0wrJ6wLJBj8nmqJ6bos81c3QrsIT+u2Qrfv+Jf2ouhGf0F2d87riav/9H7x+XK+y+fbXwjoiaWgM4yxn/Vt4+KKXuuVQ4QWpqSQK4rlFU0zqv7VbydNdt3YVpzYaFYIunHOMUCrWrIqlXpYClpegk0ca1PWSaaKEau7Udzy2F5//hUwvLuyUbFIC74Gfr429gxRlXnswri/91fHz8vN9f9T9/0gu3d/SZX+nL4vhFqeOv5P4gYjA+Xmud3DeyhO0IbR4JfowQJMtodHwFFKRuGUTyexbSMELJtlHiCkljDBUnhYcmsjREpTJwqxBCOVxcb8lI8ii8OajV/vu2b57bM7Hpl7zvmmO2xuWPj0X2cq8ygslWC06JtCdIGpKI/CSqU9LiPrbrIyOg1Z7wzKNdDNz+tz0EcKcqd2cWPChw4twSxc51EJLYEAnG064tERjmNVRrdwUPfukdJCm3oI4CcBfU4+r9wR5+6lcHpVc5Q3gDr42Vw7ZN1I+iRpKum5fPSqHbWVcrJTRiAaKykednqKh5K3Wd0c/Fc5IIXrlPyyzqPmgiRZo2MNxfRm1yTKuBOaSvyzlqkw2UqhVQoiVsNrBs0cAGX8XXR5OP3TiSjv/q11e/m1B83o4jzvre8nvDvvUtqwpOFXycQZJXS1UTVgA0QsAJjLYD6fc6DJJ0hEkIKO+s8LjOxZ3sGDEfViENj1x7mQnT6knx1Oh5UMibPPtMAa4FS0V6YRKihCX25Ae3fvovPjYfQ57tNQvAna0Fn+XfP+ad3xhqlnGq4MHJ2xvpCqsyhB0NCVIxk5YL7lZ0WazeFocNTU8LHAtxswanXEVMBRiK1M7ardNN/61200MqMKBSWC0+TqVbpOXgu8ioKo6TXCR1gchg+2Uwu4S0FQFUgpsKzYOFlSGwMlStGAN2fIudjN4wUuI3TWx68He//9/v73poYq9VV5W8/hedPdaILq1LDulVDcgS6GYKjh3otj8ijME9R2scM6S6lQ15/CQuP9U9d8HPvWnAtTXgKggryjuQEMuDFlKKfSdgsgGkEQKnD0Nb7ig9+s2Fya4pAHfBT9ru3sBRH/z2cE2OnNWU3kmNZvpy0magMkvKJFNGPqVeZ9zVTSHJnVRJ3lUVDNyyjFA4VbrRD3V10ILh5KoJzVfVAt5EdicpReKtMkuLkTvVPt3LzAp80xonEbDKHlyHI6xNwC31IWm2wIIqqDhZt/kRUnuInkueUoQ4nEBf2UEc1rRGxEDVv0XFzRscOXb5fZe9hVj1f0aSqvM2PnLVN/onKouveST0ViSKvFoKJ9jIYhJvD8B5gCRMtF1p8XHyZJuOaZKYvA6/zIzpdn6MXTkjdQGmTk26q3CCzIqhCGTlACCDvMNIBIgaHDvBoqz2wU1XvHpBerdFDLcrM2rPuMiLTvvq2ro1ctK4Kh0zKTwoartD4CZMnzESgSZnNCEw5ByOZSOVAr5XQpxmWrg87y8D+EQIpqgB9aGKjUeLRFN/TMt3UuhydI8y8u8cz4XiClljUndmJU/Q80pIs1jX01u+q8HVshxkqYRKTCyUEInCDeQbxo0a3IEKMpVBZokpc2414FoMjogw4GY3lWX9h6Xajit/+6V3THTrqR102vePnZD9G4XjYTKkXm8elEX36wKJ0p0uyLkl8RtTPGE672a0oOi1qt2Bo1sj7tx12s0o2wpqiiUQbcBVBLi0U4kBWjAdiSDZgiX1exZk7LZttcLD7dz82ePOdMRZ3z+hlnmXJrxyTCuWiBgD93y0yA8s+VDE8HcrJs5G5HSi7NiWEXQSqdFtyKUNqRMDxXIJRDUC+oHppEtFAVRNxFNIlYLrz9tQyjWgrrsP0/lrQDUwmgV0Pd06iPQhSKdXQJGyTJrBCwKkcaKVvSgJRQBMiRfm2EipvQ+VONPRbAIU7xUpRNiAR+I+UQ0lS6DfSW8pibGL7r78jV0T7Nn/1B/cUnMGVoRWFWGtBX9oCBF1qtAFanknjrZcJpUJ64IJWsMWrvgNAa6tG4bmC4jWA42M564o1ERzhRZlrQqEYYyeP7pu+YLi3e4MCgXg7nEwObsbeuG71h2bestOGEv7P9xCFdwfQr1OiSsfcRaRw0WRRM3xBSk3xRRKoK0faT3Sy08viwkZUEKLYq5a3pBSXlKCW44GQu76pgKOc937jBPgkqShfrnoe9ThN4/hZYnR2pEEQCJvjU0Jtry9ed7d1/M8xLU6LIp9cq67AFNzSdfzkMQRvArV41NPMwfwXIDk/mg7Sw0qdSdhWxcmOKIFVzZREnVUs4kPBV7zytuvPG3O5SgPPvVbL98qqrcJfwihpIWE2sW32x6RrrEJtdBBDZgNn1eZbswL8OCSQiWSuChISZNY6whTIMq0bKJn41sMMk71n/a1t/Tfd9kpu9QdpNfMUgBurz2ReRrPi//XNcc3ktKHt9bZcQkC2F4fQmIt2VTzb7ypqZY71CxRR2jptSCPMe88q8F2pyml47HkkeoGNEa2kES+ySslPQHimWrBXgGORPdEU0kGx+tDSltqZmtcVfQiylR3CFaUGKNkU0bK6OTpUvwvZzjoQVGmm76bU6nyrbhJxhlRdXNw7XXTQUCrWRCaLpEDGJOwaD8fN7BXH7uF1Tavvf/qt8yp5irFdrf7i6/ZlPgrMruqm2LqThtkP1ooTBzBNOq0TLPahVo0YQA3g4CLzCrlz8voOTOV6hAKFTz0WRKDvPahBy476SPz9Hp07LIF4HbMlAvzRIee9ZVXisrSix/Y3DpWecPg7hAS5YDrbb3S2q6m0ST9tNvEkKC2KVHVegC680zbE2t3qcxZ3vqPRriFvq9jtLrjgURG3RRYYMILE1sBj8H1qKqIvBtqBsm1yDcxEiAisDK1Xk/BHA8qJbFvIsOb5pZ6fFqAlr5LoEmuKw1wuoU5TXaLbkNfX/ewgKD71FitffCpGKnU3jMJAXEw6iZc34Eyb2ERb9wygOaa385x1d6+Z15//oSsXtqSPqTlgVk2JIVXiK1Bvn/JR1qfzEuHF+bcI5tTSIGegeSV3MMNtawlUxlsKeBxhVIyikMGdwxt+NjCF70vAHdhztVZj/q57/vxq1JevWSiEb48TDNUqkMIU4EMARJSvKKkDQEXveS0xVNCe4Esr4wiFoLxWMkNNnG4tqc1kyuq/0RAm9fYtNv3kJdpwI7CBkwrFqqIOvQoo4EaCTilfqRRhP6RYUxO7tBMg6BaRRxG1MISWSZhcU8XSmghdcJ6y/xOW+3HHwT85M1SF4aZi8J0gYEev25HZHxefWj94Ax2YEElLZTJLHETFY+vL2f1C++7/HVzVsX3vPd85bgd7r4bxtIy/BLFdmtgpPpGuw4emGcj6NkszJCCtrLe+FhQjGQrKTtIgEvhKQ+OSNGvahhUW2669zN/d8KsJ30PnKAA3B54CN0cwvPPufakRxvsBlXaC2Fm0aZeJyaSJIYb+EiIOWC7QFABSOxZ82DJazReKXmGmhdLWXLd64y2gDMUn56s/xdt99tdDyBy8pXpOKE9yVYEq78KkcawqWElUcsoMUQVV8SprdfhDPQhyxIoiuNSrWeWISiVISjWKakPmdDFAVrKj4oESPRbe9U6FmLCHu3kk67uMrFQrW1An9eNH/PXoa1cpSQsx9bjogXHDzxEk5Pa6y319SGe3Ib9+9n6Uv3R1bdf+cY5aZh54Kqr+tF3yDUPbmutqI7shTBKIW0fWUaxcwox5DuQbk6ijl+L+NVUwkxzggo9aLoEcESMwWwzFokHhu/4/P8c6/hl5+GEBeDOg9Hn45IveO8PXr0jVj+M7BIsvw+TdQFulSAyhkqlikZ9Em5fCQklw1Siu/LqDDF5hBpkbfPfvAGiiecSRSnP5UyFFChM0A4v5ALS+VbdeC4mRqpFuanSigDXcoCcTqZBL05g9VcgCHDpvHosxN+ln0x7sRDERHCQ6bbt7Rhzjq3tuLEONbQBN7d62/HV7c13Lm5/ktdBJ+Ty/pI66eeC2RZEvQG4CjxtwVEh+sve+qF02+vvWvd3o3PxfF9w9tfWb0qHljesxRDETxUKJc9HmOWFAnNx0bk+54xKM55R4pXIJ1QkQ7/ZcGQd+9ijtz3wH688dq6H0q3zF4DbLUvP03WOOv3bw6N2//c2Rfaxyi/rZoc0o11OTSQ5pLDAiDlAYQNKNjkUTiDqVQrXpYouYg6QB0l76bzePW+lTrdkqEn0WxtkKSDabiueA66uIsvjqjrBlSeB6IWjGCsxBqhAgilNKQtcB43aDvjlMqIoBncDHTpImzH8/n7ESQjbkUiJ2kW6s7qDgglxmIBsPoaZNp+57X4Cd/UpJFXzOK4u1CDvn8qIdfdNBce1ICiWTX3MohT9doiR5v2r7//8m+ZEEPuQs77+wUeS4Y9EGETFq6Jeb4ARPW+hvsXao6X5ZYGnHjjF7VmWzykORzWwT1C/7YFPrCwAd57wo7jsLljgsDO+vnpT2Hdx5C5G5lVNS+5WA3a5gqyZaH0DhQRpmsLxfKSU+bY9KE6lpS0DjBZFX/OQQRtUtQdr2qxPJcTanqP2fNs1W/n3cm+S6F8WsRLIk5ESkirLfBuy1dIVVa7IYGURXJZisM/ZGMY1RV440YbizFueKBexzJW2yMvVpb40FEfHdOmceS5PV6vp8EJ+bT28fGymTLad1Mt/pQ/ohSRfQPLOutqFJw+b7pkobhQakQIqjXSHXlKxEqRixVyIcBLDVQ92sh1+9siJD139zo4zGg49/f8cPWkt+dmmtALlVvOk4C5Mil76qPZwc31g4YMpBpsW4Pz5ULjK4Q3s529/5R2f+LuucaLn0kQLdW2cS5ss+HO/+IwvHp+VRi59bFIdGzlLEfMByFgBpbKuS0ccwbI8iIx0u1JN1aKYqev4iFuJ8eIITDQpvU2TaidmcvChZJdOMJn4rk6qUSsZpLBJ6QnEnTRxX0JBKm5wOINn8Z+ByesgxC0Nu/HbiU+9/glVXdQ198G82uvQN3zDvfObb0yW/OOXafCQVZ/xer+ygkSldsiB6ostxznRYs4paSaPTlNFTcmhmAfJiORFUWpLl8PqbrnT4dv8ObelD9saDvk/E4tBsx5y/ivZgkqRs0RrsrrU2ZiYFpRcBIOluO7eG8URuJuixInDu/38zev+vuNE/UPe+bmjtvvP/fkEM2XM010jpj11I+w9M5lpwkFPFPyez+k+A3DzHZRNFd85k0WRaI8lMWJt3bD5U3+5YPqWPZVFC8Cdz/nW4Wu/+OzvDDScReeMhvGFuuW5X0JLlJExwioqpyVwIQBNpvimlOgmXEnDxBQA6BgrN4kz8g5pK80VGGXGSU6Q/p1oW45vsJjAmeKqWROBq4DWKHwVYbjibkTU+JFnZ7fwNPrt7Vd2j9JzyNs/u4JXRqyY+csjVE5Oubd8MpJIuQPml0xVGiEvVZ3RvZAB6N7Iu6LuAkxBZkqXK2uvWYco2g+LXGHSfMi3vpwqoizdLk7zRpmA4vQ3AUfGWGQltwzFW9f84TNv6Cibgfi6m72l3x9PnOWJW4HIk5lwS3pRQFjT1XPEmjMUN8NTZsIkORUVGtDD1897fg4Cf6IX6uaa+cJFawRXCo40CmkpVwjYJPaKHjru/s/+463zM9LOXbUA3M7Zcl7PdMC7v75ylC26mRoakqJUf9nB5NgYWNCvvT2QQIrOzhPHkRJBRv5Q6TJZUuCimK7UcckkSUzWnirCHM+U6NLOnfpLaf0D0i0gUZVM/y1wqPtvcqub1K8fcbJb6tse/M19Xz2rZyqCyGNW/vBL7b7BS7ZNJsfCL2sQiojx1WYvOK4OmEghYBF7ol0hNzNA2g5F6AIJ0/rcFH0wDbgU6SYwNl608ZwdkSHIxrDM2r767ivf0NHY7l+eea33MHfevyXzLplEHzKnYni6NoVnWrrAI6FQCyUlTepf7zamxt6Oyc/TzNU8XFq4qLTXop0CJUBNmMqRRiEtowU+HMMiu3nB9itefek8DbVjly0At2OmnL8THXrmN8/flA1c2uBVcK9qRF/iFki/QBK/URcYGHoXVfDoFy5vXuiQwlecwPV9IzxDQs/tAgXGkCX536IWOJPoIyGRtAmeNjEciNX9avynFsPtC6nr7/Pe9rnjlOuvrKX+R2Tf3mhKEtpRECQE7rhIFRHKaMGRgJ03g2wrmelgMMWRicZEJbapllCU7fI1xQx1Li+joLJbLYomIpSyyfXL+NgFf1z3D7d0crYc+s+fX/6w/7z1DfSDk1hPEsLjUmsIS5cWF2KatLWD8kKUNvBOJTs7OaJndi5TBGOYMNPt42kBo6KHhg5/pMpBuezBamxFX3LP8KMLnB5WAO4zmxs9+aljzvncUJPt/b0/7kiP84f3Q0PYUC1iGtiaHE8i15J0YY3AQc6lNXXqulwXBK6erlWn0IDjWEgpgeVSJp7iuhlsAuAsQsVnQHOUNGXXe6JxAbPYf995xRupUmFBH/u/9crjK4sPvGhzLVlJHmJql9GiAgnJ4fQNaXvohYrq4nKhFUriSQJc8m+12lmKzDLJHyYdDbjUOkeQKqTWOaBFCnAqAazRB7FUbTvhwS91tr8cefGt/oOuaUp3ueAuojBBpdKHVmK27IZFQshP487ARKJ3O9Rhw3jq83FMAy6TuU31+EjEqKZDNELvzKAZC4vF5tWPXPX6ju4Sun3XBeB22+Idut4R537rhIdr1o2p1w/hDCBs2bDKgxAEBKQyRdoDomXAlxIowng5mnFA1BueGi9OBrDdAFnY1Mkz3Vcr15KlrWdmtv4AACAASURBVClTEUqqsX4xD2+opFuu6GYstkOmekanOerMz66YtJZe8ljS/4qWMwJJouhRqvGpXcZMSTepBbFndqag0+fJH9oZSEtXshGJgkILGcUaSCpSd7XI0EdrYXMzFrPR8++6qvMJtWWn/tf5O9TwpcrrQ5akcBmJw3BkunSWqrnIRRdgVECiQ0uUYJw/wNWJPL1QEeDmFY46Rt7QC1ymXBNXVxGWuhN47N9PXNCYtaAH/4zepD3wQ4e86/9e+BgGL1LVEbTqNVilfihZhaR8CLXl9mwgmQSqpIgVGjzQMUZiDRhyubToHwgR6CW0dPcEKiYgLm6JPGORoGSl6520cUGZi5/fd9kpdPY9/iBPcdJdcrr0Rz6cMQ+C9HUpxcjsnOVA4RkyAyXeCCmmucnaOLpsWIKEWbQYjs10TzZKZjES4klT+DwDi8Zx0JBY//tPvGplp42631nfP3aHGtqYcR9cZDpxllHSlBJTmq9MgJsrcs0oye70OJ7Z+QwVjw4SMyKP29DzQiO87pYQj4+jsmQEmHgQS+P7j7/vi6vmpKrvmY13dp8qAHd29uvqtw8/9fuDE1bfdXV38OiQ+4gbdZQDB1GUwCovRlKn/wa6MyxsCYRNQwXT1EbTBdVSAilVeFEPLc1jFabYYWIc3kAAJ6nBj3bcvK/XXPOby968YCd2Jx7MQe/51uqtfOTiFu+HZEbQPG++Ns1Dbl9It0Fve4pGWN1WKTxiPIhUx9MpJJwIruPEtuUibY5iSSXZMFDf8jd3fP6NHS1dPXDVN/prlX2uacpgRUqc4kzocmxwYqtYYFSSnTNS5rNwwsSWZzbEbPO7ydzCVDvmiMzjSRzcLzbe84kTlnfi+c7HOQrAnQ+r78Y1D3vnN4bG+g64ZltaOVZQjFFX6ZDaUoQsoQKCAe3ByFYNbuBBiVhz9gVpyupChDwOqbmj1KwvF+LO6ghcCUtGqPJ4vd967IIHrnp7R5M6u3G7PfWVRaded0GLly9JSNlMUVUeqVuZpofTbctzfnK7jFlrRiTgVLHHDejqMmm3hChRsIIhiCQEYzEG1CgWhw+eePcX3tbRQokXve+G8pasfH0T/nKRUQLKhiDApSQaeegUp59nBJhO5uWg26a36UQvsSoS2C7TQkWknVtKG1gixxfdc/XrdvTUJHmGg5lncz/DUT7LP3bgqv9cPmYduL7Gh01skdrCsBQyiyBJWUvrHRhHwPhYbV1XU9FFVVySeyb+GGemZUkWwad242ICI270U39yy//YUwRC5mK6PP+fLh9OBg/+9uawvDLkfYBXIrmzKW1az3e0uI4g7jKBMYV2iEJHXpru15bkOrxUgEHFCrR1ph0GlTOnsHkdQ+qx1Zsv63xS6MD3rV//UA3L3eoIQmKi0Hyh8IIWCupaG7cnfSwU79YC6u0KRa3kSSpyuaebNWBXAg241FWE+LkHVlq33v2JFcfNxXOe63MWgDvXFp7l+Q897XvLH8Pw+tAd1Nx8rTuQUVeCBBmVmObtxzlVd+WtpbWvoMsmhaEI+RXEIdNxRC2KlUxgyGmhJEZvKcmJ8+/+zNs3znKYz5qvH/ye7xy/AwM/jawSUu5DKfpRQNqCZTNNyaOCkyyj9kDtEAN5k8RmMEwHTfQnbrROWtJPClgCPh/DsujOCx+4+t2XdNKgz/vnz1fT4UN+sKlhr0hhw7I9XS4tSFFt3hJmT3aH7dLq6dJxz+OIiSlCIRvXBUtjVOItWNK6s7+XuN7P9HkVgPtMLTUPnzvsPdce90A8tCGrLkLS3AFnoAxPJAibEZTVB+X7WpZQy3+nFJ81IQRdkqqVton2QwkScrJKcLgL0RzFIB/Fge7W83+57q0dLzudBzPNyyX3ftdXPtjylnxkko1Apg7KQYAkDrWYjXIcKJIbpAWOuGEk8EBJIISwVGoAF1T9x4AkRl9fCc1WDb4jUWIRqsnDa/607s0Xd/rGDjrnxp8+HPrHS3dAa0HohYK0M3oAdKcSZzshEqMOIBRe8KmoIwLSOoaDDIuSrR+6a91fL7gOEAXgdnpWd+h8h6z63vJtYsl6WVmGekrlog34gUI0Ngo/qCJlfRQlNMBKefSMvAPynPIiBw245FklWvmLpQz9tsCIE99Ymbz377vZmbZDJum50xyy6vPLt7B91qf+UqSRNKprnJgJDgQxQCIB2FoCAkAEpn+ogora5hC/lEI7MbU61hV+pM7WDGMMBDEWx39ae89n3nZRJ2/6yFVX9d+v9p1o2sOwqYLLdnS13bwC7lQowewGjC5xHmLQ7dMtCEpG5OwK2AJuVkMlnMA+6fbK7//3PzU7aaO5PteCBtzlp351UPjDjGpI7/j313Q0yzvXhn+q8z/n3d/+wATb62MhryCNUl2Q4HoMTXo5iZNY7oestXIVK90zJtdJmPE4yWuhiWvbYK1R7OUnUNvvPG7TV1Yt+Hr0+Xw2T3btA953082bavZKFgwhosaUgatjtr7lII0oRkqUMtIvoJ9cu4A8YFBxigOZhvAshrjegFvuB1MKtkjQnz68dtPVr+so6B5+6lcHH0n6RkNvEYuJeaF5xfPFw51WcGPC9JabjufStowWJDO3GXGZuYLKYtgsQ0nEWCy2nHDfZ+au48ZczLMFCbjHnfe1V0cY+eiOxD1yW8uG49gYcqNb7ejRi+67+q0/nAtDdeucB5x57fkT1tJLx6lmodwPB6bdeNRsmRhWdQAqpq0VlS65uaLXzqPL28SoBE5axxCvfXAYf7r8zitOX/CVYd16Drt6nf3O+N6Haqr/wy2K7dJOIyFpQWoZTyJAxOOl4gNKEOVnzkuENZfXJb50C7ZN+sS26ekmPQwNCCwOf7n2rsvf0lHQPWTV15Zv8Q5YX7P6p1luu3rDHfv8DBU6XZiTa3zkmsqk2SHSDK7tIGmR6HtOZ4yaOKQ/3nDPJ45ZUCpiCw5wX3jW19c+0iqvYX0HYGIsBCplMJfBSRsY5Anc1raNj3z2bxckT+/AM2/csD0Jjgup7TiJf5PqU5wAQQBLObAYR0KFDLr3ogNFQiVamEbByyKtspQSWZ/ChixDoMaxTDz6v/505Vv+tWPvR3GiP2uB55/+n8ORNfKdUdG3IuH9SEjcXXu07aaVRirSgG7eSUJX/nKSmIFIKOZuoa9/ELVJUq2M4cgJHFCprbnnk3/b0ZjusnNv+9DmKPgwtGjM/B1EV9QhjTxkYFNykXKQRMGjf6NiHJ6hYjM0WxlUaZH2ei1Pojx+Nw6Xd63c+KWz1s/fHezalRcU4L7krK+8citf9uPNcRnKXmKoN6R6RS1h4iboYVWYQL8Tb3jo08cvqJXvoLN/ccuO1F/RkA6oa4wuvqeGgXToPjZctxcnz8kNXCQJtQqnklFSWFLws1Dr0JrJm8JidQyk21c8fPWbN+zalCg+PVsLHHr2D255qFFekQVDSLRuBVGmTZsi3VZ+qncXcakDIIy11q7tuMiItkUlwoENRW3huQO3tRkH25vW3LHurR0D3WPO+Ubwh2hxK7T6QRV1BvjozvOW96S3QEUJuvorb3VPf54qUpitlcz3pwCXpCKV0O8wCZEbwCWZUHoVWmBxC+XKEBqJCcVQLLcUPYbDrC3rf3nF/+h4tV5n7u6JZ1lQgHvweTdtfDB2jhXeIFRIbp7hpNKS54imzgDTBKFtiatClKIti7d88Y3b58p4nTrvXmfftr4VOctDeIjtUn5PlM3I+zuRqHWpDBm2wKkqTJLgtWMKG3R5bojAc5E1RjEUACU1frNXe+Tv7/ryGXPSX6tT970nn+dF/3L9zX+qOStjuw8pXNN2nsTCBbUUsoBwHJbnQRCvmji5imhi1E2C1NzI06XFk2K+DqysiRGnha2fOr6j7+tLV131ofvYoR+uWSOAaIJ7HiS1LKKjNQnb85FJGhehnhE012PTerr50+uYxONOAuka6LW3ke8Q2gp37YIT0humd3wMBw/wRb/+5AkLohCiow9wLl+gw0/9+qsecfb70URqAVYJru3rWFemuecCniTajUTM2zQXiYoYw77s0ZP+uO7NP5rLsc3m3Pufuf6WHRhckWYcCbWEoXYuNL/zLgrEMLBdD1lMpZjUrrusyfIs40gpluvbCAIHsjEBLx3FYmfiQ/dd+aYFR5chGx5/2rpKaAn+88t6R0t3Ns/20HO/88GHGqWPJN4ipIIKHWy4lRKSHVvgD1a17rDUrdsJRPLKPy2fmebC3LSxceA6DPH4JjzHaw09fOVfjc9mTDt/94AzfnLzFixamRKPO6BycRPCKlOSdsc4EAzl41Na/1izLLTAeo64HQPcXb8r8o5LDoOT1W7tY7Xvu2r7uvsue2vP6DA/2R0tHMA95/qf3d6sHg1/CIzbYGGe/6GwAqjsj/iNpM5EgJu3MVAhyvE2LFZbTn6gx5JpVKo7WV78X/W0tCJCBTGJRBOliLoxMKPkpYuAKJMcZ2Ccwfd9hGFqauADD5bNIZqhblVezXZg33L9/D98qvMKVLv+KjzxG9QqJ1laYWEWvgTcPWFgcIk9UZ84OQvD4+I4RrV/GPUwRpgA/UMjiDOBeqOFarWKOGqh7DmQIkZf2fsVE6EMXFuGYWOt54lbJzZPyq09Sg86/H3XfuD+RuVjSbCU1k4gbqDUX0FLdymmTsim0ktv56fYJnoq6EOmUheu+XaI4eieVzxy1Vs6Wnb94jO+c/xma6+fjiUcKcVzqfU6Cc/rJhdEycor4rSWsoBFLZogkZFjoDuIdGJ27O45jGYF0R/Lnq93gP0Ov2XAia/jza2X96J86IIB3IPO+/Ft92fLXk4ZIy19F9YRBAFC3S2F5PCMHmmmaS4EuEbI2OUJnOYm7O83Lrzj03/f0Qqe3Z0mz3vP107cZO/1k8QdgYwoLGBD2rSFSsFElN8LkeOpJNfW4dygXELYoPieBeZ7UCTBmEZwAwdOczOWeWMn3Hd5Z9u47O790feOeefnhpql4D2p1c8mUvukzCmv3N6IEVRHkIAWigQol8GlgowTcMvWRHzPCxA1GgiqxgMU1IGBMtWCGlySAEwKy+E6c617O0oBJlqoUp2BaG4cdsV1vmzepFoTv/n11e9uzeYeOvXd/d71zWN3WPtsbPEKfNeojiVRohOjXMRkDQ1ipueaqUAz6m5GjYy8SscKsR/b9sq7P3VKx5spHnTm9bduloPHtOBp/eOMErWkbEZNRqe0DUy5uK2oG0j7PZtHOpm2DfWZy1XvaKfQiMAcD66KEcgIFV5f76Xbbyg5tStuv/K0ju4MdnduLBjADf7puyoceqHunWUx4ilSzbqNWAtBm15dpnXIDFPQA8lieLaEz1KUVeOWwebDr59PzYCDz/7B2q2if01DlqGoHxY1z6NqMMTGs82oYwDdES0alDwg9jcJYpMAeAuVvj404wTK9mB7DP74gzggGD3+9sveOO/KXi/9wHUnN1vpmoQ7x9SjDBFpwDolSIt6a1lwggpatGhQso+eH3n1pB1IoMIUAs9DS2fnAd+xdTdh17ORZZkuKmAWR0zMDFqEqMllShJ+KRxbwrFMDLDZqMG3Oaq+A5dnGyo8ux5jD3/67i+8s767L0knvnfYGd897uFsaENdVgC/qhNjNona0HzOnQW98FKyiFr20EKSZ/CJLpZGDezHt1340BWndNxpOPrcb51wb7LkxnFVBrWlo/51sXJNJRrlCDTEGvEjO++BZnaSM8V7OmGlXTyHpo7lYyQpR064kGnhJuKuC/qdm6T6SNXbaCW1Hz74ydd0LPG4i6PVH18wgHvY6t/dcsd4sAKqDocaF5KDR6sabYHyOG67S2m+GTOhBq6QiRRKSPiWBA+344ByduIdn/6bjiozPZ3xj1x11UirvP9372sFx6bukBE4IRDVqlMJWC64TGpUUC4Yo15USv8Q2Zu2ea5fgiskGuPjsIdHIBtbcLDavPKez71p3mgxB53z49eMZe5qodixYZSi3NePyXoLluvB8kpIM2F4pTrBSSBJwugCdrUfWSvUTSmZ7UI1CA8lnCCAylJ4rg2ZZshEAscL0Apb8EoVxFECp1JG2myCeeQhtiCIPkfnppfP8bTtVBzDdi2osIYBX2GAtW62Wlt/WEVr3a+vfvfk0z2vufj7Iad9b/k2a6/1E6kDy/chmg0wnzxY0lggURtKhOYVaLQAE+DqWL4OLuDIJTjx12tePCfzdr9zfrJhVAwdl0QpLNdHmHEgqGqRo3bnZnJoDOAyZMw1oTsNeG0u7VxY7anOSSXs1AyTQjVNIGmhvy/QAj20jut8CDU7pa4nSsBxJIKkjgEr3lhOmzfwdHRdt52vBQO4+636f+y9CbxeVXku/ux5+IYzJiEQJkVEHLB1AEJCGGTwamvR2vu/eluv1SKzU6tVSAiDHW5rpYCgCGq11Vu8zlRlEggEcKpelYpMCZnIcMZv2vPe/9/zrr1PDsiU4ZyTAB8/fic5Oef79l57rXe963mf93luWL7NOfDiXtaFxkFGDYblIeXRWigsyuiwEAHjCtBPBDOrewbSrJDjKXHQuDuJBV5xm5+Ovv3+T791Riv57OzZkvSdk1qDF7cyA2a9gTCm0R8DK+cuHRk4IUjrYpXaAk24mUEIkEfMgd7RNNzTdeRhjJqtwUy6mKdNLH3gqj+cVdrXAe/4twF7/4Wvb+fGylZsHJVkHgynJqpk1HvNmbkmCaxGH5IwkCMeg58IubCDynWEb8o21qjbkUCp82jNe6OwSy+A6XlI223ApSNumcFIppVBY/MArW7k77lwkzVuqlT20XVYtouELsL8GV6QlsExCphpBKsI4CKBb8SrbGQX3n/labvVSffZhJuXnnfD8RuSvh8mVh1xUUoQlo4HioJVFs806r2n0OkcHEciXP4ia2zJw1eePCNCQ6/6wHdOWNtr3JpoPjK7gZi1A54mLAZTZRzKgKs0D1hfYMAts9+5CrhVJ5pOTSeu8RAZXYnFX06DVasjiTkPSgW3JIZFmFHLkIYd9HsGfCNYnYfbVtR088ezgfnuNQGXj3nw9FuKyKshMRqIe1RjogyeKLNIBVUF3MoChUGX+F4kR8yg14Pr1xAmxH1MThma+mFBseGC+Unr6nt2szndq9979XE978Bjt6RDFwXGAPjcLcdGErHYl6jGBU4ELjq58FjiqwGD+Y6oUEnGziMR+bjMNNIYjpainrcwlI8ufWCWObaHnvH1C8fteStHU0/RhypNWM5vcYtVClkaxVsYMD1PGjd0z0MupH5GZP5PWECXk0qWR8gpY0h4QcXUsmWZ41JWZGhrbtG+nKJbiqcqBUNmzuK6W8B0HKTkJnPTsix1QiiddwsKgBsaiiyFo7EglEsQ880QNW3ygv4smlXroJee9fXlm/LmxaHdJ5QxgZVkHpSFKFmVnM+ZUP5cq4CHBPPbm5u//fxbZgwaeemHb717U9A4ul3UATbfcMALZri04ykxU2ElcMzLeavU7Z/NXrPbf4bSjvxPlg+NPIsIlmcjiWM1H7pRydVnA4UG0zLUxgwmXibCblvyHgZgM+lhyC9Wu8nEyrw78aOZgqD2qoB72F/864ox/8CLtsbsxBpWvdbMBERjgC6rVNbXoGkaMpkYxEErug0ncCLWJyIeIh1aOdy0g6aeQE9bqxpadOmDn33TTlHIKAwS1gaMSG++PzTqJ4+1kqNi1JBT1auwJJbQ3ZVYra5RHDyTDKEwfWRkHpBtodPMpRSFZveDVIx1UJdR82mXMol6Oor5xZaPPHj1O/5ht8/gJ3lDsinafv397cJbERYWUroHwFYOCDwCy4J7GnRKYiYpRWrBqgypXKAabWhUwUgpaJXCO1Nk+2n2NVLN50lGFW/0ovqdUuawfE/+u3rxGUtz/hOAM16DytYMdnKlHbhajJpunO8H3StmMqBNH95XfOibF67p1lZ28z64fQvE9FGCGrFpgUc4nyM46MFNJ9BvtC949Mo3z6hN+FF/+c3j7g8W3jaR1gGvKetJFOeEmVC9ymBb6i8XIsQ8NwFXRdrpFkcVV7j6vi4ec9u1IiqvKdLaSk0LTl5qEhfsAYxh8USk0akjWe0iWulmvXt3Z+a7VwVcju+B59xw97i96OgWM1yPkm1tKbjYtX5E3a74SOXECC0LKQWihchdao4WiVRZxW3KoIoTsyYTedCGb+fwjARpZwvqVnKBYyR5lkzc2zTMX/BzK/PEV3/gC/2JlulW4rwqSQu9VziLreY8fd1I9yK9OYweRThYDNNLLJHzlScaCTSpBBhNY51e0diSuIA/MIwwSJETH2PnnFUWA8IMujeAnBle3MGA00Otff9HNnz+XbMSbA8942srR/R9LuwaTUQsVBUMnHSH4IgqJ4lUAub21+8oT03naT5hYUpw5P2Wsv/KXbZyTqgyqPK9JZCqQpLqt1enA2UDv72www31idejFKimT/WKy6QwfovCXt0Q82oa6vHaC/rTbVfOBs576LnXr+hoiy56rGeioB2731DNLrwHxjgWeuOtOKAv/ZHfXrP0Z9e8T+FmM/VauVI/qPemOzcmg4uTTgg0iOGS6LHd/0xxhjk/CX8VSmxmTl+P//wK8lCBWBMFPfXiXGMyo4IyNwnJAUr3ZSkQcn6TkMkTlJaLI7NbxGga4SqtPfKJNZ///3ZZp2WvC7ivP/sbQ5vced/Z1HUWU8jC1zN0Wh3Aogp/XeF2Nk0UWZBhpsBjkWqO0OnphVQ4rqlkvqa0VZq+LaaJUi0uImRpgIH+JiYnx6GbNFjU5X8+RKFLcvFmtHDWoBsuut0ums06Uq1Aj5AF1fSZnfYCqfiqCUp3VAaTCkKgIHWmFJAEu9XheC7CdksRFyxT+WC1Mxi2IU0N/enGJZuu++8zguFNXzOHnfN/T5mwFvxgS4cQc03ZyUgw5LWrKUMkRzJNRgZxNSi9Jpi1T/lOMMtU46Z4ptV0m0YnIn5dvapMeSornf5z1cKqvlYV9O2tqAzIyryRJwn14rXwO+pU88TIwK493lsBvYiQ90ZR63Ngpi34yeTHB4zsit2Z3TxZXHrZe7+8vOMdePGWzEVGRkcWo4hjGF4dbtZDf/AoXtKfLL39k7PTon3wuTdesMXc/5JeTBiL7iAMsCWOK3OgPFHIWpnb7FY2X8nACSvS+YRJwTS3iCrQToc9pgKwmgyylvnv3Dymkgd1EuM8YsHatTTYuZiq0gB0VdgauXTTF3eumWqvC7gcpFd/4Jv9LWef726eTJbohiXZQeYOICRm43iivCTBlp1YZDSU9uCSnZUBV9mc6LBK/mca8XeYCadwfA8xK5s6+9nVzqf6yUtYsdwN5Xu6BZ1K/502dEdHLlmbBs2yxbiPR1+18KuJUGZk5REZZgKwZdesC+bIoOH4FqJeW6r5XrMJtLdhnjayZN1n3jajwfb3zv38vLTx4u8+MJoeGbEYNrgvMhpRyvgpPQdlfaKsYQjRWFrJIxUtXpnCvxNwtx/tpwXcKimdDjFMi0iVIHX1rSfNnCWIl9mLFHRIr6PFtrLefnzAfbzuqzAAmK2Ruka1rmQSpqcjTTO1JwZt9OeTWJhsfMN/XffeW2cyiXvVmV9d2nH3/YeRIDvSthT2zCKvV7Swv7bt+J9+5i9mrbh3+FnX138b9LXNxr7I7ToSFjxLFS+1aZYQnbgWz312y5OiPGdh91RrbHpWqyCrKdiDz1vmcrVR81TJ+6gm5HSsmvNJE7RSzzMknUn4DQe+aSDsTKLPTJfXw/V3//YLf/6sudF7ZcDlAL/m9Ov7Jrz+/xgtmsdMdFI4tZpkMXG3B7PRLIODjkwKU8oivML3mPNMvXRTBEOceh1RHKDmeuhSkYvGjLW6WKaoNltR2pBim54nqhOHvNA4h9c3gGC8JdV18idpa2No/EQ6qKiMVn2mOtbQPVUR3PmKYOjkDCoPrBotRYI2Mr3AYJ+LzrZ1GMLWJZuum1kbnJd86JaLRyJreSf3Ubg1pThGCpemKzhEFHV491S7qtSdOLaspj/Zsa4MeE83w8psowquasTUWP1OwOV3S/YJD34Koy3F16tnS0y4RAtUVlsF2WkdUYIjKwxXTix2HVncA/RYFSc7XRj1BrIkhmFkQitb1MTH7WjzjLaNHr7yetseN47Qcxhxnp5g2NothRHe98t/nH2B7cP/etW9D02aR8Zg8Uyp0fF0KFsboaVqk5vTLrNqBSvoYLu4Q/n90mLqccFWEnJ29+nQc8JRZGaKslAZcCv2i4oZ8qqojGmC2kAfupNj0ulZ92z0Om34ng0tD5FF7QvmucY9j155ytMG37024HIs3rjye837R/X/6Br9SybDHLZXkwp/0A1gsCtJihBVUUXtYLLYJAtVi5scUcO2lfRhpwPDd5ClhdCWYmKnU1xDTehHnHhCSgeLXnx/F2nEbNgCmNGaJnNZhiUkeYaMJo9c5HLMrYo9FcGdh3QeizQSEGD4PhD1kPUmUKtbyFsbMC/eNLjuKzPXJXPIud89eUQburETm8hMX2h1mmWgSAJhRUimTuhEhku2GxTcbQRmkN5TlfZzMJS81O8EYDVz1XhPubSWobX6nvr6NAFXimpcXLwG+Wn1ttKSpZStpl6SiVcQwnQsuCTw86QjRTcuOGLuvPYUpm0i7ZHpQPqmj4TMCtcHgjEMaRNohGuOX3vt7GWb0+5oVv/4qg98/cLfdvtWJv6+yEWNDmL5zufDbjgKn20/Qsxlt1l1IRUNtMxOy0YNtcbLZKCcH4LpFgy62vYNudqly+Kuavio7lFXPF5h4PDtMiCJYFPoh9wI2dUJSSi6md3ZjH20TfMf+sKfP6lo1l4dcKtZ+LJzv3vB+rhxSUdvwvSbSKMARtKDbbNjhmRySuKVup+Ucpxe6BFZuAIII1h1X6hDLFJx0JlJ6QwsXJDMiSQgqEWruLOq242cr3pfH7rdnmC9GTNDPhxWY0T3MEAKpwAAIABJREFUtHzwU22S/JYuxSdV4HMQsyJMQ8gkhdu04UyuRyPeMrThuj+ZMSeLgz5w54VbE29lLzXhOJZoFvBaaE5p2jRH1AQS316FVvfBooIKnIRQqoD2JF1H04tkTyty8rtH06eEFB5XhKtmQBXMp7/P0wfcKpvmMzVIY0vY9ZXCoURimiLTbbXZCLlY6Vv0GQH6062rhhrhH/7s7/9kTponZiPyHn3eNYt/Ge63OqodjDQ1lHFIQUGdXCyEWIsW3zypTcxlwH2S0Zju/ssEddpGLKu32oinfNy4ykvzSinKqveUxGJKp5cbMivc1DHJYfieQG06m3N6HZh9/QJpZK1x7Eu1vvZD8x96CpXC50TA5QC9+IxvH7PVGL6rnVqwXA9mrvrwE8NFwWBbViPBBokKe5KTKdtLEzV40tHF7FcUvCXYSrxhIUhghTJwGhSWJuVEk24oy3WR0JEhzxTZmsR7HsEctuSW/NMyO1P6tUoDgI0OwhE1TcR8b9sA3Xdr+eQd7SuXHTdTi+vQD39lOLIOvWHDmH5kprmwbBYNA1iWhoRZrWEiJYTAxSSbDQeBGbq6f0FppQtKE5aAFCumJZ3b/7y9S0rYQzx/sHgp2T6/oWhe01/642g+6l9UZlv6XcnZodSWLeUpJeOawuSeLABMw/TKTFpluBxzG3mPjrueCHsK7k5RGcsRoSDNZiMKMxwW60N4CDCkde/s6237o/tmcDOcqWf/bN/3gA/dvGpdNLgUmjK7tHL13JhAEG5KBSqb+4BbnVZVobZau+okpQpf6mt1Mkqrum/VllydeKd+rgy4UrJhsZwdj0rYQnMcFGEMu+Yj7rblzdlCnPDfMx06W8qTLiY/89qnjKvPmYDLYWJX11gx75uTRmMZj8dsNRUbGhrmkfBMPIb6ucxOmVFSscD0RAgFWQjLc5DEFINmRsxsU6nxC3Wp1CiluhOPIwLQC3hQ4oMmRXUyFDkz5Bi2FN6IC7LKyydvAELUZzsi3VrZRZRBj1qwTE1pDaQdDOuj56+/+u0zJq94wNnfOGlLUr/JrC1ENyAtijOQ3GRmL9MwT6n4KniL0GaR0uU1A6hZYLKrhyIyLrScotmRBCYJziw0UhaLRUsWAfm9KJC2anZ6FcEoFg7W7nER3Zxl3aIwstWWZWZxN8ysWvOXkLxxEkmav8yt1f8rSeOXa7ZeRFlumqZ/bJJbehxrJ7tevzbWCRb3dCAodBh2A5kUTRwgDGF6rPhHlISR4qNsikJ6h/IaC3rS9RZNMSJUdiPem8T4GMCZ4bOLzWCjBudAIdmem2eoJRma2dY3PHLdH8xoQe3ZBsjd/XP7n/X15VvMgy6OxeySWS4zQdIaUwXFVF5oewSOW64rSQi2b7hPPCXJpv2kEW873FWNo/q5p9q8tycJYgrABEtYTAmcosC86MGnPJk+pwJuNViHnfudj69ra5+wBhcJLzYhmEuVLR4dCZYGAexmAxmPjmEq7b4pO73IUqBAIlWH/D4UzEaljbQKuIkqykwPuIYuR9KsNSl0NMNg6ynlFE1kDDz8WZGy0xQOlBGKUHmbYeTwija0uIVBz7wta6354w27ueNt+kLc971fv7Dn77eyAx9pmMFp9COjTCDzFpXUb8euqjkVJTANU7jOApeQLcTAK23H5DmyS4qYt4loclwodralxFY8y4Cv496mhxvT7ra7HrnizbfsrsBAuUfTDa2JumF7tYFzNKvxps1jnSMjuHAbQxhv9SRLFaUxZuN85vUGYt6P6QhsoMrPbI4hPqKycQm68lUttinzxwoeYXAvLFiZgXoxif3dLSt+ftmbd7ugzO4ap519n1f91Q1LHwyGVgVaoxRIL4/eytVRYd9yEvxdOGhnP3Nv/D0D7JZk8kQIMpEu/OTKI54fGe70B/by91w7mPuLvr2m5y4p+vZFVHWcSPalK8yWXWm6jpi+SQyqhBYcRyyk4yCB5dbUwiRJejoAP9XayCAUyQ5HED0mxhOzDdVmVILmuqrFNIrRaNbRnpyURe05rihh6VmIupnACzd9fON1p/3tTE64wz52793rRsKjDa8P7SCH3xxCb7ILuLWSY8uFQwqNOjayOCiqZdw4NLI9mNmSekNiPvUiDYCngYxBN4cpUpgRnLwLO+9eON9KVv/y8rfPevb3mrOuW9I2ho6dMPpPbWXe0oTaFJoqZJJuZTguoohpKkn9vNcYGqGd6dnMFDl+eycTLXJUbSVHbmiCYVp5F4PFOIbyrRf911X/Y+VMPr/Zfm/Sw9bpC9s9NFRXYQkJTWHfLwRceSTsZOPJT5sWcL32I8PtLz25RsucZLiHvPPyZn1eQ8+2Bhr6JvGrqz82Y1qVR5z39eNb2ryLN3SxJHUa8Px+BL0ImlAYyJdmlqMSHWZxaRCqPmzietQAqIqcUyM1vTKawdBCZO1x+MPzkaSFOLYym2bQTrtsvqBuA5BPjqDWZGdcD3qawDU1uIguWP+ZE2e0XZP3uODs21d39ObiKDdFR9fzauilDBosJKr7V2rnzPIUoX0Kr+WGwbGSBo5yEGjzEypNiJrO9tg2GnZxl6/1LowmJv9z7RffrTQW5/i16D3XD+r14e90Y/0YigEFmYZUt5FbvvKCIyuk13scjiw25kIpqh48cXgDZqaaXrjxpoy8FjenBFbQxZAeoT8b/9H9n33bUXN8y7v14xtn/rCgDojyPCtZJJJ8VJolL2S4EnCpDWLylBSD0ye/+vf3jAz3sL/40rKsccDfjXbjo2yDRacEHu2j26Or9tGTt/74S++aMeWuY876t+NHiv5LHuvZx0TuIFK7Ac3xkbI5gkGXeK/rABRAQa6AcZL+BQgqiwPS/DCtN5+iF6zYI0USK81WqWonGbT+QQHYJYgZmlgAGeEohqwYtSL4+P1Xz2xGy5VHTHub8+L/GEnco2HVJVtniI3plsGuPGLJetmpI7sPI28p4F4VwqTvNYClMYPV0OuxScMV6UUrGsFg/OCKRX3Rp+/51HtnjE2xO6LIoefe9PFJo+/kLb18WX3+QnTGxxRGbw8IlsKmCdEN0GN1mqkwPEImuQGdLdsyRNRYZW2AxdACZm5DCwI0rAyDdnDvQ59cdvTuuN494T1e9NF7f76xY7w6FsnIcilISyypgWWh9HkOKRDrz+mEQdmTPBJIYY/IcA9/37UnjuoH3tLWBxCLqV4u2VYRF9hncABB5zH0ZxtPfPjadzzrro2dmZRLzrxhYFNhnNfS3ZUjYQ6nNiii1l59AFHILiMen8ssJwlVF5IE3Mq8rqJJlR0sMfVDHaGSVTinZRsIxsfg1mso0p6Y3Q262apaMrm8qW/8xWx5di08747VY9rA4livqeBPrmCtJq4J0hAiamRKBlBV+bmh8H6Z7pc0OvJxtQy+XSBtT2Co5iBjJ1+erdh67Rv2Luxy5Ur9pd0Tjt7UDj5hOP4ymE1Mhr50nNFVYbtfV1V8KTfagkUjFuTKZ8+AK+PGlweIKpUJAyH29ZMfr//kUUfuzNzc037n0L+6/Sfru95rQ722nedMpTWhS1UBV8Esz9eXZLisx7BpsYhVwA1+O9R6CgbLrEAKx334s8O/6czb1rL2Q2QNIe9Rjo9ruqYoRez0ySfgaxOYj9Hj1l49O+4FR5/31cWjmXkcvKFTxiajY8PCEfWuwnbRY0++y0DKo4ISBd/e/kfsTy04jaaVzGhlLYZCfrbyHvqd4i4jHru5lnXvvO+ad86IaPRTTfLDzv6Xoc048Duht2BxGJGBwf4PdrMVKMjIYPsz3WFNQ9gHinlhCEZZFYsYXFggKwwNtbqL7uYNqDkZFlq9Ux/65zffuLcvsJef8/WPrG8bfx/X9ofK4MpGGOGXli9SocpSdy4CF+QG8d/JaOBJiANmQ7f8kq/MvWsS89ONF2296k17Pab7sr/8wcXres3lgV6XuSGt22zhFubOtGaD53vArTBcBtxcgx8+MLcB95CzvnnviDn/yInCBzJPqXyxYCHi8XTIY5fWBLSsjUbcxj752NIHrnnrrAprH37Wp+u+vs8REZwTYpbO+punPLp1y2theVQ3QFF4IuinlKcYYFloK+haiT7fvzPsjt9Us/S7rWg0W/u52dkwnizo7fdnVw7FzZeMtJxFiAJactMdI5hqRc5IWiUeS9xJOuYYbFkQ0suvKmNRilw0s4xhGRHMtL184uq3XLq3B9rp109Jzc1YcHZX7/tEojsSeMU6prJsIkdTVx2FSmd5e5CpVMlUA17pLBDSRdlAI9uGg+IHLvzV1f9rTu1cdvVZvezsb5y0vph/U09vPk3Aff5mtxxfYSmQYko+YUGBcwMLgt/OHS2MD22rvf9NE5EJen4KdkhBDEu8wEvuJtvn2FKZwmcBOWzB1x6b0S6rHZ2Mr/5fn+r/xRc/OEFctJJq3NH3mOmf3+/P/mWoXVswEliDSISwzkCaShVV2hWr6qBciGpiYEmPzrC25SOl7XxaoNHw0W5tQZ+boZaPrqonrbc9cM07Rmb6+ufq/Y/+4PWD66LaN1oYXNYrHGSZAce1kRbsOCulPUtVKR4ZZVyNmhBSVM9zJV+oxtRGiP5iAoPZtgvvv/p/7rVB95VnfmXZo1h0e0cfrNoKlNKF1I2rzef5HXBFb1fUVNkwlENPctQn/mtw8ivvfFIiwIxDCvuf88OL1xfzl8OwpaNKljqVuZghslglegdEnKlRYEBLCgz6LhCMw03W7lFBd64CwrP5XAbbbmPhyKQxhCIxYHg1ZL2OyEvKmAvuVp6CK9HonLQ2Exlt2E1b6Gq98THYZo4+M4Yfbz3x0WvfOqOY+rO5t9n6mVd88IaPbw7dTwRaHbHmSHtvThphvS4Zf9Fqw280EHZj5LmtuhRZVKTOch4IwyM36NlBVJjOHJMYxKbh+z89c8XgmRwbaj8/Er14vG0Mbm95fWJr7PO8aPbEgGukBWrj981dwD34oz+9d00wcKQEVk7eLIFbZwNCG2maCAYqduAZyfOetFEmrUnU+3ykkxsx350YXHf1k+8WMznZ9qb3PuyMrx63qRi+rWcNQ/MHRGsDPXq/VZKKxB6lRxmGmABWAsw6CsdD0euW+HSMeV4Bq7tl1SJj21t/vJcGil15dq8n/q0NfXNzNrQ01vuUHiybQ6TFzGVPq9D+LLFpZy5LAb8YbtqWLqyYmL4wPHI4RQ8LzNbdj1x+8jG7ck1z9bsv/fPrGo85L2m1zOFSvKjs+ZnxNG2u7njHP3ePC7gH/dW9964Nho8kXug4NrI0QpZ0gawHv+aB3a/Ex+i8EMUh3P46QvphGRr6az4wMYb5ydalD3x+djHdHR/6ufmNF73vaydu6nq3uPMPxkSQASxINhsg7Y40MJGXlGIPA0MOg22IDB4Fu8ZKQ0bXkrZbP5mAH2w8/7HP/48Zay2em1Ha8U89kELcad8lsV5HblCfw0HCwEuIIYjg+w302h1xadCLGH7eET5vQBNGdjWCxdMQfXaCefqjQ/d9auZEiHb87p7db2wPuPNLyVjFwX3htX0ESAujzRAhBZJwmeHOKaRwyPt/eNEmfd8VURRIi6VuKYdWncIycQzHcRAGNH+rIaFRIhv3WegJUlHhsnUXjayDvnD90ke+/ELQnT7ZF5xx6/k9o/9S0Y0IAvi+L+WuIGJBj1oA1G1Qah0aC33iLFE5LDDgatBtD1o8gf5sBPPNkWW/+fR/X/XCglIjQBW6Ddn8S8RUUeTR2NKcwrFdRCHFjVyR6KMINnnWxDUDgzY5FHvpimdamkR4US1Y+cBlJ160t40rA+5G96WtjrFA3Xv1elzX5R6mFjbLg7zHZbgve983TlqTNm/Sa/0Ich0FCeQ8klEGkO2t9MoTxSwDhmUiCXm81QGPE1dBvTaLaZhEPVz7kQ2f/5NZ8fOa5ee2wx938Ef+8661Le2YAq6wDui/pGWxmGhSWIT20O7gPIRdjic1d6l9UFqJkAbGZ0BOZTCOg4bs1V7nwT/YU4uBOzw4u/EXFr37+mVx/0G3jQTQnEZT2B7dyTZgNdTJQZwvMlhFVmrFslWayQ4DLlkeGg50xi55+J9OWLEbL2vW3qp21t1FlwFXuNqVYWipmjclFvP8DbrTAy71FFhUnd+7f+5YCpwZv3fRvffct7F7VGwNAd481dUl7XCGWJnQRiZOE2RRJNKAPLYwC87Jz3UZoJXQiJm0sEDr3Lbxn089YdZm3B72QYd++Lbhbbn3rW5mHROzWYFmmFEE1zMQticFpulxI7Ms5EFpOVR5iVV2QVRJ0w00ihYW4bG7fn3FW5buYbe5R10OdTk2awtHOuawFhlNpSHhs2iWKznPKU3YaZ51lS5FHuPl/Z1L7rv02L0u4B75zsubv+577WTXXKhaviXAliLupYiN0qB4IeASUmDAJaTgj/167opmXDmvPPNf3rBN3+fmkWIIqVYH7NKdNKXEn6mq6VRQTxKYpQC0KPmzAkzX0GYNoFGkx973EH53Mw51Jk/+xWd3zshtj1rNO3AxB5z97ZM2Fwtuis0+gMR76rZqLooghOZQarIoNSBccbKY0vHV6ZJA7q1Spze0FL6WYLjYtvrA7JFTb7/qbAojvPB6mhFg0N2YLdzWrR+gp14firQljhiEEchjnhK/EbpU6RJM0e68g5fYoyvv/6c37XWQAlkKD8YvHe+a856gCqaOnor08hwNuFO6zE8yKaYkKRWgLR3/RSheJMTx6+O/mduAy4s67OzrV2wzFlw0mtYAf0Dp0zLjooVN1d1DpRgG3RrlA9tK1asyF2KrqWyuueBlzaSDRjbx8Ueue8uMqmztCVHosLO/MdR15n1rS2gtiUlHMi14jomYgRaOKn6VetByvaTqsFOONKUwhOPXEOueCIbzPzPciv2d0Y89cvmb/m5PuL+95RoWvefawbZ/2OgkGmUykAGpASPP4Vo60jxBQrEf6i9zwWY91JIxHFqfXPbzT75tr8PGX3vGl497QD/gtpYx9Hg9EYkylVvuXh5wn+BKolyiSoGqqkA4XRtXXFu2hyVVgI5E75lmApS8rk/eP/cBl8/oFR/6/k/WdK3XdpnlegMq2PLYK62CGkzPEbUuegZpjiEZmjjZStawvXdb3HeLFG4WwY8m0adNnvTg59+227RW96QA8IoPfOf8dYF3aeLOR5AasP064vakaLiyFq6x04UBtxLzqjzFqEBfpKh7Jlqsphu+jCG1IvxgHV7VGPHv+dSfKDHcF17PegQOOuPLx23OBm8zBw9CpxXD9ZtIohCaiFBrSJlE6BoMy4ARjeMAr3fvQ/908l4paPOq9/3riY/q+9/SMinwowKrOB2LuE/pZCIuuHvx64k2UFPiVJXTSeW5M42eIV2Z08TMSXXVmfGn4qm4MN84uO7qN89N48MTH8Ur3/+9FY/FzYtG0ibgNGAYBUxTR8RiGf29PGYHmYjBsAKsLF6mt1SWluOlU4GWdDDQsFFErdvs7qZPbLlu9jVYZ2K6vfiMfz8m8vf5m03j8bFe/z7odsng8Evfs0SZZIqLRTnhRfWLljWcIGzYpT5AAURtWDW2rLpKKzro4mC/dfuaTy09fiau+/nwnq8+5wvHPRy+6LauvY8IlsCh43Ip6EKGTW8cVj6JYWMc+7qteT/75N7Zpbfs4ze+8efj3vdaZr/S2BAKVMXpfm4E3McFzimfM85iZalFKynRGJmmFyEJjljwsE/TQ54lsBBC1xLRH/GDh+dWS+GJi/C1H7nrJw9M1l4bOv2IqTxlatBsCqnEgoG4ro2g04Pu2EJzkhOMeA+pdxIhEXGN5SRPIGRew4ad9zBfG7lt33zj2/dW0v7h7/3C0nZ9v4snMHBcOzHg1foQdDqC14rIuQReFst4ZGUEpQqQkMGE+0mvLk6EVPNlfCw6BXUmVNExizBgabdvu+LoPSbYEics4torNEM7Ns8yzRS35YIGyVpa/j0v8COt4FlHy10Yv/jxp59c3Hk2g/1L3vP1Y8ecRXd0LQsh8Rx3WKmGWQZqWhfOxAM4uN455WdX/M+bZvO6dudnHfXRW/7+V23/I10WCkE5VQaaMtPjBi/Ml707w+U9CQpXyVxPGb4qaM4UpU4VdPlSBpqFEvJhtl/4pVZwTwIu28Gb4Zo9K+DyUl/1wXvufaCNI4vBfRDRmjpL0Kw5aE2MQ3ddFDrN+3RodBQQG0Fl+ic3KkIilEvkKTlVHWy5DSNPUDMLJL1R1N30jn4n/8SDnzzl5t05CWfqvQ4/92tLu+bgJaN5Y1lsNhH3EsBxAW5Iug6H/lthCJ2to4aBJOxBtyioo7qadPRgFDGMnPxaS2kpEKpJutC8HPVkEsNae9Way9+8bKbu4Zne95Xv//axsPqWtcLslDgvjklyE2lhQ9MpAELzRiWNKbY4mdJ/4PeqFyEm4XDzf8P4iaXFmVlM3lg30zu1yY0/v28G7Yme6t72P+s7549k9UszZwhxkMHRC/QVE1hkbnnjf171jh8805jsyf9+xMdW/ez+lvP7kXCLVVRS9uI8eZYNNHtzwJUoW5qlkgnFQr2INlXi82VBVKyEKh3sUpye908cj66U5LoX9EKk+ngIXH7UniFA/sTJ9ZJzb7zgwZ5ziTu0D8LRUXi+LwI3MaOq6QIZq35kMjL0KloKT27KS6nSBlBOu67XhJ5p6E20odc8WC4QdUYwz4lX1YvJm9dccdoep3TFNtII3tk9Z+ANaybypVl9GEVsqXunuA9l37in0CU1jlBEAZx6HREzeqqsCX+OATeDnofC+5SACwuJ3hDakm714KVbMdhdf8H6a//XjLtLTH/Grzn9s8OaP3jOeGq/YVs3PyZzqYXsIIENw6kjU+ovigKYpjBtG2kcq69pqr5fWW5Me2N+X4KvZPYdWFoIBBPYp2nf6fa23lzrjF/14y+dM2Ni9k+cx7Sj6eTGEf0DC/TO6KZfPnLN3m+hfvJffqm21jh09SNd44hUr00LuOruCxpryrF7L85wJeCWiZs4SXO9VfS30lKdCY1ADUqTRAXjUi9b5AoK8TIEbbqYBmc9NHsb9rwMt5q0L/3Qjedv7NmXsrLLhai7g4h6XIiGOjqL7mjlsaWEoYXdJFYfBQy2C4f0paJCmgnTcCU7yosQrkOifxdJ1BNbGavQViww8On7PrV4Tt0JFpz93RPN2vDFY+3eYkMzkTBwev1IWOjSdaRkFrgeopDdSwysBXjGplEj7y1l9ltn5ZjnG7pKqJ2ZkoFWTp9aG6nB7qgA9WIj+jq/vWDjF86clWD7yjNvGIi8gfNGYv1UzW0e1Ql6cgxzPRs9iqAb1BimApcBeB53xbKLi0CZoq3JV77KYqqy/yltgKo/yzeU/xrty+t9TXRGx+FYNuqOCTuL7nTy9ifWXvnGvV67d66y4MGz7ijGjSYK6gXzsVRGGDxtkoMsFfq9OOBWbASZW4yXtIIndKlamBVWW2r/CmGqSlyFylA2g8QwLQMpdaaZ/6Q95Fct3TMz3GoiHXLGV4+bNAZum0Qf4qwuxTSxKqeqmNhTU/CZ2UyFpfCBlziK1IgMyXINzYJZWMpKxsqRkMNr5ELTyXNPZYNBB4NWiAHjsTv1YOtNdm5eNZNH0aPf80+DLaPviNz0l3TN2hvGssaxsd2POKYvFostKQxDQ0Y+SRLDFtFz1Uap6QZy3UFW6taSdkIbH931ZUNVmT6LZaUgTZHDyjhGOhLdhFNMYDh98Pz11/zpjGsjLDnz3wY2pv7ZE8Y+l0zmTeRi0kgLXKqfs027pQR0bIfpkUBAYkZJi1y6HBvE8KlaZqKoLO2nB9/tuML2+CMRgCuDxzsdcGpKS0K3pOPOSLtoZC305ePL/XzLjD7nuQqKM/W5r/no9X2/aS2c6JHzXVIyfzfgbjfZnKnrmLX3LZkHUqIXsfXKu63cWKYsl0oanARfrrsIpmUijdWJzEkDDEXr5rbT7NkM2ms+/N3hx4r9vrUpMI8BTf74dDMGWg0F3VZNC1kaQLd15EUKU+euwgU9zYmBXodZGZiRItcKsf+mGpmWKyM8g7ggjR/NDswigZsZzHyJG96ja/kPdMR3mMbk/1t72WnPaIT4mtM/a/3smvclb3/79cYjA54z6Rg0r/09+P4Jqd14I80WgnbndbmmTVORUogrBU5EMrHEYK08Eqqb2mxNJLoSOxf5RHGXLWDXGognW4DnSis0ObZKTDxXuEPQhev40MI2Bq0YVueB49d+8d23P5vx39mfOeYj326sj6wPdiProhg+Eq0hIt4ZfXIFb2dxhZSZ6hhWFl4kMyJGtvN6qpJ9iM15ufCrRigpdigjzJymmQ49/npoGN07rWDTxY987l3PSQrhzj7DJ/u9F5/97QvWFwsuic26mqNlhsuiLE+YKsPd2wMuM3QmLJynTARYiC+hA4HzEhSE6iSTT0SOQNNtBN0Euu0jl5/lYLBJy4OWBbB7Y4iu20Mx3Cd70Ad89Cc/3hLor0tIuTDIy83g12rotVowag5yLUXRY+brwPTrSEWLsHrwpEWxUq9wGAa0XApsBrTMlAo+F36mp8itcqHHdGNlpV/hghpxzzyCVYSw8w6GPNyJpAPHyIooDm6x632ntnvJTYZfPymMC3iGpyWhjtTyFreCSGyDosJAVmLQahdUVC2hVNPDXo7CpVoXIQOGWD7Yglm7QqwzTQUs2SBMFslo726pDDHqwbILJGwxrT7H0GAiRjOPME+P7+pueuAtG742s8aOR5z1tZO3eAsunshrR6YJN0ILmmYJ/YwFL8WyKe9XKCalH1bBzWTXj6LquKeenfpQVVlWuD//Kn4WMGwb2eQYan0WnHQURrDljiEnfNveqlO7OwPrU73XAefedNeoveiYbsJ18viAK0+V5fupdTcbV7T7P0NOzdLAIWKa00xUy+YhVkNMlqV5ei5EIEqcPzQLfr0fnbEJpfnChIfZrRamf7aOAAAgAElEQVQXbvcx7XBt69A9c+lptqNDdeg531z5ULtxYV6br4JMEik3CN9Hb7IHZ3g+Ik6EoAfYZZVxSpNe8VEVuM2JQvyJOCihQho9EheNBZJQWCGPtvyqeHdawQAh+ZlkSCzisGpOVbNWqwXTtFBv9KHT6cD1a+j0Qnh+DcHEBMy+QaT8zJCBUAMscZZTAZd8zeqaykesJmyVofMv03vSS3C+dMegS65sLWEAzSxQdMbh+S6op0CPKRrZ+ckk9g3Xnf/QF981oxAC21yzgUO+u7GdLY7dGmJuDqxWC97MjFuJ5NAPjJvLdA4jAy2LelMBVyCjqV7JHZsq8kzVVka+JMdX+CxVIOZ4ErYgvKAnMLIYWhrCtTTJfH2t9/EtV7/xOd+puGODCvDk9ljt8Ns3xY3F6gQpx0Q5aivaoSrOV4L2O/r+e8rPqwYqJcTDhgWlGV0mAhUnVxDNTFQOJTCn1ExQbjW2Qz/GFAnXpJ7BRweLvODO/7rs1GOf6h73WHVLtrOG/r7f3BbmS6NcB3X0Y+rdOHUkhBKoI+C7KEibkvVaHgVoDE+KR7X75mrnkgSL2THdVjVmwqVPlV62YTIrZrCVgEs1LanMIRfKEo/sNmzHRdxpi8COaWiij2r6ngRl7nC26yOe7AK+K0GGmKtK8xjICbpO98aaniGUmdqUCEqpxlQUcF0XYYf6wAxohVgR2TVFgTOYzWs64rAD104xnG1b9uAMyysedsaXj5uw9rttc9eCMzAPUcwNrMTRq2egSIryqrjT6isz0aqRhaOsbMe3W8Lu2FLk/mWWxHSVPVc8ySrzVYvFcG1kQQumaAIrDC5Jclhmiroxhr54w/FrPzOz0MuO3dnc/vThZ12/ZCMW3kmnB+HBcw4/JwNuNfVyFGKVpIQRVG1MnYyluFvoMIkWcp05BnQ9Qa81ipqjwUt6aLjGvYWWfn/tFac+o53SHhtwqyl34Hv/9fzI2/fS8cSF4fchjqiEZYtgk+guOAy0zGxMhamwIUBinJxrYbEoJVXHXKqOKQtncgTlQJaDKpFQUUIIOTBb4pFYsSG4retAFCqdXmKl3TbgOuohtHowTAe26yGIGGBZfK8jYJAUzqjK3uT4W76UEaU69KpgzOtT/16ZE/LvBe9HFMF4j3TL6KHhWWiPjcHqG0LSbaGBHoaM1m21aNsfz2Txj9f28tP/5fht+sIfjhvzkFCeUHZA3guzy6pwVzEKOM48YRAyUc4TcoLISfzjM1FHOT4ThWXv+Gt6B5CCYcp4LtejYCXZN6kPbDqwbBdJEMFgtpIXKBAhTycwXLPgtlo/PMgc++O7XnAXwYHnfv+CLenAJbRHF4xcJjBbxadluJIIllDOjj+6PeM3Kl0ESbAyyVK5/hlwc0l+eFpjgDWRd7uo1UwYWQ9JMIL9hut3u/G2m/fTxi+/8VPPHrp71gH3sD+7cijNg1fOc4xf3nPdh2aVVvX6s78xNGr23zCe2UeJq4HuwasPoRuEMFnlloBb2jfLBKkEJjJYWax0SacCrqO4d6yST6d58B1KnLEoCzlckpxlmhhe5ii6XZh9LCLkpeZDgka9D0mUIuwFkgW7vouQCzzXhLJWpJHEfwYWxR1Wcn5TLZIlA0M2V2JFcmSrMFyyL3Rl7UKB62ASnpULW6oXp1jYdFd5rbUff/gzb1s90zP40Hdf+7GWufBvxo1hRHRfphkoW1qFusZTRVaKVHPTYVZEeIEbRvlVFq0cRoV+wyYN+ZZslOXindJXVfQ/JQf4dF+337XgtZVXm1gIJTKelukgjiIYbh0ZG2zKDkU+ay6wnKIjQQhfdzGvaGNB/PCJP772z543Pm5PNm+aZ95SROY8RISJyoSBrb2q6KzmZyrCUhXWOdOzb4bef0oRrGIccG7y/vhVJWFkwDRcG0YaoG5EP2payY191vhld/3dztl+PWPAPeKcfz9l1Ohf0dVqi7Ncg5NFaFrpHWg9dtHDn3/XbTM0FE/6toef/bUTt0bNW2J3HiKtoQTiSgHoQlcYqer55v9WWSWvIAYuQGFslzgjtQa4niMUhBi00gJdfXPq87kwc0IHni8kfBL0BUw1DVgObVda0GxbKQxJJkzM0IDhuMjEP4hMC75dVY2vJmoVdLdnudWHqmy3gkgM1Umn5TCNFGbSgYcI/VZ6fjG58Z/WfvHdJCrP6Otl511//uawcWlA1SizActvoN2akFsySVPjhsJO4wo7Ly+dVD3RJ8v1MmyWPegCQUxbsOUmVG1Gz/qr7FJ8nip0i5ZE6UashFbKXkz+gV17bA42DRRyPOJzJGXNmaLnoT2KwbqBRrr5/Eev/qMZxcFn9IHtwpsfcub/OWqjcfA9QWLB8upIKUFZrgk6gQtUVgVcKX3sPMtkFy5zN/9qmaDJu7KEnsLWQjhFB24yCb9or9zXz++467I/3WXGz9MG3CPO/D8r1uX1izrWMBKzXwWypCMZ44Ceoi/Zduuwve6tP7rivNZuHoGnfbtDP3THhW30vWksxOti3S4DKycGWQAa6DPEgDslWyjHXQY/clQJ3qqgq2hLsexoUwFOOkvUEVhw3DyDZdCJIgH7/BmYE3JdSdci3it1sVINn7J85NPyyEpjxhJor2CDauLK5z5ud5XIMDWxFSiqgggpKUbOxo4Avhaj34lWJZPrTtswS22sh5z91btGs/5julo/NKsf0G1ErRaspid8YUN0dw0k7AqrKlgMuDwlZBHMQhemheQQmla6IpRCL3KLxNMVe4T4uVF2+1TQTjVm/AkpuMnGyKyYFHUWOlQxQ21oqvCp1k3Jl+QD4pGAG6HFEwOfFTcv1cUmjkNiDpmor7R7yjs4wBi9Y3533VvvmaVxns3183SfNXT6N/561Drwb02TwTaFLmunmq8KVlC0sKrTc9cC7uPEY6SRS23EskSECzvVbbFdIrKqsUqCVR5Up+ofqhusSnK2Q3mPL0gLHbHkcVO2lIkb2U20AHW1CHW9e08T7ZW/vuK03aqF8bQBd/B9q4qW7SBlYYmNAxwGM5FF4sSAm4WoecnN2eia07Z8+c/o5TJrryNXfq+5ccz40GNp48LC7VewArPPJIdmuNDJBeVcoKGfY6Foj0OvMcsJhfqVBV2VmVIjtsSpCvJ+K3oYHyQpWeWD3C4yXalccOIxIGZIchWMi1xjN7I0M0gxLeFYTavA0wrHNJHyaOtwTAnNshphsvojGsFWvY6k3YbGYJ1FcIoAHnpoFuMr+rTO7b+8+k/vnK1B3vec769s5bULyauVICcG4PzKTFVNWNLcWERMhcOouLWSObJZw9SluOfYOrotYtoaLL8mJ4Gk24Hh+SiiBLZGiKGHPje/287bN9aMqPCNbFUcBZlh5FpemEZm+Et6CVbn6FsSG/4praA4JtEsZKQO6iYKFhW52XEhsYrMQiYDqGyw5KcTx+U1atJrwQDLwieDbsKTCRttOA9ExzaCl46hkY1i0J447v4r3nHHbI35XH6OmEa6L2q1MChrqMjJuSlpU6wpCHdHzX9RpSubA3b2mmV/LusXKvnRoVNfuIQuMj1BYrE5hp9QNstkzHB4BUr7oAq4muUgj1LojilGBkjpHsNHaiGTUzDXGOdILP9bFncOdqSyIAYYaQ/zveLeZtq+wArbP/3ZDLVnP23ArZ17f9HVQ5UtpLbK/Az1ALRUh8nJmnQwVItvGm49+Me//fx72js7+Lvyewf85a0r88I6dbKTHGn5/YhzB52A5OQacildFwBlH5NAiUzYvJ8Ipu0iFZ5hufuxOBWE0Ml1FQiHmawuQXn7a/tOqYlb53ZzPS5e0sfoYtGbnBSLbWKISZqITkQwNiYPnZZCVEPjccyt9yuXYuqnMgNMArhmBj1jRhtiwE4viLY+fNW6r5z1pPqauzJuT/e7A2f9cHXsLlzcJSOEBRPEKruRYFvB3wr3zpkdUh+h3oesE8Ko1QXri9stVcPUMvgusdwEvfaY/L3hW3C04sdOnn5vgeFdcc8Otlu/6PTP9nm1A41EN9/fzrRTR7vp6+36MDphDt3vV27FbLecZlwqGyAXX0xOswmdZPayhTOVYMxsmQubeHQAN29h2OvdPbhlw8m/nOWEYqae69O970s/cMPFD3aby7XGfoqZQ7lUttazgag8WVQnQaFYltnlzjr5Pi7gSvOKAT3TQYo8sdRcTxDZTwi4qVU6CBNmS+GaFgJqavN0ycjJpCuN0ddXFxonN9mpzdjQxe2k3zXQG9uImpmjz7fuyYPOyvmGce+PrvhvM35Sf3oM9/SfktlfBliV4RalLBtTfy4qz9aQ9MZQt3FrM9rytrkU7lj6wa8s29Cxlra1vktCqw8hHNXWSzKQcOcoPaAoXJLJsIVWqLiuai3tBNDpfCt22JZqM2W2Vh1XhUerMNcpRSF+y1Z6B7LA5UMkPYbpulJcY5ccA7NN6cEklazKIPZpGAjjSL4WKQVoAgz5GoruJgx5vfOtdPzqX109u4GWl3/oR3+0+oGxYjHcAYEQKqcNxW9WTIypHnoBcEMYBnUemLLQcZmLVIPte2IQSr2HPOrCRYCDBqy7i85jNw14xhX37Ebr8Nede82ysaRxbMve7+KJxEOS6HC8psBCITvymNE2fMEkdcdAnuSysRpBIBlVLJDIdjiJEI+JAFY6ilcMhyf95NI3P+e70/Y784Zi3FqEXu4CFBayDdloFeVuuohLAY0nGwm4agPe2dcUJFB2C1IdkD0VhKF4ioostmqX840wn6gHFpCaDfHkMBVRfmm0MXTE4iSjID4RQQojmLWaKnR3W/D1EA09vnu/pnGz2d5wxWzLuD7lUL3o9Jv71rkLJlKpPrPwQe6nwkeUTCI7tHIYWSpdGAxiA2bvts2fOmaPMHh85YdvuGgitU4eC9KjIo20rQZ67RBmfQC64SHuMdN11TzhrsgsPklgNPqRMRPii18ZqCuNzIqrV7UDShpcEqYZcPmzPJZ2u/D6BxBMjkM32devK1aDVsB3Pema85tNyfYGa9ywJjBQ99jddgHaW297+At/evfOTuBd/b2X/eXtqx+Y0Bdn3nzAbqqxkT2mkq4rx0aU/wmNBzDrLtJ2G5ZLzQrA8VxEPCmQWE6aTTSJhTX9zn60Vvzisj/Y5cLD093jK8/8t4HInnfm1q75idRsIM4ZeBu8CoS8VsdGzEYaPvuY/YxkhpT0NMneS38yWRkxnKKH4XTD6o2f+eMluzq2e/LvH/HBb568rlO/cTzvAxrDok1CNTaKdpCjKo0q0lBSCgwRexfMvBR42dWbk6BKlICJXCmxwSU43TqqzHyJ3hNu4MsyLMQ9ctMbiCfGYQ0MCBRCdT0eqtjooiVdzGu4dzXt7If1cOs/786Nfkdv+ykD7iHn/mtzTX7YZFZ2miglKsYMxXdMSh4eB0hpHWRyYy66eeczJ1Z16h29nt3+80vOvGqg7S14dSv1Lu5ltSUTEZMz9kFTxNyAzuIaO0lMA7bnojsxBs115O/8vkrvn2KYuLVLPz+z5TK7lXVa4odposwx2S1GSUGhLeaS0RJvHrBCNDu/PX+hG9xx75XvnXFq1zMNLoPtw61sceINo2CBrJuqbjmBTVjZ5wIrV0CJrDCrKOJA2bMnPekj4wYTlzbsNfQwjLHjH7rytBkNtE+8t9ec9ZUlE878v9mWeUtbkQZT02FYnmgvm80BgXsVg4QbIQMK+cLTCyvqz6ZeoNZdj8PzDUPP5QLa/D//Vq4NvljbMplCqw/KBlu0xqHVnLK4XGb/kmSozkkVcFl83jketQxwJbPKZKZszeYfpfBNpHZKD1kVvEknZOabMipTnQsWcp6sWBwtsXtpdGmPoKn1MM9qL1/kFnfc8Q9/NGu1j6dbZ08ZcF/1p1+qTRz8+h+uG89fz2OimfHoxeofK8W62nmkA0V5jxVZDMe3EAUtDLvhbSOf3DMy3Sfe/MvP+R6FZU6wvfqp6zZufQ3BdipwEXaIc7bruUUvTjTWyzVajVdqZFPNChWfVMqoSiGQfNQskSYH5keuFInGUfN5pOkJwG+xwKbnaNTc1VHQ/X7mh5djZAQjc4R7Tx8XZoVx34u+u2Y0Pqao9SFhASzMVZ+4bDq8ScVr5UmHeg+qu6yET+Q0EKDGomTaRdxroZ985Wj8gpq56dNrL3v3MwoBPdNmsLP/vv85X1+eeQsu3joewG/OQwzypMnBpeYDC2mVkHZ52pnSQy1ZDkmBpt7Gvq1fHnf/l09/ThbPXvKBmy7eFrrLJ6jF7A8quVdTKyFRZriy9UxLPLISUlCZ7y4F3GqTmxL9rhgGqjmpagHnGmJnJb9mOvHdiolSYu5xgEbNQha20XS0i/vM8KYsTH/60BX/jZnCHvN6WvRlv3NuvXtTsejoQveg5y3VQFBMc4nlbYQZ3P5BhKMjQN1THT7ROIacqHB6m+ZvumbP83NauXKlvnLlypySgpM6Xhkb1tK0sKhycnKU2lyUS4PcRKa7SHJKJCr3iZwVINmGy8w312DZvrT2FnFPCV1Q0Szt4qAFjbujyc2FU/RubDrFqrjb/sXPrnnf5B7z5MsLYbDdYi/67lhsHkNSjO03Ebc7ol/LDD/jpBcrcMIDJISrDryUIjU0pWTV3zCQxiFMmzKTEdx0DPvqkyc8fNXbZpWn/VRj+8oPfmXZ2nbt9p45BM1uImW2kFvSLQiUNOaCLeB8trQq2q7aBr2GejGBoYlfnPDol2aXdz5bc2Xo3NXFaKDB65+PDA7isTGYdR9pRkYPsVTO+9LSSuoZMxBw5Wan1UZK00p1oiq1aoXKlSq6p3SMloeSYBz7e/HygXTkll9e8bZ7Z2vcduZznjbgHnrG//3rR/VD/zYymtAKlamJn5hkOIrupJGSQzy0VldcRmoZkHqFHP3FGPaJHj3pN5/7872m4EDhDs6uDYGnNfqHjTyzXsXNPYNladCWqa429oVmhVYYd0VZlml5UlDzwNeTX9/3qVNntQtvZx569TvccB51Fn5nBANLAvFnolAQMdtM8K8kSVAYKrAK6V1j155KGGKN9j6ktilNWpqB0s7HRRfzjPHj184yhPBM4/DqD3yzf0Qf/s5jHW1p4Q0jL9wyY6sKnaSEFTCLrsqiSM0k7JRYqJtdHBg8MHTfUyhAPdNn78n/vt85P1i+FUMXw6ohYRcnNNiNBuLWOHRLQQVKDKiEXKRJhXz3qlNwFzHcKecWVR9SQWUac0g487wqpYmtGDKVxVaEPmPijr5o7LSncsnd08b+aQMuDf42RIeMjxSDsF0XMSvOtL2p1VBQxIWtq/ye2oOmyQcRb0lh5xEcLUBf+NhH11333//3nnbzz+frYWbbdfe/4bHIXhwafjmJK5ESCviUuqeGp2h1SSxSdp6VqsxXiPElrmCZ0NIu5tvh6r7umj96YA881fBZ0wpnsz7/exMYXJrT8020N5gk6EA7hGWZsBEiJhZdayAIMxhmHX6wCe1rn1rFf2+dR4ee+dWlG/X9VnUN8thLDnXZFWmy0j8lcTo9w1VNLXqeTLWs7wpLoRo7ZVBZhhCJSmUjC/9I7NYwlb4JL0sCrg0v3oTD8eDSn13zrrv2lmfwjISOg973tY+OWwf83WRsAy7dO9lfnKjW1Zi96QTQlbeuJL1PsNwgR7OudzE/XvPXj1z3zr/fWwbmuXyd1KYY8RZ9Z0PHWJwblhL0qVqJp2k7KPxM0ekMW0MRd+EYBQLKT5LBYJFnbKDojWPQCu7e+qnFx+zp48agO27u8/2e3rdksst2cIigOyINukFN01QaY2LxVKP7RIb97c5Fj1y5bOWefm87cn2Hr7zenugcdMtjsbFULHQksJVMAZEtVJk/s1upTJS60urnKPCuYDW2dO9KwK3U5NTHV6JODCZlS36WwvSoi82GBQ1wfPlqGTYOsEfufPgfX/OUUog7Mh6z9bPPGHB5IQef9c1iXH8RJtitumAQCdtWo57q4FKVE5jstpK+anajEO2lWLgJg+A7O0KiUVqY37ruqje/YbZu7oXP+d0R2O+sG47f1LV+aNfmo7A8JFmqMDpimIKhVWyEsgkgTmD0s3jWQzY+BrM5Dyl/nmdubr7dbZjfKFZvvWzxXkObOvKdlze7Qwf9xzjqS1oG+/g8ZFodYJMHvYvY9Rd20LSAQVu/d+2nXn/0c20uveSj91zwYNe/RCnRbde1UJ20PKGq4/3jAy7P8yqxUmL51RF/50dHNT+ooK0Cd2nqWLXjZ4G4eEtma/jsKYZNFszoFhzSaB//0JUnzSr7ZefvVP3mswq4R3/w2sGtxWHf2pw0l3ajEHqzDi3LFW2KdAxW4bMEpujJKtdYwfikJTiH5pgoupMwi0m82B+91d72m7f/6isfm9XOqV0dqOfC7+93xnfOH7P2vzQ0m9JinLATh00blXyizAhCRBWGpsP2fMRjI9KdJ9jeeBdasw8FVcKMBC8eyFc/vPKIvSbYTn+Ov3/Ol85fG9YuHdcHUDjzINZOugaEk6inE2iig3qOeQ9c8wcjz4XnX93DK8/+92PXGi++o03/QDnAbNegqALu9PtVGW6pcTBN60Cy0t3Q3qs+SwVvFXClm0Z40KaZIhU3D/r/6RA77u4k9nFCuJ3ferMh3rQ7n/2zCrj8QOK5PeOlP9iWGkdOxCTAWTBMF6lUdrkjJuIYK7sVM1zNRU6gXQwe2S2SwrczJN1RDGgtzE+3fOTX177nH3bnzbzwXk8+AoQQ1qD/Wz1j3pJuXLqQknHBYMusrqw8y28rZR0pkMkiEM4l3St8VVSyCqTtSTiOiUFM3v3Y5Sfs8TDC082L15331cUj5qK/3xCYS1KrLvRGagzvb3fu8XubL/zpZ99983NpXrF4+Girbzzq2wc92lOJjkjJga1gwSc4jwjdfEoSZLvanUyXqhloJwdJxGoYtKVzjO/NzkZ6EBKmTJCnLZi+j5QnkCgTIX4v2or9jcc+9sBVb/27nfzYOfu1Zx1weYVv+Oj1feuMA37w4NbgKMubh5g6BOxhLjuxhKepZPzLlj9WGDXoFImJeyiSSAptRtzGQjtAPrnh5nla+ie/+OLc8TTnbORn6YNffMb1J2xKa7fG1j7INA+m54kKFHF4OB4QV8WJsvgpNBwVcKUyTH0Huu+aNSAKoFkRBqwEfdH4ijVXvfmSWbqNGf0YMlOigYNeN9HLrLrrnuBFk6t+fvlpt87oh87Rm+935m0/nDQXHN8hdELBn/K13ZGjatWtoqyaH9Ntkqa6yyp95529F9HYpVwAA39Fl3WU6DdjK0lqZoJunKKwBiQgm1qKevgoDmj+Z/2X//hXsyqYtbO3Of33dijg8hdf/sEfDHYb+39vy4RxJH0NBf6TY0XZ6lkeD1R3EndO0sRyIZqLSaMIoGgokgw1WsUEW+AXW47f/Jm371VYzO4Y/Jl+j4Vn3nhBaNQvCTVXElmKeIgDMDdJyhXSgLLUkxVX3fLF51ktMIPqZrQf9utA3IMTjmBfbFux5pq3PyeC7Uw/gz3p/V/yoR+s2pzPW9pOTSCIxSOQzT4Kra2KYyW5tbSGUk4eSgSomhNKMaxkNUzpPO/EnQrXloGd0ZVC9rlSJcwtUEKBOLGBAN20gNF/ADLCmUkLi8wNq9ZdefKynfjEOf+VHQ64vOJXf+C2/q25851O6iwNNAOpRk3aSp6vLKawM4lteHkCz3YQRKlSzqI+AduFnX4g7Eqnj5duwzyM/PW8ZMtn9sTmgDl/Sjt4AQed9x+ndvSFF7Qy+5g4yWBYVEnKEYddWLUGKCSvFNBIAyv51NMLF8K1LD80DmE3fMRBD27RxYKitfzRq//g0h28pBd+fI5H4JXvv2HF2nTgojblDZ0aLGol5FQBIwFQwQQKq31CwJ2Cmypx91LYfXcE3FL/VmAJMRAoWU65Dova8EzUtII6dUjzGr8BP92Cg/31Q/ftRuGj2Xw0OxVweYGvP/tfhrYkzsg29wD0jAEg4JbkqKyJlBEWX4oUJsWz5WkqmEGscER/tKyOUrErDdEwenCSUSywuifed+WfPK8tTnZ+AhTavHPvXN21Bo7uZY7SBpYuXMWr5Uu52qo+dYmqWQrLMpCyl4PBl8dM2qcI5zoSh2C6TLhFB/sanRN/+8Kz2fnHM0e/efR5X1/+X9HwxW17WJTqlABsKVOpmcolZQq+r0Qypl/sNE7s1Ld3QT+hfI/KskfZY5V29zxpFTEsMUllnGArNuXDHDT8FIO9B+549Oo/PG6OhnKXP3anAy4/+TWnf3Z4vblw29akgVpjH+Sah4CutbUGQFEQEQHOVJcSRS7Eq0sv9U/KSrjuiKN4OroFjT4XTtaGlWy7bZ4VXvrLK9/xQuB9lo94/3f/2ylBfdEPJrQBpAGARp8oPjFoKifiKuAqtwTh3coRLhLRdaH3CeOkNMx0KYAewMrb8LNRLLS7zxsh7mc55HvFjy350LfO//VWXFrMOxStglZQFABmNqmKosIKmO6WMIt3xc4xZrHke6c6ZQGYB1BdijltosT/cwem6yNstVGz2zjcWrPsJ//8zlWzeJm79aN2KeBWV/LSD/zgzk1hbUkPDeQWu5Y4UAGMmoOstDHXaEgnykJlVVR0VXNF9WC2S7J1niKPIzRcHVraQ90KfmikI3+87gUn1ad86C8/51unjGjN5SmcYzqZjgj06PJVd5jksRT8ULxK5UKslPsFu+XT5+OIQjheHVE3AnJT3CYsz0Xa2YoBbMW+5tbjfjXLrgeHnPV/TtZr+y6zDf+UXpgbcaq9utNtYbjf/5FXtC761WWnfH+3roTn4Ju95Kz/e/76XuNSo7EQUUzHOYrT9CnXg6IDQ5xllFbGXLxEn0P4vjpSeCUdWAmLVy8tNUTiQndc7GePrl7/v1+7V1IQp+5ndw30oWd/b8WY1n/RZOEhEelDQgUxYFcC1mbpV6QEhClsLN5IHG5Wy+2OqVQAACAASURBVNMMeZLCpgU65Q3ZqW/G8PQAtWz8Y5uu/MO9jgKyu8b2yd7n1e/73Ektff6Krfo+SzqFDZPHRLIXM7pQaLBcDwmFtw1D2b+L8Ad9iOluW9JvpGeFgux0ushg+g3kiSZ6ogjbGLba6M/WL3vwutnLKI7+8L+dsj5srmjZCxe3ehoszYBrewiCQEEfSYiaGWJRI73HCtas+PkVe49Ox0zOhye+92Ef+v6FG9L+lZE+gEyzkHe6sFkkYyzLErF3o2uxFFPnOOAqmEu5rEwJ3ItJAP0JFbxlGBoGwodXbL1m72bG7JYMt3rYrzrr+vMfivsvzfsXITbpLUT6USlIwcyJIvJczBQwF3hBwYVxFIo7guioxrF8JQE9p8eYqaGIAjh6hn4zvmB+0r3qV1e/+XnbNMHML7bnregV1jHtooYoawCGKC0LbcvzPQQR4ZwCKK2ClPcTj5HKFkVsySsxkjSC7fiIqX1r16CbHuxoAgea43cOdjf80T2zJNjymj//9Mm9+kEXbgm9xZNFHXD7xa9MhGtpjxSOwSxi+FqKNM3RizU0rAgHuKMn3nfZW1+AnqZF3EVnf+/uEQwdHZK7ynnABiTDhG6ZyNtjcF0HaWEiJT+eaW4lGjObO4JwfkvmQ8GAO63DTE5eJdQRE1oI0TRjTFzx+t0ar2b5dssT527+1EPPun7Jpqx5Z4fiIDzactEIFqPUmKxSFKPqvxZH3CRRPdnMwui64PvKdYEFOKEwRZKpWXmIWj6JvmLiDj8dv/Q3n3vXXqNCtqvD/PvnfeHUjrnP8s2hu7iVehIcwazAqimrIFqhxD0phFkufdRKa3Bxr+C/U8FNUfVUz7qa4C4znDRHarpCGTPSAAc14uUPf/KYWWMivOK9n125VVtwYc9egG7mQrPrymCCsAedGaja7+QoOqPi+ET+d+YOg2B1Q9uKZrzx/I3XvOt5aWs+fV69/D3/NNhpvPbbI9rQkm5Q6g6wPir2T9RAIT6aoVGrod0OodkOCmomzFHAneL3sqA+1dJbck1ZTxCebwE/nUQj2PDxLde95W93dR3N9e/PyI5B2b+N9QO+sSmwjos0v+weUYiisq8mpkhB8wI501ydOJIG07URp4nyF+ME4c8nCSw2TkQhLD0X4jPlH2s1C0mvfUfdKi6yivxnD82CAdxsP6zDzv7GUAj3PKtv3knrt44cnVkuLG9QdHqjVgTUG4K/cjwtcmdLZwoh8JTjqhg/lUJ/Vioy8TmYgudYna4Y8cW2DVfvoC94+KR1n3vnrG1kB59326VjqXl+L9eRmwbMej+iTkcZOpoedM2Q4zBdNLzBftFoTch8sThHAlhZhIYWod/KVj1y2al7JTdzd8yrl7/3+hN6Ay++df1EgVTzYTZYPO2q4rWYFacyP/LCVnrycQS70USclHrAu+Midvg9KvYDs63pGS7hr7IpI8/Rn2zDq91HBm6fQyH7Hb61p/iFGQm4/KxD3nl501748u9t6DrHBHq95OpW1A92pAXqeJvrMC1HRLx1W1nPSIAQehltyGn2GsOzdKSJwnbJdOBPUQ+A1j9m1kaf2VnuF+N3P/wcYDYcfMa/Ly/8g07a3CmWFnYdUZLA9GykrC5Tv4Jjw2MiFa1AK2sF26RpBsf1EdDjqd6HWMaLr2picyJXtB9dVPsH0hxW1oVlx3fWi/HT7v/0W0d31+R6pvc58K9+es/GjnUUHJoABuJYLFoG4qDBlvBMYChLt2CaNnq9ACLUm8Uq401C2MyCkxisv8+z07usYMNpe6o85DONx87++2vP+tqFj2LflduiOmDUYHnE73tiAilsBI1SipG0aRccV92DYdnIBOOfsRDw7G6nyq4pCC85GSmlJQyJFG6aYEG+9Y5HP/OmvZYKNn0gZny0Dz39+iUj5sI7W9aw6JPbnoG421b4InEapmBcWHTijBOR+8vE895SCkLyZ2I9ZeGHP1+qwStYgpldJMLY1PB0cg2ujrtsZBfr1vhP1l522pzZuzy7Gad+6tBzvvfGKLeWh7l9dAgLoWYjZXYnDI7S7qUS+CBRvHQQNtPSBFHoBsTC1PtRNVNyW81A1gtQm7cA3clxdUTnIut14TgGvLiHgWzr8jWfm91mhoM/vPqex3rGUbHeRK6xsDet0w2q5VNajMvNZIqUPzVjlSA1rUyzKIBrW3AN6jxsw1Ctt+LRK9/ynO+Ee93ZXz92pKh9oqU3lwRFHTHdWEqHBHrLQc+RcCKIIo1yatDzVNnikM0ic6bS0tiR2bobf7Z6njmfecVQ4/XGcPIQbjiOg+yxE/7fVe/cI9xDdvXOZzzg8gJ5NG6Zg9+dyP2jc91EnGvI9VrpiqsgBk23USTsRrOQJok6/jDbtauMTDmEqihSLUgVrwsQp2SjBeeVCYMOBNRb0WLY2uSdjh7c6BbBnfU4/NWv9gCK2WtO/8owav6544l2SscYIEByNLu/spwmNoaEmMdrjFabDBkG0xcQG0tUi1imbfeWEn5jFaw06/9v703ALavKM+F3z/tMd6h7q4ACgcRgNLYmispQhVUoIJgYNXlC/91/+unu3zykcSCWVIwJgaoCTGtjRJDBoe1+ujvaz6PdMaaJgjNDUWjURBSjIoaxqOmOZ9zz3++39j73VAHWeO85u1jngaeq7t1n77W/tda7vvWt73tf0WwLWh1YYw0kzQU4ngnfjIVacbXbu/Dnt79lxUII7L4179mxY66VnG16YwglP9uCISRI4uLsN6YLIJbFdz9dOXWZTUVkjpM0he9ZolOWhvN4waS5vTf70Ft2fuIPjyumr8I4L7/i77bsjSe2zlGZ2HBhUBhAKggZPmAJPQ/LsiXAlS9yvHCumIiFA1edqwwvhpvz1RRDmodn3OHI2GV2UhOneb1vPnTjRecfLdCNyvdXBHCLl33Fez539Y8WGtem9ZORGVUJETgsiOLWl1sKHuQwRazThukYcGwTUdBbktUQieY8tpPzdcoUlb+rWGZReChfMjJ4DmOVIaIwEAmgiaqPipPuCIO5u6pOtv3nN/7WMoBNZmzc+k3vpztbpj/pO0k2+cpeFL/OdNyLmq3ma0R0kzIlroteaCDiYiMlYTwkyJ0OUJqeC4vybglKBBz1b0Pi38LIbwZKUI+TR5ifckZ+UaSlmrKPkDFRZoFkEWpWADT34KSqcd9Pb734vJUeiKdteWjHzsX0bHqwYUiyb7VQFJyoS9ysSmpFTrL73npBEzgwbEWd3kLMg1XFLYiaZ6PXXMBk1YQXzl391O1vWLEDwOW254s3fXlD2xh7/0IzXNezKgg9igIwPNSFlfNRy3Jr5iQ0lDOXbACV20qHVy3Hqtqwv4Avd8Of6/6S/gXYzJjITMQ8LJMdbRdj8RxON+jdjoY23rEw0YoCLhv80k2fXTWTnPQ3c1HtvMyqIuwtwh2fQMj0FZ6ok++SuMG/J5yQCkQIOMr5UR6xEvzjX02pt6YnJJFdIdvICXKY5C+UvS7SKIVbcRE2F2H6FtKkB89I4CYhkm4b01OTcC3zAcYFQfmQNMosI/oy0lggzsqSjClsHB9pEgnE27YpsWdmLpn+GLqZZ2Ru4xKzMoVHHt9ztlWbQJTZ8Btj6DWbqsCD+cmdNvzxBnoLizBYKMKbSgm70gfLX1i9m5In7ZNEE3CZm8jqPRJAx1aMjGWaeUghN0ouAZ4iSxL4jOXFISpGALP1NNZUkgv/6fbfXYaF5hcPyTXv2b5jT885WySfHRemY4kkWv/TH435DweVRPKLlL5WHmLh9Rw3tCs9N9OEaWRIexEsty5kJzXPgh3twap0d6kJd37jfZ/fuCdYdf3OprfOrk7xYAOJ5FUrgOLhGAU+1cLMwpY8JppRGEDxIIgQqoDtUqHD0dIrHjUI5WcKBFyO7cj0co+7i/F4Br+S7J347icuHTnx1SN97xUH3KKhL3j7166as9dcL7HKkClgKWzHQNztqvguT6klIMnJRCySzF21Ugs7GVmOeOqqYpcmt6VGpmKXkuertuUGY5hcPSmIR8lyz1GHdXECl7mJkvwfo9dtw/d8kOYhYe6fwXmsPFHlQXBimzBNCySE4c8dx5GB3AtZqVVFj7lYpo04TaRay3IcRHwfy5VtnmPbCLs9+K6HKAjhUvGXhQb5IpKaiXrlQXk48eq5XVRVOcqbV+8mqXQFiYhU8OUTSQhpJMNdJGPspA0rmMVJ1ezqn3x0ZWO1RX+f+r7v3/90OzsnTWMp1QxZZkqpnrxgo7/Q5BwcXCklXTgPIxUxaQ6GWBaoQkXWUdwdMVMHKWbpIGmHqE0yZr0oC49phKhXQhidXVjtdLf87NZLrz3SCbPS3zvlXX+7IWuc+P498/E6w6ojkTgtBzCT2rn6cz4UcVjaJZdLkmpPpa6rhAEo0mEjZiqh7KJUBeLRyOMcE1vkOzpb/KTCw+XfA9STWZxu7j3/hyMmSHo07z00wGWjGdtN6qd/cedc8zVe1UM7TJBxC8xJFplAfZxJl7mGEsksuFJzFeevDcUJIKhKwmLlCfP3ijg7T4GS1V6BqlPzEfVacp1leEi6nKQmXVVJPYu6HdiuKwcxLMDwHEcNbkK9OJ8mDKE4pEfBqg2WK5NsIy/Q4OCXC2MJF6StRaDqS0yZIC58nrkKhmkQfANYTk1Aln4JAVfRCefZBEV4geG4NFZlkPliw4povpgBDxlvkANzfwdgpHDSLrxkEWtr2f1ud+e2H972+18+msFyJN9lH7drp3/hiYV0HdwqHPaLaSBu9WCsmkLGUI+8Ss6/Klpa3F5meSiB8Ui1kIjsi0GGK3Ko5hSB5PN1HdgmUwwVp6+kxPHnXiWXcef+J0YWNtEwQ5it3Ti5mm6tG61bvn3rv12xrIxDtd+Zl318vFM77dWL1sS1u3vWOakzLl47R4njOioERwIS0Z9ToaO+51/sAGTRTcVRKMpn+yQx0pCcPnU/svFDbeGxui4/zMtM2Am9b0upxMgBXwQ/XcCpfu/+n/7lhlKT3A9aa6iAWzRk45WfmX66V/vCrtA7t+WukVXcnFiNlKfqlqqSEtE6gk1G0UN2Sp7hkIvdkQNAuX4sVVWKo7L1NMkrYMrlWUBRtkwqstzKuNANJPSgoxBWxUfSXJQJLSEIliUzVMEDCMlfzHGBsuEqfSKPL9D9pjextDc2HXpdKi9WZIiYfuMzlcuWVC65Pgjgjo+Lx9v3UPq0+ipuyXCCSqNVW2jhQugDskALo7mSPqd4hhVhOE+oeWBYydoYTxe2/vy2N287VlPkcO5z+h/8j40z2dQ3QncaltvIFQbYbylsz0Ec9vpgKotkP2REAB5QJ+yrDRRPV9kLvN60XaQcG6xZlVJyG37FRa/TglutICRQsTAkc1S5cxCgVvERBm0Y4SJOn7K/ZXT3fvknN7/pmsN5t2N97cs3//ca7JPP6iT19891k7PbUQLTZTuZJddAllnoxZEcYZBuM84IwAaciFwDWe71q8VepQHKVg9g3m0/3MTf83scg/m44tgaEnmNGr+kcWU7fZnbKrymAJcVZg0EOCV+6vUPfez4qCYcCcAtBu+rNn9+465s+j/ORpWzu/TcEkMUVCU+m2+lWReeUYajqL3OyZH7g6Y/oPK9OcmWWa3GHFZurSqKAzbtcDvLSjZHkuoFBCpVxEFXPNZqrYJOswnDZhjBRCK6SgRgHvIIaYHyylIDNjMrekzGZ74oSyYzZO020GioXFnPQ0qvWOgQqbTAPFMS99BToQdexKTzfFmRoQYsAq6UPSpyaOXZ5dbKwZmD1SCVHfMbUuajhiJNX0fnmmqw99aHPvUHs8caHA7lfr98xedfvysa+2rqTqIXmbDI6WC6QhQpthMaPi5KzFAQ3ytfUIpsizxE0j8cHSRYYeEMdzCMSzJLg9I/nLCkmAyRRj04FRcR4/G5IrFFjT2e4pM8gOcEtL9nwYjm4aQteEaEqaq5o5ouXGf1mm03mv/+cnMzv+zy2yZjs/Kqnrdqy0JQX9dJG+iRr5YFLo6BiKXaDJFEMUzDRWoZiNjvJvNpFQeGlTmSnRAzBpaThct8kfguM16K9C/ajzsHHi7yYIMgl4PtkAB36TDPRJZ5ShlYECk/i8liaf1J2a57Hi0p4fiBc2WkALdoHA8I5pJV18/2rHVBVpVtRtyLYFCDi1VpgkucOErAUrb1caaAjZMsS2D5vgoZEGxlBc0Bsu9F5oHSInF1P79/8CSnALhn+Rn9zkSBYvFZ8kKLYGx+INZ3zgpQFddVeSPiESvPRBw7xjYNA67rIQxiuCQAYuy41YFZrwmjmnjYBO6YxQER3LSDMaODKXNui9V79JaHPvWeoQAt3+qMy//3n8/aa66bQzXXtVMn0eqTH3jlktwqE0F562KRPpFKkQL47PD+i+OPRV/lFKDFc/sKA0U7VG5qkePNsI1NbT4zlpxe38y+5ZrRlyum9fVodvG7P/kvb26uvezj1Z2f+MMOZcZ/tPXSsPjzYIvQKZvuXGWbY682M3tDmiQXBGH06l6cICIhj8E9iSckM5Ijm8/KwQwNyVTpK9su2avPZSspc0WBi1LeVWcDxf9FC3MmrmLmDwlsi9aoMwm+W77A9gsfOK/psFuYTGZwWvrjjf/wycvuPpidR/33Iwm4hdF+fdP/uqadTVw8F9jn9ChlbfpILHouEdz6GML2ovJQjRS2aSFuNWE2GopkWcQP2WNFqKGICeS15TJmJWlxIO3oELtLrKbyghk77mN4fnihJkYBtEsZBkV2xaAyasqFgO/Agcd2JxH8RkMO1RJ63vQM6dmGIewaD9mUZJHr1yTDwwMt08OEE2559KaLhn4Y9KLLv3Bfy1uzbnfHRuIzZYk2zr2W3GYqLpL3y9Dq+Af6WiZ7Pi5EGko5gAzvU4fPTCPUmeEStKWqLw27eMEpp3yflXFm3IRvG3fFYSdGZmaGkVlRYlyUWL45381+gzu1ED4ieEL8bnG3IoegzG5J5Uxg6AdXhzjsl+MyJTrLuZJDkRRqcFGIZPfooAIvXMSp7vy9P7r5wtcuRxtW8p4jDbiFIc66/JNnN+2TXjebTbx/JvIRMSDLdDF6hgFjrcpbrdRr6DIm2uvBqFRyxVmVarWkOprfNfcGZLDvN+mf3bM68PsSM5WDm0Gm+sES2iK1aTC3VnkeQsjOzTBjkF4FYYfcwQ0kDENwgTBNWLapyGRMxoFD+BUPvbl5eGMTiELGai3U0cYUntrqZk/c8uNb3znUwx8Wc8xm7l8ntbXn7emYCM06Urug3KMXqw53VPgkzy0uMuCGOQoJfiZTC1VGSlYs1gqB4XsOeq1FYbWr+DbiXg8W4z05C57h1dDp9NCoeBIWMbJYFtuFdg+OX0NkuUi4uMh6zw5XW39ep55QaIOt5LQfnWf15xV5eWVYcL4wztxV0zJ24SQJqkkHp/i7S5+xMMyhfti9fuZlnx1fqEy8J/FXvWEhiM5qM/Rqj5E5V2Kn3T17YU1OwnY9BN0uTFJExiTtUI+SzpXUMQWGzGNNJSMgb4pMiqXwQKFkOgi2S+lJil4yk9NiflRMUqVjFSfsxSsywXypDUU7+EPxxnmS7NdlDjtMGZPsCeZ9xRKCdKwUcXsBdY9qphET+x8w0/Cuxz+yYethG3EZvvDid97xhmZs3hladcx0bSGh96qTCBjXFsKnIqWvWJDU9ljKVPbbJi9D4w52S6YMysEoc6TzNMB+1ZsqImH83ySxDn+fxLAMcnyYUjEZZR6YfSH6fOIdc7xl8Ko1YWwTf7nQCZODXA6EGGYaKoAXlqzB+PTBGnz8/H6/kEnmKAeGmw1JDVRcK67dQLDYQ9X1MW0+fc/jt2woNUFRqQB3cKi95g8++bpFe/q1TybTW7rWuExcx6sgoBqthBIsGK4vif/Mp2XnZkS0VB0oEHSZhEUtJVWplQNy8RCGC8QFMQYyBZZawNhZbKXIbGYp5GBLryVPZyoyulTCV5Gov//EYm5tJTXhex5m5xfoQil+CXpBTKFgPKs1D79mopo16dFuGU9n7v/B7aNDS3nyu+++fi5wr8pMD5SeMp0GMvJhBMyrtpCGoVTFKYmfQnUiP0cvQi/DxBDmqnIV7et6FYMhDzMkiXA1xxHVMAp+5wQ+866ZAeHVFfWhbcE0Oa5idS37j7wVeVqhgKqstMq75UGn4gkhZ8jzF3CZ6kkF4CSrqAwFVkKSajRj9oKJrGvCG5uS+han/Th+1X/0vO/f/K/vG+aQOZpnlxZwB1/6xZu+dpHp1s7fs9B5H5wKugk9D1dCD1KhxkwAfpgeJJLtivicA14VAxeTbICvIX+AIlEZOMwZOGSQfFmLh3F5Ko5kMhTArU6A1WQqKhmKuG6uiptl8OIINstcJZZrwXYddFvzsBwbVSfDqqpxfyVbuPbHH3zdXUfT0cf6uy+67DPTvakz/vbpRfscenlOtYKI9uWBHoUo+WEBiW1LHqiUlEpWAbMuuLModCyHCTYsJlEE3OmB/Syuee5+SzGOC9NnClp+XrC4CNRr+cLIgC+pRAnKCUyLOxcagACSC3aKS8+FWRWlsN6LH9H404CLGOR3pskYVovyKB9T3ioQEUSx3QJOrc7e8/iHyymRLk7dsZ6Iw74f1YQXrYl3dsyxC3Z3s/WJ00DC8lmmkjEdiTNBFELzJAGJLRatLk5Mn+UtBieFWG3Jh+3TH6ok2dxbeo4shSKpP6+YI9wnUYjxitJ/M4MWTl3T2Gr3Zu9OgtnvjwLZzoHWOH3TVy9u9swv9YwqQnsSEYs6CDgsIebCkSctm7RZTLBVoCqSSgJkUjqobltsL4YycA4CuBJkt2B5HhICbEFlyPHDcmJmxPDMlilq9OQdS4CUMXbH8wVI40RJGqncbXVQK3H8PMdbSnmOu1l4aJ2pRCTVopNSRFLycpsso88zNjhneVZjw7AiZGELNQP4ZXvXxh/c+MZSZiwc9119xuY7Lwit2oZu5ryxE6avDCMeVinCc0Vlx21fngurEOCACVDEeAsveGCZEoDNvVX5bpHyNODR9qVEEqmUsxHAypg3y8q5EBPj1e/ZZhxHC7N3WJZ30xRm8a2P/v7ioQ3Zlb4qM05973e275xPz3FtyrSQeIeqE7aQgcMu3HsWl0Qw3YoKa+aUmoqgR8rmlg4qWZ88zI9IS+QfOdAqSqQVC5ss0DycZcaIq0q0M/J8yIFpAstIkAQd+FJU0ZOqQlYr8iCN1YYZKyAJ0EXeKx+VHyBKSEHI94dpgOE9W2TS0zy/nDsBlqFT6Zvl2wYJnXJqUvJk2Irb2UyrWIN99+665dxSZiw877r6FZs+fUFkVNd1osw0amsvmk0msRDYZ0tuq2nI3ODBiLB5cZ7QSYu4NTaFOyGKqSys0rUkNpzE8KiYIIUNzC7wRMgxSoR0kFiEUA68gKmaucOJFr/SsMMk7bW/Oe50HiwLi/1pV951yUxU/7tuYBqmVRPSnUjYvjgNmBHFhSovFxXnn54+wYsn9AM8D+Ld5iTT4vENGXCfgTeH0p6lnGxhdCvwOs/C6GcBCyjnn/1m2kBO95DzYIcHt2qMGCmry5jsw8yEFA7XMq7XzMmTccRFjTuCFGHIgo0aauYiTo9/sv6hj/3+9qG2/wge/rwD3ANtdPrWb/hex3GsVpSFVsU0q3g5cwCNzHAs09oQITPJCOZXa2Y3CKw4zS6enJo2ms02QdlwLSOLg15m23ZiGMZdWRBmcRylvmPeaxpJ8tCHXi8Chy+7/NOToxgeONiYOfPKz0w/lUzf0XZPPKvZYUjSEa8t5V464Ok9o7Kxis/mpOjisT0DbDmrcs9WkttVYvsSufrBWrJSv382wF0qpFCFBsW/c2mYAjQHUw3Z3CJWJbMs/04/BbEIqeTx7pV6vVF6joyRnDvBZDFPCpuVoSxFyYnTjTQQB4jah261jnaXitLz+BcnGPf88P1nly5j4XkPuAcbf7/3e5+1Pve5Swf2nQf7xvHx+5dvvqu2JzCu3Bc429z6NDrzC7DGppCQxyJI8nimATMmLWaWA64CFnUINKhUUVSa5bXzEr9eykMd7qHRc3m0A15sUV7Mqjh65DloigqFFJ8eWMQxWOlWHBAMhFFkiBR52s9jwJUQXE4jKSICS4fWUrJOxyftwiW/MQtIeb3NiuwMUWsBL/TnNzx865vvKdOM04Bbpt5aobae+74vXvREdtJ1Twfua2A3FLl32pMS47DZVixu9EByBjSGZIs45FI8sgCSHNBySWzW+TOWLdwJDEYIUfahbOOX6+V/MeAWdJjy9GcD3IJESX6fH8TuB6i5RNQAYf7gmwz33ZfLpod63+Kso1jDsiVKlJS0TBHSpCOAG2VVRQSVdIVH2XOrmEz23bPzI+tK5eVqwD3UsfE8uO7szf/7gl1JY9veXuXcdtuEvepExK1QhBsdx0TUJb9sBK8xhqDLgwxyQAzyJBQhgsH8l8HteH5C308TKwB3mMYtAPfZuTL2bxkryZZCCv3FRTzeYmFZAnBhfMuBtv/TA3k3hl34MUzT54sYUdZM1OFhxjTLPkdJCsdL0e12yPAP2B7qjoFut8uaIPhWB6fHj6778Sf/1f3Dfo1Dfb4G3EO11HF8HVPpZszG38zF1fUdaxUCswbfq6Pb7sH1fck9FcltK0XVs9GNesgItH4tpz7Mh1GRElfEKfOYbpE21w9pCuGVgiAhUS/NKDzQG84rC4tyZfFwl0IEg5VUg4Cr+JJyMSiJfR/Hg+sXvppICKhQd2arlEHJ5mA2Ql6cZJFRjwdrHtDqSG4047lRlsC3U6yOZ/78idvOf39ZLPi87eqydNBytvM33v1fJ2aN0zbt7ZnXmF4dnSBV1cmkrSTTrmGKlDaZ15gOxckg4QXThOs7CPl3VpAUSsr5IZgqXc4P0fJY7ZJoGRG2yFzg2w1ZxHBw+698qwNMPvjvA6cLS7iVCofkqmQn9gAAIABJREFU2sqv8wo1oY1c0mUrbrpfIYwwtxyKZ72co2B491Z5uCq2HUkBEQscGnKQytJnFkCkTDWUYUKOEQeW/C5FlPYklut02hhr/3z1zv/5r0shFqoBd3jjbWhPfvE7/tuUXTnlC081s3UtdxqRXcvzTCm4KfpDea4oaxmUKq5UGgv5OitWfYSdJkxH6Fry2GURWlCCkOrwrMhKKA6OChHQImUsZ+gaImPYoGSR6pDDAVxiRU6GnvNCiDH6syqn3+yDepHLPfCM5zXgUlmL4yRGPAi4QrwfyM+p3ALPV9p1JEMigYqVwXIz0ayr2i6msee+xz96/ooLoh7JBNaAeyRWK+l3Xrbpzgvm0sq2PYvBuX59Ej2WQJuqIuqZnyW13P29M/Uv5dXlvynybp9xkwO8t8Hr9kulKotBD7BT34MdCIsM5tUOcSEpi0X3X5yL3Q8zFAqJrGKM5Qt6f+3OwzlphCm7jbXhE6vKkHapAbcsI/Mo2vnr7/rcRV1v7dWPzafrrcoqwK2g02rCrlbEe9UfbYFyWoAESUA8vxOn1bM/f+zmN4x8LFcDbjlH2kFb/Wvv+J+v77rj183F3jmxVUO7ncH26kJDGErYgGQ5z+cc0IOaUF8w4haQEHgSY5zk8O05TMVPTD35qUuHpnRyKObSgHsoVirJNW+67OPV3f7kphlj8uJdaWV9x6wrRV/ytdKRZUkywwfU/BofE0FF/dEWKKsFCLgeHPTI5mZlmMLTV8184uK/GOX30YA7yr1zmG175RX/a/sjTe/cqHEyOlRrpVii0NBSvDKBQ1LsThu2YyMOSZjNgwiquuqPtkD5LEDAtTMLMTNFqoDX24XuLeePNKaNdOPKNwSG1+KX/n+fOn/RW/v1PZhC4EwAlQbQaQEVR8m0M82AIYROF069hqjXguVaSEaOPGZ4NtRPLpcFBHBNCxEVjP0MRtjEmnj+6t23/+b1o/omGnBHtWcOo13r3/fpyUd227M9fy0C/wR0wgyIA9hjNcTNGeE9qLrU3lJJ5JR9l5THlGk3Rd7oYTxQX6otMBIWYE15AMMykMWh7OSqlTFMBj+ZfurW3xmqxt9zmUcD7kgMnKNrxIs3/d32mV713LYxjg4Z8hkmIMFB3IVlKXWBKMxgi8Kxow7NlHTwQKL+0bVBf1tbYMUtIGM4EkFWEpnHqYHMGcNY+uS2xZtHQ+/vQJtowF3xUXJsH3jGH33hwllMfTmIXISZh9CoSEWOyt/P5aZJfE5pIf4oI+EzGfbJesXcxudvpdOx7Ql9t6FYII7h16sIFhaF8D6xXNjZbsQ3nzuS2DaSjRpKx5XwoS9922dX7ayumVk0xoCYHLVkyad3S+Z0AimJQJTAJQUrqS1GJBYdrYIcWwNuCXteN1ksQAJzy0UWhPBsSvVwGpDxfwYnY+c1T9321utGzVIacEetRw6jPS/a/PXtP+9Wz42Nek74bcEwbFGhpSYxmb36JNh9rbX8AboK6jAsrS8dSQtkFmyjgrjTgeFlsF0DUZrCoeRccwFrnJlVj9/+W3Oj1HYNuKPUG4fRlpdf8bnXP9we+2q3shqSEyMsVRT1yZQEt9FDhlgOyFjtLyKaQqxSKC9QTp4PHCYX7WG8sL5UW+AAC5AMPguBaqOBTtAUB8PxXURzC6jXVmF1uueaf77t3JHycjXglnAYr7/8tsl/Sk6dDWsno50YSA0PSN1cIyqFhQAO2jCyEJkpGrEIjRoyXicAq2K7/I2SiNegW8Jh8LxvcsE3nKYZ7MoE4laTlRBwKQCVppgKZ7Da+OnEdz/xhwujYiwNuKPSE4fRjl+74kv3PhI11gdmHQaZDiWX1hMvl5ECMuU7Rg8GQtFVSAwLMSrI+uoEjOVqwD0Mk+tLR9ACJFAyzRgJmcSsMWEQ8vwMaXceRmcOJ5otvCB4/LXb/+qKe0el+RpwR6UnDrEdr3nn377uZ+H01+bcMWSOByT0ZBlG8ECdYIKusHgJc37xf6GiW9AD8mE6O+EQTa4vG1ELCGNdFoiCNpxxISfH3D741QQnVDtYle7d+A83XHr3KDVfA+4o9cYhtOUV/+EL1z5lnnz1nsQGKlUg7QjgmizlhY00JeAyz1aRXyvBQyaIHxgAy/+d/7xQYyiu+oUqBDwdLnihJRsiB3ShX8zvcNBDuTwPmId5g987BBuI8FUxcnOKxP7PBn+OFGZWiFUW2mnF88q/4Azqre1PsfksNJKDdt2vb5Ykg/ZfhJfEMvtfPaik+6BNnyk5JPeR/tnf9oNjT8ZdQRfaz6AZFOVU9zVSW8a2bceIhPHOF2L8mpXAaj6Ok2uLG/7ppn85cgKTGnAPZYKP2DVnX/WtDz60M3xvWJtEwHis64gmVMoKM6aEccUXoCGLfpgDIgF5YCIWMuW5mrfS6uJH/SniDX3QHjBASrA1yBWiaBooJsmv9FUk84lKrxspPM9Bb2YGaIzBrVYQLszDqteQBG01+bgdrNWE60HUgIXAm4d7BizLEnmfLIpguTZl6UGBAE4sWOTlo/ovKaO4wOTE34yxyAuQRD2ClyqCngQWYioOM6wio56HhksqscPrYgUmS/YveIafjax8CaxEaYIBoziE5XB3k5PBFwehjqvsI9kpNEAEw/OQhV0ZL2IzMsYxjYoXJAEsz0LSYjl4Le9Pjp8C7CwgTGC7dckKcOoVRBFtW7STtszfpViA84NcdU6Qg604Afl98/obS9Zehr6AlO1hXxajMIth8Rwii5CxT1MDhuHAw7g8P/O7SDttGNU1MMMuptHEePjYa3/6n//VyIQRBseWBtzhzbSjevK6ax74Tz96uvnH4fhqtBcpgzOGpBtjbPUJWFxcBLoLQI2TiSDGAc9Jxn+rLjfIpC+qDApkl/TGDgK4Iowo8mYc+0qHqpggnMQ5gCuJHQBBAG9iAkGvm8+hXFHCIvY5MAiq8/OwxiaRdDqw/BrSSJGfp2kE07KE9T8jIJucjLwN84xNAWlSVfflfPieXHAKoccsgZMGAkUE3MRwkbEoRBo5WoArfUNVYIIWbVccZva9vSWwVerBCqQcx0EQsaxVbRPsSg1xnAIhpZBsmI6PNAxRazTQXpgTkBWw7HXg+jbC5iJqjSq6vR7SJIVdqyPmIkhby4LGB9HGCggNPiczkZG/QGSXBgBXDFssYqZIynNxFv22HGlEBYSLtOjApbBjs7/BEX073k7eWWmbGcyyibqAOAipcDinoYG0w0WXoYQuGg0P3X2LqMVNnOjOrf/Jx353+1FNrmX8sgbcZTTuct/6VX/8uQ8+3Kq/t2tOwDZriDILUTMAxutwfaqYkxEsnwAiiUovl4drHPORTI5UOZN9h6IfEng25QLxdug5F9IxnCEV8YbMLIGJGFaWIDXUQV3KSUu1VU5KAkAcwvE9mKaNICLfQwjbSRCHrId3YTseoiCW+WiZqWBnFEVwPQ+9OIRpu+L1JnGsFCeSGKahUuE4IaVVhi1ZGTyrVh8FYvTI1b+YJsfCjyKksdy99IvvX+ihFVpohuROE3Bz4MlFKQ16d33BSYKZWihFYLHXg8dqq24TlLPlIuY7ruwGCL4J+z4I4I6PIaNWGFJEQQcVo4sX1NJvZWn01ZmWdVXPrAN+A50oBaIYVqUOMzWQJJl0YZz05LuO5yGKMriejygIB0JYg++qwlhS4cjDrX5vsECBlY5q4WZJLt8jInjKqt+TEBkyh8uHchTCHmpjVbS7LbWtohfseTJO0m4PZtTEqnQfTqsH53335t+5b7g9epD+HuXG6bYd3AIbt951w0O7ss2LaR1WbQ1C0tWFPcBNgF4L8PNUMCKriDcqwLWzGKmRIaVKqqr5ffZY7yDwmgTbYktIj4MaaB6M1JLMCIN5v0hkTsQmZa/pFTlETRi+DzNNkHTbIk5J0HWzAPVoDlNj/vZOkl5Hzar/S7W3tR3EZ/MAsMMtrFdHL05hOlSnyL0qi4tHIuqtWUwhR85Zbm9VJR0nagIPGUMT+buZCRcDBbzcukZWEcsdZkqcCgsoYGE/EXOC/uKhSq/tfMFgf6WqJLsQ7ZQ/uYlJYLkukqgLx7GQJJFkZEedDtxqFa5lI456MLMQNReIOnPwHWPrrtsu2TY4wl78zru2Rt7UG56Y757t1iYQpg7iiMU0FiwrQxh1UWk46PV6yEIDhuv1d0aSKEMElJfIwwu5SKQl4aViTecb59WOhtDYyr9T6Y8UZhKC1xNwEy6eMmZTuI6FMApg2LYstPAsoNeF7/oYC2ew1npy/T/e8i9H1rMt7Kw93INj2shfsfHP7vjQ92YaVy6aq2BZNhJuxaXOwUAq20Lu/X3liXJnPuBtLG33GAJQnuLgh4cTmYQM8tisXFMcximdc3VupuJ3fUAQYE5hmwYDFojiVIA27nXRsDP4SRsnub3tk8GT77/7k2/70uAzX3TZx6fTxgvePtN1t3XSBkx3EkFsiMfm1330uIWOezkXhA+T3q4ZCOBL+bLwRbj5YsJ2JyKM6aTklKBWVorAzg/RUoYYhgO6RRyWgJuRA0MAtyvvIXbMqwP5fk4WiKR8zJAIFzKlta761HWRUsae5S1jDYStRfECfc+Rv3tGhErawZjVu3/cbG1rxOHf33f7//ucFViv+pP7LtnZtq+ZidyzU2sMUZLCsk1YBPwkkACN41UQ9EI4DNNIaImL98AhbT4eVK4ssTg/7GI4Ire3KjHPARohTB7+po7Es3m9JC+aGSzPRdLuSty5Ua+g2W4C1Ros10RjcTfWJE+d99NPXDrSnq0G3JGH0cNr4Os++L0PfefRzpXdrCJxuG5zEUatqmKf4gkxhsuBnKitmIT8ePjFnxE3U5k0BCOJs+UfOQ0W/2QpDicIK9+nJ8LtfeG95Ace4pnxZwkQBbDNFFkco+ZkqKY9jNud+8aSxff//W2X3nmwt/y1K792yXzXvrodu+ekdg3NdgBjbFwpWUgj8kMfet9GIpwRqj0mUokxCiqp+J8ALtueIbCVtDmGDLhcIOjJPQNwZXfA9jFcE8EBgY6eeUUdKsqpJk2QAy/fiyDNgywjgeWYyDoLmPAM1LPWfdN27/rv3fSWuw5m7/0Xvm9MBxXnb9updU5MZYWIZ5yGHNKFjKunBmxDebmJOTB2iswYMf0S0C6dFaifqf5RC6KRdlV4IeXCw5CQcgBiK1aec+rI4o1eBwbBveIga+/FGW5z/U9uefPIe7YacA9n5JXk2nOv/PyH/ql7wpVzUQVmpYa0SKvJDJkUcqCfb7EzUwGlF3PLaki2Abfa/F/imwXgHuChcBMs4WDBO854bvN5MYGPQFt4XurfpuPCiFqoRrOYwtyOk53F67bf8v/s59EeinnPvOwz0+3q5Dv3hI0ts10b42tOx0Kzk7tPsZqjctJGd6tgn6TXRY9dybLTc1LZAPSIWf6sQhDD+qjYMktTbKTmUkiBP5fqQVnUuOEOxMPldZFVVR6uZKHIqRLQ7QGOA9N3kYYdVJ0UWNyNUyeMbWPx3D3f/silXz+adzzzyo9P75713h7VTtnWwiTanRTOxJjEdlVIvxgTg7SfA0+UxaEAXvHjlXMuYQjVH0YSyWLI9EaOsZiHZdyZ2CHAjBa7Bt/2EXV7qLkmkvYuvHBV/NoHb7h4JLMRnsveOqRwNCNxBL971p9844aftqubW6gjyg+OJKsgB9/9tn7cqiZmHtc0EcsWLx8Sgs7FgdOgZLraEjI7Qbxh8Sw5e3LAVQ6k/EhipmmAaTe6dxVmtj148yVfOxYm+6U//LsLY3Psmk7qru/xAM60SJamTtZzT57xB3rzTIujJ5sxdk17kHCdtjAZksjB+Fg06gjuoQ6NVEZCzEOjInuE224pw+YPGCoJ4aaBeMJCVCSn+F3wIC2LUlQrPtKoAyvtYapq77CjfV/5+U2/teUImnTQr/zyu+64oGM0rulm1nldMtSZNST5OOunEfbvMriYPQfUSEqhkoGih1s4BbGAcQwkXTi1GqJuLGmDNdeGG+zDad7i+n8skWerPdyDDq3yXrDxT794w/bdtc1R4xQ1mIMQrsO4nxT6ImVsV+KakfIMZWtKIMoJbvppVQStCEhDOIylWYZkDTBboHBuFPcuT6FCxcMLU0DETXoYTxfxAnfx4m/fcnhb2UO1PL3epjH99gWjsi22LSzGGVJ3EpnlIe0yP5WyFi25XcLTbsnDJZDRs11Uub/iWQ7Hyy1O6blwyYLBlpDkDTyhZ+iAP+hINaElYRGmttXU4ZLRhpV04ZourLCNkxvY4Uf7rv6VVdm9n9t6aZ58faiWPPzrXvGOv3r9vLn6uj3GqnPa3CVJ+l6GiltFt9mEU6lIzD1hJonjScpZPwxFr1bGY5JnVTCn2kImSdYck4kMpVTCIxxTzFQAXAuoxjNY682e96Obf7sUMdsDLas93MMfa6X4xsbrv33D9id6mxNvEmniwGHqTRDAcmyJ15quo7bbeWGAIK8Q4OR5rOIRp3AY202YQ8u6dSAStQgblukhiRPAd4FWE2NT4wgXZ5G0F/HCEyfut7p7vzoZPvqR+25/+4rQ473yir++uAX/qn1xbf18aCOjJDzzUEknRcA1CFlcUHjoxHdrywIE8gcPEXCZz8z2JBLiIOASbFnIQMBl+7idjmBEsZz9mQYPCXsYr4VAew8mXeeBSbO35Vs3vvXLwxiYL9302VVtd+0fLXbCazqhhV5kozGxGs1WANP14Dg2goBpfyp3tzI2hu78AuC6suAbjDUHeaUYY8I1G3HSAcKOCjekHny/gSQIMW60MB7/8/pHRjjP9mB9oAH3YBYq8e/Ped9f/6fvLkz8ceithc1wGLlyLRfd9qJKgOQMptvAUcDDMeb2SICWWzsVj2PRgUpUpwPrIWV6Gfd7Tg0IOoCTAWELdtxGPZ7BGePxtX9/41uWZTt7KF1x1pWfuXDRWb1hTzR+1Uw7g01vlyEFERoq8nN5kMgcXvIGH1jzfChPOXbXmJJPxYOhvDAkrewPuMmCZIxJJly3i1qWYsyNYKV7rz3Znb1px41/MHvsWnPkdzpn039eNZesvmJfOr1lLq4h8ca5OqtFjYMvDWFy8Y4jGEwStz1ksUqBQxChWptGtxMiS2M5DnA85TEzzztutTBuB1hj7d7w8K2/OXLluodjNQ24h2OtEl776q133fDgHndznI0jIW9uksGyLVR8oBV0VYmsnIbnZzB5BRNfVWK0MtOJtgRaThwLsFlVYcDxTaStp3FSg2mw+7Y+fkBe5zDNtfbK/zPdjic+240q50dELMPJ49NcVBJVLWeaSBgHHdYsUDlRMJDApsct0KsAVx1CMj03A5qzsOs+nF4L02jf/cRtr984TNv+omeve+8XGo81K68MvVXXBZl3Hhe7VrcD31fpY9whsXAFlgc4zHMLBJQdu44oYLELy7kjKedNej04bgX1rI0pPL3xZ7f/9kgR0RxJHwxrqB1JW/V3jtACr9v6pRse2D2xuWuvRtVz0F6YlWCh7fmIUxXD5AEMq8SYAypbcMlIYspOPvEdD5btIGl1JPXKMwzYvVmc6Mxt+dnH33jtETZtWb92xuY7L9jZrn2li3GkDArafJ9QxQ1TE6ZUpakT9uF82B6GcFiC3JbABjXppGAjd7wl9BNSDDRDLZrB6caeCx689feOyeHjcr/zWe/4zIULZn3b7i7OQWMN5jrkDnVhVWpI2iHg0PBxnmerMkwaNR+d1qKknlUYbmjvxRpr5vyffeyt31zu9q7E/Yc21Fbi5fQzlizwyqseuOEns85mFhBYlQqCJCceMSoCPkuVYnGeHmYjk9JcikUxc52pRvOYHHPhRE1Uk9aWR0cUaIu3PutdfzX2aHzSwhymERq+hG8lO4FELokFk8URwwRcWdBU1oQXs+AhQ4+en5SKhIqzoBvBn1yF3sIeTFr7MPexS0o3Z192+acnm5Z/RRv1rT2jhiBxYbs1dFodmL4K+cjhGHdRQRtOlsCzbaC1Cyd5zQ0Pf/x3Sx1GGMSh0nWeBtEjt8B5Vz1ww/f3ZpsXMxfGxLgqipDSfUY3mU/L2CYPmOj1+WoSMHe14iLb9wRW1RKcaM5uHW/u/uiOT41G7PBg1vjVd37pvieztev+72QHbJLetAESryQ2TGYD9PkJDnanZfg9gYbpYNwxhIoQvmcxkyKFYTDty4RlT0ruqe/FOAFP3v/YTRevW4aWrNgtX/KOv74wcKa37Os46xK7gRQVdEPq5JiA7+QZNSmcuZ14SaN7/nc+8qbjwrMtDKwBd8WG2mg86JVbH/zwj2fjTZ2Eh2XKwyoYqtjCPmlKUaefBaigh0mrvWWq0vvoDz4wWqJ8B7Pqq979xUsejdd+cV9WVaQnVqAAN3ZhcmGRBPwhcePS/sJulsIhBWUGBDzNl/aQXIgytOS+yFAxmnhhZddFP/zLN3/lYO9cht//i//w+Y2BM3ndnpa33mxMYiGJJXbLwwU3mMVp9vyGh28q9wHZs/WDBtwyjM5j3MaXbv3HDz+yL93UgwPPMRG0OzCqE8hCcuvW1Kl5Zw7jHoF2cWvDn735Bx947tr7Y9y8Y367qbfdk/Vqk2gTXeMIdn0ccZd1qkzd4MIzJMAVOkmVFWKScIacEEYhY18IfiawoiYmzTmclP5s1Q9WKM3umHfCc9yQ4YYFc/W72sbEtthwEHYX8cLp9PwffuD848qz1R7uSo2oEX3Or2/51l/+fE/3Pa3Mg1efQBioajKHJaPdBZwyYWyrdBdu+sGIyUwfiTnPuGL7vU8EWB96NcBm+SsJbiyYFhUyBkm2j+TuR/OdnPfVoERSLCEF4bUQbgVV2mvYCezu01hrzV7z2C1vHSkF2qN58wO/e8K/+e+18drYu6ou7vnHm99y/7G89yjdS3u4o9QbK9yW126964YHdvmbQ7OOCc9EPPMETh03rx23OzftuPHSkcjvPBYmOXPz13/zBwvWHVTIkOoy4fMhe1pO/jI0D5dvl3MJSBl18S+WTuf50VmAhrGAk+JHX/vT2/9NqXgDjkXfHW/30IB7vPXoYb7Py//sm3+xazH702o0s+UUM/joL6LtO8xbj9Tl9bffnbWyKryaj6DLA8KcBEbQd1ghhSUTCVVjTmMoogoyM1l4EmK108Tej2zQc3WkRtSRNUZ34pHZTX+rZBY4ZfN99zwV1c/LugtwG5OI0ypS8g3aUmY3xLcpNM1UEwo2M2GDNRKpzpoId27d87E37UcWPsQG60cfhQU04B6F8fRXy2OBF135tUueTCe/2A16wrAFbxqGU0EWK56IYX8KBd5BwLUQwM4CnO61ph668eLjJsQzbFsP8/kacIdpff3sFbWA+e/uzOqr16KbWohaGQyfBO0MLwwTcJf0N4qwQmEUF21Mmq37n/7o60ude7uinTziD9OAO+IdpJt37Cxw6h99/b6nI39dbI8ji00lRyScucMC3DxLQV6R/A5LvMOM4frZIn7Zmb/moY+88bjNTjh2vVuOO2nALUc/6VYeAwv8xrvv+M1HsjV3NCMqDVswRVWgkIo/Bg847Fvk7GxUa0hiYc+yyGAm6WAe/GAXfiX52Xnf/8TbSsn9etjmeB58QQPu86CT9SsqC7xh02dX3dOcmonHTkXcC5XkuhQbDMtCLO31RNVYyqrDHmzHguva6LTbeOGq7IFHPvCac4bVOv3cY2+BoQ21Y/8q+o7aAge3wBnvfeDehxfc9ULKw0QAh0UGB//e8lyRS55T+NKx4RgZwvYiHMdExbNwAvZc9/CHL7hmeZ6t7zoMCwxtqA3jZfUztQVecsWd1z6Rrbm6R3pGt4KQ5b1D+7C0Nz80ixOYtiFUjG4Womp2cXKwZ+qhTx0/BShDM/MIPVgD7gh1hm7Kylig8e+/knUrk4hF4yzn+12ZRz/jKYwjp6S/pGR4HAvojlsBxsKdOx677bfOHVKz9GOXyQIacJfJsPq2o2uBX910z/07rfFzmkzBFeHL4XyYlZBFAdxqHWGri8r0anT37UbNaOIl1dmt3/nIW3Wxw3C6ZtmeqgF32UyrbzyqFnj1e7967Xdb3tVU+BVpiyF9CLhVx0C70wX8MVE8IIVCtfkYXuo/Nf3tW//tzJCaph+7TBbQgLtMhtW3HV0LrL/805MPOqfPLmICSieen1h4aQcnRCbSQ0wdE9LcpRc6Rnm7Ul2W9GDaDkyniigkIXyEX5mKd/zsL16hwwmjO4SOuGUacI/YdPqLZbbAKVfce8+T6dR5StolATJKDsWwctWLLLWQZibMjLLljPNyqqi8XdKMFdpvwu81CMaHYRQSjTOikXZacoBHyZ+4l+CFE703PvLBV37pMG6lLy2JBTTglqSjdDOPrQVeuumb1/w4mNqWUIFYGBKpKRYp9QsCKz3fjCljBNSCDLxow5LYpvz+aD7dDrypSQTzc/A8T6TBw4++XM/Lo7HpCH9Xd+wId45u2vJZ4GWX3zH582xqNrTHQKUBK1HlvRnFYwm4Ih/P6TFQ+kvvlhcwgVeAOXd8j6KZnlND0O3CrdgIF3bil6adB/75A+t0scNR2HSUv6oBd5R7R7dtWS3wkj/7zo7H57KzY1RypVxyKziICKrUGpOMMVZHxDnfwgDY5jLm+wV9D7e1DEUEeR5wxYQb7cWLa7OXPHjD79x5uLfS15fDAhpwy9FPupXLYIGz/vQr1z08Z/95Bw1kcGCYLpLMBp3dzFQZAyljumQGFwrH3Ktl2qwA7pHHbwvnmJI6tmejl0aox0+ideuFek4uQ1+Pyi11545KT+h2rLgFXnP5fz3vMZxyz5wxiTizYZDXACbSlNpilCo3JGts/9LfgtErj91SRv4oWs7nMFwchx2cWm9/+/G/3HDWUdxOf3XELXA0Y2XEX003T1vg4BZY++5779uJ1evAai+W2UrYNoSRRbANE1lK7QUbTBHLJKZL95ZhBqVFJv8swgsHf9xE8LWIAAAFfUlEQVQBV6QSuUhaC/BrNfzaWOdN37v+3DsO+zb6C6WxgAbc0nSVbuhyWOD0P75v22PJiddkMQGXvIgJkAYwkh4cAVyCrZ2Drvq9eLzFzBngsD3c9sl9LMBKQzSSHuZvPVfPx8M1Ysmu1x1csg7TzT22FjjzT74y/t3F6Xn4E0rR10hhuwbiuV2oVnwkiS3lvwTdmNt/I5bYbpI7u0hVcYTEZMUDVh+md/F/4dyVzIZnfgqhyIodYzradd0Tt1ysmcGObfeO3N004I5cl+gGraQFzrzs4878mg07/nkhOzN1KkC3K9kJdSdDFHSRwUWcGEgNKkQYMBEjSiMIvaMlp2p5aCH/kwdpRgaDqEzVXTlnU7m9z/yTP7ZQSRfwYnfPBf/w4Td9bSXfXT9r5S2gAXflba6fOGIWeMX7vvoXP9rn/KkxcRp6XXqxGcw4kJBuzNgBc3IJmEkEZAks00ZquMgIvA6vD3PgZTjCAJh6QK9XYr22+rP4935/Kld5MtmLudvW67k4YuNiOZqjO3k5rKrvWSoLXPC+z218cGHsG3viCYCENqYNI+zCtm1EPBzjyZY4qhnMNIYFCwk8pDwtMzqAyTzdfCoV4YPnCCP0DcPrM8BJgNOr89c9/KH1OpxQqlFzZI3VgHtkdtPfOs4s8Evv+pv7d6XT55jVE9DpJHDSADGVGPw6kkgVJ1hUZUgTxEGMJPNh+S7imIBLT9aQGG4Rr+Xf+T9TzJ7tw985aYhqsIBfcmY3/sPtv333cWZS/TrPYgENuHpYaAsA2Lj1i9c/tBdXtZMKer0Iq6qKJ7eTWoDjS1oCuWu9JBLPlx5ulCSwLBOpwbxdE3EWSyUw/00vmP/x58XvB//k752si/G0hTW1TnXHjZeSnVd/jnMLaMA9zjtYv96hWYCHZ/b0iet7mfu6yWr97sWZJ9KK528IM+cey/WTxLSsLOyc7ybde2zPikOYZhibG+3MvNewjNRLHSMyE4OAmyDpkz7y6fSPjTSPMRhmZphZlqWGYZlJYizuzbbf9rZvHFor9VVlt4AG3LL3oG6/toC2QGksoAG3NF2lG6otoC1QdgtowC17D+r2awtoC5TGAhpwS9NVuqHaAtoCZbeABtyy96Buv7aAtkBpLKABtzRdpRuqLaAtUHYLaMAtew/q9msLaAuUxgIacEvTVbqh2gLaAmW3gAbcsvegbr+2gLZAaSygAbc0XaUbqi2gLVB2C2jALXsP6vZrC2gLlMYCGnBL01W6odoC2gJlt4AG3LL3oG6/toC2QGksoAG3NF2lG6otoC1QdgtowC17D+r2awtoC5TGAhpwS9NVuqHaAtoCZbeABtyy96Buv7aAtkBpLKABtzRdpRuqLaAtUHYLaMAtew/q9msLaAuUxgIacEvTVbqh2gLaAmW3gAbcsvegbr+2gLZAaSygAbc0XaUbqi2gLVB2C2jALXsP6vZrC2gLlMYCGnBL01W6odoC2gJlt4AG3LL3oG6/toC2QGksoAG3NF2lG6otoC1QdgtowC17D+r2awtoC5TGAhpwS9NVuqHaAtoCZbeABtyy96Buv7aAtkBpLKABtzRdpRuqLaAtUHYLaMAtew/q9msLaAuUxgIacEvTVbqh2gLaAmW3gAbcsvegbr+2gLZAaSygAbc0XaUbqi2gLVB2C2jALXsP6vZrC2gLlMYCGnBL01W6odoC2gJlt4AG3LL3oG6/toC2QGksoAG3NF2lG6otoC1QdgtowC17D+r2awtoC5TGAhpwS9NVuqHaAtoCZbeABtyy96Buv7aAtkBpLKABtzRdpRuqLaAtUHYLaMAtew/q9msLaAuUxgIacEvTVbqh2gLaAmW3gAbcsvegbr+2gLZAaSzw/wPIu4BXX5+ldAAAAABJRU5ErkJggg==;" vertex="1" parent="1">
          <mxGeometry x="361" y="830" width="93.33" height="93.33" as="geometry" />
        </mxCell>
        <mxCell id="peVuCgtXguEHT-1qdN5K-122" value="&lt;font style=&quot;font-size: 24px;&quot;&gt;Shortcut&lt;/font&gt;" style="text;html=1;align=center;verticalAlign=middle;whiteSpace=wrap;rounded=0;" vertex="1" parent="1">
          <mxGeometry x="334" y="516" width="193" height="30" as="geometry" />
        </mxCell>
        <mxCell id="peVuCgtXguEHT-1qdN5K-123" value="&lt;span style=&quot;font-size: 24px;&quot;&gt;Machine Learning&lt;/span&gt;" style="text;html=1;align=center;verticalAlign=middle;whiteSpace=wrap;rounded=0;" vertex="1" parent="1">
          <mxGeometry x="1273" y="954" width="197.7" height="30" as="geometry" />
        </mxCell>
      </root>
    </mxGraphModel>
  </diagram>
</mxfile>
